<?xml version="1.0" encoding="utf-8"?>
<!-- Generator: Adobe Illustrator 21.0.0, SVG Export Plug-In . SVG Version: 6.00 Build 0)  -->
<svg version="1.1" xmlns="http://www.w3.org/2000/svg" xmlns:xlink="http://www.w3.org/1999/xlink" x="0px" y="0px"
	 viewBox="0 0 1366 768" style="enable-background:new 0 0 1366 768;" xml:space="preserve">
<style type="text/css">
	.st0{opacity:0.15;fill:#0EFF00;}
	.st1{fill:#00A99D;}
	.st2{opacity:0.15;fill:#E1FF15;}
	.st3{opacity:0.15;fill:#EA2AFF;}
	.st4{opacity:0.15;fill:#7F1100;}
	.st5{opacity:0.15;fill:#7FE7FF;}
	.st6{fill:#22B573;}
	.st7{opacity:0.15;fill:#0017A3;}
</style>

<a href="about.html">

<g class="About">
	<path class="About_x23_1" class="st0" d="M529.22,0.5c71.75,0,143.5,0,215.25,0c-4.13,4.85-8.59,10.92-12.77,18.38
		c-11.62,20.71-14.55,40.58-15.81,49.62c-7.61,54.66,17.03,110.38,32.79,146c2.37,5.36,6.99,15.55,19.34,39
		c38.5,73.11,59.95,105.06,66.42,114c11.66,16.1,17.49,24.16,25.22,32c31,31.46,65.77,41.97,88.29,46c0.44,2.66,0.79,6.57,0,11
		c-5.03,28.09-49.32,38.86-67.27,43c-95.85,22.12-181.68-23.09-301.85-11c-70.92,7.13-66.44,25.43-120.24,25
		c-94.91-0.76-171.83-58.23-222.82-108c0.51-1.37,1.34-3.49,2.52-6c2.32-4.92,4.53-8.2,5.04-9c4.56-7.02,8.15-21.38,9.25-26
		c4.36-18.32,3.87-27.41,8.41-61c2.29-16.94,3.37-21.68,4.2-25c2.44-9.65,5.43-21.5,12.61-33c16.48-26.38,43.24-32.05,49.61-33
		c6.91-1.03,15.13-1,15.13-1c7.56,0.03,13.08,0.84,14.29,1c16.03,2.08,40.06-3.85,58.86-12c4.9-2.12,15.02-6.82,26.91-15
		c7.63-5.25,33.03-23.66,55.49-60c7.89-12.76,21.19-34.72,28.59-68c4.88-21.98,5.43-41.02,5.04-54L529.22,0.5z"/>
	<g>
		<path class="st1" d="M471.58,377.94c1.29-0.07,2.08-0.21,2.39-0.44c0.21-0.16,0.53-0.78,0.98-1.84c0.85-2.11,1.94-5.03,3.27-8.78
			l7.44-21.08l3.02,0.04l9.06,26.33c1.18,3.32,1.9,5.14,2.18,5.46c0.28,0.32,1.14,0.54,2.59,0.67l-0.02,2.22
			c-2.23-0.14-4.33-0.22-6.32-0.24c-2.37-0.03-4.62,0-6.75,0.09l0.02-2.22c1.63-0.06,2.57-0.16,2.82-0.29
			c0.25-0.13,0.38-0.37,0.39-0.72c0-0.3-0.28-1.34-0.84-3.11l-1.32-4.09c-1.7-0.07-3.6-0.11-5.69-0.14
			c-1.82-0.02-3.48-0.02-4.97,0.02l-0.92,2.73c-0.25,0.75-0.56,1.85-0.93,3.33c-0.08,0.33-0.13,0.64-0.13,0.91
			c0,0.37,0.13,0.63,0.39,0.78c0.27,0.16,1.22,0.32,2.88,0.5l-0.02,2.22c-1.34-0.13-3.01-0.21-5-0.23c-1.9-0.02-3.41,0.02-4.53,0.12
			L471.58,377.94z M485.24,354.41l-4.44,12.5c1.26,0.1,2.65,0.15,4.17,0.17c1.59,0.02,3.11,0,4.56-0.07L485.24,354.41z"/>
		<path class="st1" d="M507.9,381.1l-0.97-0.48c0.28-3.94,0.45-9.39,0.5-16.34c0.03-3.14,0.03-5.57,0-7.28l-0.07-6.28
			c0.01-0.96-0.05-1.6-0.19-1.91c-0.09-0.21-0.26-0.36-0.51-0.45c-0.18-0.07-0.98-0.14-2.41-0.22l0.01-1.76
			c0.75,0.01,1.95-0.17,3.59-0.53c1.64-0.36,2.87-0.74,3.7-1.14l0.9-0.41c0.26,0,0.39,0.2,0.38,0.59l-0.08,2.56
			c-0.03,0.88-0.12,5.49-0.26,13.84l2.5-2.44c0.79-0.77,1.49-1.28,2.12-1.54c0.62-0.25,1.37-0.38,2.25-0.36
			c2.3,0.03,4.14,0.92,5.51,2.68c1.37,1.76,2.05,4.05,2.03,6.87c-0.01,1.38-0.21,2.81-0.61,4.28c-0.4,1.47-0.88,2.67-1.46,3.6
			c-0.58,0.93-1.32,1.75-2.23,2.46c-1.14,0.85-2.11,1.63-2.91,2.34c-0.95,0.84-1.75,1.38-2.39,1.63c-0.65,0.25-1.43,0.37-2.36,0.36
			c-0.92-0.01-1.77-0.16-2.56-0.45c-0.79-0.29-1.68-0.8-2.68-1.54C509.38,379.48,508.78,380.11,507.9,381.1z M512.48,363.86
			l-0.09,11.21c0.5,0.9,1.1,1.58,1.81,2.05c0.71,0.46,1.51,0.7,2.42,0.71c1.46,0.02,2.65-0.67,3.57-2.05
			c0.91-1.38,1.38-3.49,1.41-6.32c0.02-2.67-0.42-4.69-1.34-6.06c-0.91-1.37-2.11-2.06-3.61-2.08c-0.79-0.01-1.54,0.2-2.23,0.62
			C513.72,362.37,513.08,363.01,512.48,363.86z"/>
		<path class="st1" d="M530.42,369.23c0.03-3.86,0.81-6.75,2.35-8.67c1.84-2.28,4.48-3.39,7.91-3.35c3.42,0.04,5.91,0.99,7.47,2.85
			c1.56,1.86,2.32,4.78,2.29,8.75c-0.03,4.09-0.97,7.23-2.8,9.42c-1.83,2.2-4.36,3.27-7.59,3.24c-3.18-0.04-5.58-1.1-7.22-3.19
			C531.19,376.19,530.39,373.18,530.42,369.23z M536.12,367.62c-0.04,4.34,0.4,7.44,1.32,9.29c0.71,1.43,1.8,2.15,3.25,2.17
			c1.27,0.01,2.26-0.58,2.96-1.78c0.7-1.2,1.06-3.39,1.09-6.57c0.04-4.37-0.36-7.4-1.2-9.09c-0.69-1.35-1.77-2.03-3.25-2.04
			c-1.27-0.01-2.28,0.59-3.02,1.8C536.53,362.61,536.15,364.69,536.12,367.62z"/>
		<path class="st1" d="M552.99,361.3l0.02-1.88c2.19-0.22,4.24-0.66,6.15-1.32l2.04-0.83c0.25,0,0.37,0.19,0.36,0.57l-0.09,1.44
			c-0.26,3.75-0.41,7.36-0.44,10.85c-0.02,2.25,0.06,3.75,0.25,4.49c0.19,0.74,0.53,1.32,1.02,1.73c0.5,0.41,1.16,0.63,2,0.63
			c0.97,0.01,1.83-0.3,2.56-0.92c0.74-0.63,1.19-1.32,1.37-2.09c0.18-0.76,0.28-2.95,0.31-6.55c0.02-2.88,0-4.57-0.08-5.06
			c-0.05-0.26-0.15-0.44-0.28-0.54c-0.2-0.13-1.13-0.26-2.79-0.37l0.02-1.88c2.8-0.34,4.86-0.76,6.17-1.25l2.18-0.9
			c0.23,0,0.35,0.17,0.34,0.52l-0.04,0.66c-0.24,2.83-0.4,7.98-0.46,15.43c-0.02,2.28,0.02,3.72,0.13,4.31
			c0.07,0.28,0.17,0.47,0.32,0.59c0.22,0.15,1.07,0.3,2.57,0.45l-0.02,2c-1.57-0.12-3.12-0.18-4.66-0.2
			c-1.25-0.01-2.42,0.02-3.49,0.11l-0.18-0.44c0.07-0.81,0.13-2.09,0.2-3.83c-1.28,1.21-2.53,2.54-3.73,3.99
			c-0.98,0.49-1.94,0.74-2.88,0.72c-1.26-0.01-2.35-0.33-3.28-0.94c-0.93-0.61-1.61-1.41-2.04-2.38c-0.44-0.97-0.65-2.34-0.63-4.1
			l0.06-2.66c0.05-1.65,0.09-2.98,0.09-4.01c0.02-2.9-0.01-4.64-0.1-5.21c-0.07-0.37-0.21-0.64-0.42-0.8
			C555.31,361.46,554.46,361.35,552.99,361.3z"/>
		<path class="st1" d="M578.34,361.77l2.75-2.09c-0.01-2.88-0.05-5.4-0.14-7.57c1.87-0.66,3.65-1.47,5.32-2.43l0.61,0.57
			c-0.32,2.36-0.55,5.52-0.69,9.49c0.63,0.14,1.25,0.21,1.87,0.22c1.4,0.02,2.65-0.08,3.76-0.3l0.18,0.15l-0.19,0.88
			c-0.21,0.91-0.37,1.75-0.47,2.51c-1.6-0.15-2.78-0.23-3.53-0.24c-0.56-0.01-1.11,0.02-1.64,0.08c-0.04,1.65-0.07,3.1-0.08,4.35
			c-0.05,5.48,0.07,8.59,0.33,9.35s0.91,1.14,1.94,1.15c0.3,0,0.63-0.03,0.98-0.11c0.35-0.08,0.72-0.19,1.12-0.33l0.34,0.93
			c-0.83,1.08-1.64,2.2-2.43,3.37c-0.51,0.09-0.97,0.16-1.4,0.2s-0.81,0.06-1.17,0.06c-1.15-0.01-2.11-0.26-2.88-0.74
			c-0.77-0.48-1.33-1.1-1.67-1.85c-0.34-0.75-0.51-1.87-0.5-3.36c0.01-0.78,0.06-2.83,0.15-6.16c0.09-2.92,0.15-5.22,0.16-6.92
			l-1.05-0.06c-0.44,0-1,0.04-1.68,0.13L578.34,361.77z"/>
	</g>
</g>
<g class="Home">
	<path class="Home_x23_5" class="st2" d="M-0.08,416.11V1h529.54c0.57,6.94,0.99,17.07,0,29.19c-5.24,64.22-45.97,132.83-107.76,165.4
		c-60.2,31.73-85.37,0.25-125.14,29.19c-61.5,44.75-17.9,132.1-69.52,185.93c-27.83,29.02-85.74,50.81-215.52,25.94L-0.08,416.11z"
		/>
	<g>
		<path class="st1" d="M127.33,179.91l-0.7-1.88c1.61-0.96,2.5-1.58,2.66-1.87c0.16-0.29,0.17-0.72,0.05-1.29
			c-0.18-0.88-0.89-2.98-2.12-6.28l-4.57-12.2c-1.55-4.11-2.45-6.33-2.7-6.64c-0.15-0.19-0.32-0.3-0.51-0.34
			c-0.32-0.06-1.35,0.3-3.08,1.06l-0.7-1.87c2.54-1.22,4.55-2.21,6.02-2.99c2.32-1.22,4.42-2.39,6.29-3.51l0.7,1.87
			c-1.49,0.93-2.35,1.54-2.57,1.84c-0.13,0.18-0.2,0.37-0.21,0.59c-0.02,0.35,0.21,1.26,0.7,2.73c0.74,2.18,1.52,4.37,2.34,6.57
			l0.69,1.85c1.33-0.61,3.4-1.66,6.22-3.15c2.51-1.32,4.35-2.34,5.5-3.04c-1.79-4.84-3.03-8.03-3.73-9.57
			c-0.37-0.82-0.69-1.27-0.97-1.36c-0.39-0.13-1.43,0.19-3.12,0.98l-0.7-1.87c3.15-1.54,5.27-2.59,6.37-3.17
			c1.89-0.99,3.86-2.1,5.92-3.31l0.7,1.88c-1.56,0.96-2.44,1.6-2.64,1.9c-0.12,0.17-0.18,0.36-0.19,0.58c0,0.37,0.37,1.63,1.11,3.77
			c1.12,3.29,2.06,5.94,2.81,7.95l3.89,10.07c0.88,2.28,1.43,3.57,1.64,3.86c0.22,0.3,0.45,0.46,0.7,0.5
			c0.25,0.04,1.24-0.32,2.95-1.06l0.7,1.88l-2.1,1.03c-1.58,0.77-2.82,1.38-3.71,1.85c-1.85,0.98-4.01,2.18-6.48,3.61l-0.7-1.88
			c1.62-0.96,2.51-1.62,2.65-1.98c0.14-0.35,0.05-1.04-0.27-2.05c-0.55-1.74-1.83-5.38-3.85-10.93c-1.4,0.74-2.95,1.56-4.67,2.46
			c-2.69,1.42-5.03,2.69-7.03,3.81l0.55,1.47c1.45,3.9,2.59,6.8,3.4,8.7c0.55,1.28,0.98,1.96,1.3,2.05
			c0.32,0.09,1.33-0.24,3.05-0.98l0.7,1.87l-2.24,1.1c-1.43,0.68-2.69,1.31-3.79,1.89L127.33,179.91z"/>
		<path class="st1" d="M155.63,152.29c-1.32-3.53-1.61-6.55-0.88-9.05c0.88-2.98,2.89-5.29,6.03-6.95c3.13-1.65,5.72-2.01,7.79-1.09
			c2.07,0.92,3.78,3.2,5.13,6.84c1.39,3.74,1.64,7.06,0.74,9.96c-0.9,2.9-2.83,5.13-5.78,6.69c-2.9,1.53-5.46,1.75-7.68,0.66
			C158.75,158.24,156.97,155.89,155.63,152.29z M160.25,148.01c1.48,3.97,2.96,6.57,4.44,7.81c1.15,0.95,2.38,1.07,3.71,0.37
			c1.16-0.61,1.86-1.64,2.07-3.08c0.22-1.44-0.21-3.61-1.3-6.52c-1.49-4-2.91-6.56-4.26-7.69c-1.09-0.89-2.32-0.97-3.67-0.26
			c-1.16,0.61-1.87,1.66-2.12,3.13C158.88,143.25,159.25,145.33,160.25,148.01z"/>
		<path class="st1" d="M180.58,151.82l-0.68-1.83c1.27-0.74,1.97-1.23,2.09-1.47c0.13-0.24,0.15-0.55,0.06-0.95
			c-0.17-0.78-0.77-2.54-1.78-5.26c-2.14-5.74-3.36-8.81-3.66-9.22c-0.25-0.35-0.76-0.33-1.54,0.06l-1.23,0.59l-0.64-1.72
			c1.46-1,2.68-1.94,3.66-2.81c0.98-0.87,1.82-1.74,2.54-2.62c0.15-0.17,0.26-0.27,0.35-0.32c0.17-0.09,0.33,0.05,0.47,0.42
			c0.11,0.28,0.23,0.67,0.38,1.16c0.06,0.22,0.19,0.6,0.39,1.13l0.3,0.8l2.05-4.37c0.43-0.92,1.31-1.73,2.63-2.43
			c1.34-0.71,2.51-0.96,3.53-0.75c1.02,0.2,1.98,0.87,2.9,2.01l2.07-4.7c0.4-0.9,1.15-1.65,2.25-2.23c1.96-1.03,3.62-1.22,4.98-0.56
			c1.35,0.66,2.51,2.28,3.47,4.86l0.66,1.88c0.72,2.09,1.38,3.93,1.98,5.54c0.79,2.13,1.36,3.48,1.71,4.05
			c0.2,0.3,0.42,0.48,0.66,0.52c0.23,0.04,0.98-0.21,2.24-0.77l0.68,1.83c-1.59,0.73-2.96,1.4-4.12,2.01
			c-1.12,0.59-2.27,1.25-3.44,1.98l-0.38-0.31c-0.87-3.37-1.87-6.59-3.01-9.64c-1.35-3.62-2.43-5.76-3.23-6.41s-1.81-0.66-3-0.04
			c-0.78,0.41-1.38,1-1.79,1.78c-0.42,0.77-0.61,1.51-0.58,2.2c0.03,0.48,0.46,1.82,1.27,4.02c1.47,3.94,2.53,6.64,3.18,8.1
			c0.29,0.65,0.56,1.02,0.83,1.1c0.26,0.08,1.12-0.18,2.56-0.8l0.68,1.83c-1.67,0.77-3.3,1.58-4.87,2.41
			c-1.96,1.04-3.71,2.01-5.24,2.93l-0.68-1.83c1.24-0.65,1.89-1.25,1.94-1.78c0.05-0.54-0.54-2.46-1.77-5.78
			c-1.41-3.77-2.35-6.09-2.82-6.95c-0.47-0.86-1.03-1.4-1.69-1.62c-0.66-0.22-1.42-0.11-2.27,0.34c-0.63,0.33-1.13,0.8-1.52,1.42
			c-0.38,0.61-0.64,1.33-0.75,2.14c-0.07,0.45,0.03,1.03,0.29,1.75l0.34,0.84c0.19,0.4,0.65,1.56,1.37,3.48l0.97,2.65
			c0.95,2.54,1.54,4.02,1.79,4.44c0.15,0.28,0.33,0.44,0.55,0.49c0.22,0.04,0.95-0.18,2.2-0.68l0.68,1.83
			c-1.53,0.7-3.19,1.52-4.98,2.46C184.96,149.35,183.3,150.28,180.58,151.82z"/>
		<path class="st1" d="M228.74,121.26l0.78,0.36l-0.04,2.58c-0.65,1.14-1.43,2.15-2.34,3.03c-0.91,0.88-1.94,1.62-3.11,2.24
			c-2.73,1.44-5.23,1.63-7.5,0.57c-2.27-1.05-4.05-3.29-5.32-6.7c-0.81-2.16-1.24-4.07-1.31-5.73c-0.05-1.35,0.21-2.62,0.78-3.83
			s1.29-2.46,2.16-3.73c0.86-1.28,1.97-2.27,3.3-2.97c2.05-1.08,4-1.29,5.85-0.64c1.85,0.66,3.34,2.5,4.46,5.53
			c0.14,0.37,0.33,0.95,0.56,1.74L224.2,116c-0.92,0.58-2.28,1.34-4.08,2.29l-4.07,2.14c1.14,2.47,2.51,4.06,4.09,4.78
			c1.59,0.72,3.23,0.63,4.93-0.27c0.71-0.38,1.37-0.87,1.98-1.49C227.67,122.83,228.23,122.1,228.74,121.26z M215.06,118.12
			c1.17-0.47,2.32-1.01,3.44-1.6c0.99-0.52,2-1.13,3.05-1.82l-0.37-1.06c-0.68-1.84-1.47-3.03-2.34-3.57
			c-0.88-0.55-1.8-0.57-2.76-0.06c-0.68,0.36-1.18,0.86-1.52,1.51c-0.34,0.65-0.5,1.4-0.47,2.24
			C214.11,114.6,214.44,116.05,215.06,118.12z"/>
	</g>
</g>
<g class="Works">
	<path class="Works_x23_2" class="st3" d="M-0.5,423.5v345h591.94c-1.09-7.03-3.06-17.63-6.73-30c-17.19-58.01-47.22-72.46-50.45-100
		c-4.99-42.54,73.9-59.19,72.31-96c-0.86-19.79-21.84-52.23-45.4-46c-2.65-0.49-6.76-1.06-11.77-1c-13.42,0.16-21.73,4.74-38.68,11
		c-12.33,4.56-18.52,6.75-24.38,8c-11.98,2.54-21.15,2.34-32.79,2c-17.89-0.52-31.78-2.87-37.84-4c-9.92-1.84-33.69-6.87-63.06-20
		c-6.28-2.81-33.84-15.38-66.42-40c0,0-10.59-8-52.13-44c-0.61-0.98-1.51-2.07-2.52-2c-1.89,0.13-3.1,4.2-3.36,5
		c-2.8,8.59-18.82,16.65-24.38,19c-26.07,11-39.52,15-39.52,15c-36.16,4-87.45,3-147.14-6c-4.21-0.64-5.58-5.08-7.57-6l-9.25-15
		L-0.5,423.5z"/>
	<g>
		<path class="st1" d="M136.1,560.38l0.56-1.94c2.12,0.98,4,1.81,5.65,2.47c1.74,0.7,3.75,1.46,6.05,2.28l-0.56,1.94
			c-1.39-0.5-2.26-0.71-2.6-0.64c-0.34,0.07-0.58,0.32-0.71,0.77c-0.15,0.52-0.46,3.2-0.94,8.03l-1.27,12.95l8.49-10.24
			c3.32-4,5.72-6.96,7.22-8.9l1.73,0.7l1.19,27.26l7.38-13.02c1.59-2.81,2.55-4.8,2.89-5.97c0.14-0.49,0.1-0.88-0.13-1.15
			c-0.22-0.27-1.11-0.75-2.65-1.42l0.56-1.94c2.36,1.08,3.87,1.75,4.52,2.02c0.79,0.32,2.2,0.84,4.24,1.54l-0.56,1.94
			c-1.09-0.32-1.83-0.41-2.22-0.24c-0.39,0.16-0.88,0.73-1.48,1.71c-0.95,1.49-3.49,5.85-7.64,13.07l-6.93,12.25l-3.69-1.5
			l-1.07-26.49l-8.58,10.46c-2.68,3.28-5.09,6.33-7.25,9.17l-2.78-1.13c0.2-2,0.78-8.21,1.73-18.64l1.05-11.65
			c0.1-1.16,0.06-1.9-0.12-2.23C138.02,561.51,137.32,561.03,136.1,560.38z"/>
		<path class="st1" d="M172.53,596.93c1.05-3.65,2.56-6.11,4.52-7.36c2.35-1.48,5.15-1.55,8.4-0.23c3.24,1.32,5.35,3.15,6.34,5.49
			c0.99,2.35,0.94,5.4-0.14,9.16c-1.11,3.87-2.83,6.5-5.14,7.9c-2.32,1.4-5.01,1.48-8.06,0.24c-3-1.22-5.01-3.13-6.01-5.72
			C171.42,603.83,171.45,600.67,172.53,596.93z M178.36,597.53c-1.18,4.11-1.58,7.21-1.2,9.31c0.3,1.62,1.14,2.71,2.51,3.27
			c1.2,0.49,2.3,0.29,3.28-0.58c0.98-0.88,1.91-2.82,2.77-5.83c1.19-4.14,1.61-7.17,1.26-9.08c-0.3-1.53-1.14-2.58-2.54-3.15
			c-1.2-0.49-2.32-0.3-3.34,0.58C180.07,592.93,179.16,594.75,178.36,597.53z"/>
		<path class="st1" d="M190.31,616.43l0.54-1.89c1.33,0.45,2.11,0.67,2.33,0.64c0.18-0.03,0.35-0.13,0.5-0.29
			c0.25-0.31,0.57-1.1,0.96-2.35c0.7-2.23,1.31-4.27,1.85-6.12c1.02-3.56,1.59-5.69,1.7-6.39c0.07-0.4,0.03-0.72-0.11-0.96
			c-0.15-0.24-0.94-0.69-2.39-1.34l0.51-1.78c2.69,0.76,4.67,1.16,5.92,1.18l2.25-0.08c0.18,0.07,0.23,0.26,0.15,0.55l-0.11,0.32
			c-0.32,0.95-0.74,2.34-1.26,4.16c0.88-0.49,1.88-1.14,3.02-1.97c0.84-0.62,1.52-0.97,2.04-1.06c0.52-0.08,1.14,0.03,1.88,0.33
			c0.41,0.17,0.81,0.42,1.19,0.77c-0.56,1.49-1.24,3.56-2.04,6.19l-0.98,0.02c-0.13-0.72-0.33-1.28-0.62-1.66
			c-0.29-0.38-0.72-0.69-1.29-0.92c-0.78-0.32-1.51-0.35-2.21-0.09c-0.69,0.25-1.21,0.66-1.54,1.21c-0.24,0.42-0.74,1.98-1.51,4.66
			c-1.12,3.91-1.73,6.21-1.83,6.89c-0.07,0.45-0.03,0.8,0.12,1.03c0.23,0.35,1.16,0.91,2.79,1.68l-0.54,1.89l-2.16-0.95
			c-1.37-0.61-2.56-1.12-3.57-1.53c-0.96-0.39-2.08-0.82-3.36-1.29L190.31,616.43z"/>
		<path class="st1" d="M206.34,622.94l0.54-1.89c1.4,0.5,2.24,0.72,2.52,0.66c0.14-0.04,0.27-0.15,0.39-0.31
			c0.2-0.3,0.72-1.82,1.55-4.55c0.83-2.74,1.67-5.59,2.53-8.57c0.69-2.41,1.55-5.51,2.57-9.32c0.74-2.77,1.11-4.32,1.13-4.65
			c0.02-0.33-0.06-0.61-0.22-0.84s-0.9-0.63-2.2-1.19l0.48-1.66c1.79,0.5,3.26,0.83,4.42,0.98c1.16,0.15,2.26,0.17,3.28,0.06
			c0.28-0.02,0.47-0.01,0.58,0.03c0.19,0.08,0.23,0.33,0.11,0.74l-0.32,0.98c-0.37,1.12-1.66,5.45-3.86,12.97l-1.9,6.46l-0.33,1.29
			c3.52-1.65,7.3-3.83,11.34-6.54c0.89,0.47,1.7,0.85,2.43,1.14c0.87,0.35,1.8,0.68,2.8,0.98l-0.54,1.9
			c-1.46-0.49-2.36-0.74-2.69-0.75c-0.33-0.01-0.86,0.14-1.6,0.44c-0.74,0.3-2.85,1.32-6.33,3.06l1.73,4.92
			c1.98,5.67,3.18,8.9,3.58,9.7c0.26,0.53,0.7,0.97,1.34,1.32l-0.54,1.89c-1.42-0.68-2.74-1.27-3.96-1.76
			c-0.95-0.38-1.89-0.72-2.84-1c-0.7-2.54-1.45-4.93-2.23-7.18c-1.07-3.07-1.99-5.47-2.75-7.21l-1.07,3.73
			c-0.62,2.16-0.96,3.66-1.03,4.49c-0.03,0.37,0.03,0.66,0.19,0.87c0.16,0.21,0.91,0.64,2.27,1.3l-0.54,1.89
			c-2.47-1.11-4.13-1.83-4.97-2.17C211.37,624.83,209.42,624.08,206.34,622.94z"/>
		<path class="st1" d="M235.35,626.36c-0.51,2.01-0.74,3.16-0.7,3.43c0.1,0.75,0.48,1.52,1.12,2.31c0.64,0.79,1.48,1.4,2.52,1.82
			c1.27,0.51,2.3,0.59,3.11,0.22c0.81-0.37,1.36-1.06,1.65-2.09c0.25-0.89,0.23-1.68-0.08-2.37c-0.31-0.69-1.15-1.53-2.53-2.52
			c-2.09-1.5-3.41-2.61-3.96-3.32c-0.55-0.72-0.91-1.58-1.06-2.61c-0.15-1.03-0.06-2.14,0.29-3.34c0.41-1.42,1.06-2.55,1.97-3.4
			c0.91-0.85,2.01-1.36,3.31-1.53c1.3-0.17,2.86,0.12,4.7,0.86c1.91,0.78,3.59,1.87,5.02,3.28c-0.53,1.18-1.21,3.08-2.03,5.7
			l-1.53-0.62c0.4-1.69,0.57-2.72,0.51-3.07c-0.07-0.53-0.33-1.05-0.78-1.58c-0.63-0.72-1.37-1.26-2.23-1.6
			c-1.09-0.44-2.02-0.5-2.78-0.17c-0.77,0.33-1.28,0.93-1.53,1.81c-0.23,0.81-0.15,1.57,0.26,2.26c0.4,0.71,1.56,1.71,3.48,2.98
			c1.32,0.88,2.22,1.56,2.69,2.05c0.77,0.83,1.27,1.79,1.49,2.86c0.22,1.08,0.13,2.3-0.26,3.66c-0.75,2.61-2.17,4.26-4.26,4.96
			c-2.09,0.7-4.31,0.58-6.65-0.38c-0.78-0.32-1.61-0.77-2.49-1.37c-0.88-0.6-1.82-1.33-2.81-2.19l-0.18-0.51
			c0.54-1.27,1.24-3.34,2.11-6.21L235.35,626.36z"/>
	</g>
</g>
<g class="Contacts">
	<path class="Contacts_x23_4" class="st4" d="M1146.79,416.5c0.28,119.17,0.56,238.33,0.84,357.5H590.05
		c-0.91-5.24-2.03-10.64-3.38-16.16c-3.38-13.84-11.39-46.17-31.26-72.71c-4.43-5.92-8.87-13.37-17.74-28.28
		c-1.6-2.69-4.07-6.93-5.07-13.13c-1.43-8.9,1.05-16.29,1.69-18.18c4.38-12.99,13.73-14.52,38.86-34.34
		c6.53-5.14,11.02-11.42,17.74-19.19c12.32-14.23,11.61-20.68,11.83-23.23c0.6-7.18-0.99-12.42-5.07-21.21
		c-4.28-9.22-11.57-21.89-25.35-27.27c-10.06-3.93-18.35-2.04-18.59-2.02c-14.36,1.01,8.52-5.12,23.66-6.06
		c3.49-0.22,12.4,1.25,20.28,1.01c42.32-1.29,80.26,3.03,80.26,3.03c28.47,3.24,24.75,5.37,58.29,10.1
		c20.67,2.92,45.66,4.04,77.72,4.04c2.53,0,40.66,0.65,88.71-13.13c0,0,12.34-4.41,28.72-16.16c8.45-6.06,10.72-10.12,11.83-14.14
		c2.15-7.79,0.08-15.62,3.38-18.18c1.78-1.38,4.17,1.01,5.07,1.01c10.14,0,21.96,1.54,32.95,1.01c21.12-1.01,48.89-6.59,53.22-8.08
		c24.03-8.26,28.9-17.02,51.53-20.2c1.24-0.17,7.04-0.79,20.28-2.02c14.02-1.3,25.45-2.35,32.95-3.03L1146.79,416.5z"/>
	<g>
		<path class="st1" d="M819.47,685.97l0.63,0.36c-0.14,0.9-0.23,1.81-0.29,2.71c-1.27,1.51-2.56,2.71-3.86,3.63
			c-1.3,0.91-2.87,1.7-4.7,2.37c-3.43,1.26-6.51,1.6-9.25,1.04c-2.74-0.56-5.08-1.91-7.03-4.04c-1.95-2.13-3.36-4.88-4.23-8.24
			c-1.25-4.84-0.84-9.33,1.25-13.47c2.08-4.14,5.66-7.15,10.74-9c1.69-0.62,3.4-1.05,5.15-1.3c1.75-0.25,3.53-0.3,5.36-0.17
			l0.23,0.3c-0.02,0.93,0.02,1.8,0.13,2.61c0.18,1.42,0.48,3.14,0.9,5.19l-1.65,0.6c-0.71-2.43-1.14-3.75-1.28-3.96
			c-0.14-0.21-0.61-0.49-1.4-0.84c-0.79-0.35-1.78-0.51-2.96-0.47c-1.19,0.03-2.44,0.29-3.76,0.77c-3.14,1.15-5.33,3.21-6.58,6.19
			c-1.25,2.98-1.35,6.52-0.28,10.63c1.15,4.45,3.19,7.64,6.13,9.58c2.71,1.8,5.86,2.04,9.45,0.73c1.39-0.51,2.64-1.15,3.76-1.94
			S818.23,687.36,819.47,685.97z"/>
		<path class="st1" d="M821.24,678.72c-0.95-3.69-0.95-6.73,0.03-9.11c1.17-2.83,3.4-4.85,6.68-6.05c3.27-1.2,5.88-1.19,7.84,0.02
			c1.96,1.21,3.43,3.71,4.41,7.51c1.01,3.91,0.92,7.24-0.26,9.99c-1.18,2.75-3.32,4.7-6.41,5.83c-3.03,1.11-5.6,0.97-7.69-0.43
			C823.75,685.07,822.22,682.49,821.24,678.72z M826.26,675.13c1.07,4.15,2.28,6.94,3.63,8.38c1.04,1.1,2.26,1.4,3.65,0.89
			c1.22-0.45,2.01-1.37,2.37-2.76c0.36-1.39,0.15-3.61-0.64-6.65c-1.08-4.18-2.24-6.92-3.46-8.23c-1-1.03-2.2-1.29-3.62-0.78
			c-1.22,0.45-2.02,1.38-2.42,2.81C825.37,670.2,825.54,672.32,826.26,675.13z"/>
		<path class="st1" d="M845.97,681.81l-0.5-1.91c1.4-0.62,2.17-1.05,2.31-1.29c0.14-0.25,0.14-0.69,0.02-1.33
			c-0.33-1.6-1.01-4.39-2.04-8.36c-0.51-1.96-0.97-3.64-1.39-5.04c-0.25-0.87-0.44-1.36-0.56-1.49c-0.1-0.1-0.22-0.16-0.38-0.17
			c-0.16-0.01-0.95,0.22-2.36,0.69l-0.47-1.8c0.71-0.26,1.77-0.84,3.17-1.76c1.41-0.91,2.56-1.79,3.46-2.64l0.48-0.41
			c0.18-0.07,0.32,0.08,0.41,0.44l0.04,0.22c0.07,0.45,0.34,1.58,0.81,3.38l2.25-4.15c0.28-0.53,0.6-0.94,0.97-1.22
			c0.53-0.4,1.2-0.75,2.02-1.05c1.38-0.51,2.59-0.64,3.62-0.39c1.03,0.25,1.88,0.8,2.55,1.65c0.67,0.85,1.28,2.34,1.83,4.46
			c0.24,0.93,0.5,2.03,0.78,3.27c0.59,2.55,1.12,4.74,1.6,6.58c0.27,1.04,0.53,1.74,0.78,2.1c0.18,0.24,0.37,0.38,0.59,0.4
			c0.21,0.03,0.96-0.12,2.24-0.44l0.5,1.91l-2.44,0.79l-1.56,0.52l-4.01,1.62l-0.29-0.22c-0.43-3.08-1.04-6.18-1.85-9.3
			c-1.02-3.96-1.86-6.32-2.5-7.09c-0.83-0.99-1.94-1.23-3.32-0.73c-0.89,0.32-1.59,0.88-2.11,1.65c-0.51,0.78-0.79,1.51-0.83,2.19
			c-0.03,0.29,0.13,1.09,0.47,2.41c1.46,5.65,2.32,8.87,2.57,9.68c0.25,0.81,0.49,1.27,0.72,1.39c0.3,0.15,1.21-0.01,2.76-0.47
			l0.5,1.91c-2.3,0.74-4.24,1.4-5.8,1.97C850.09,680.15,848.41,680.82,845.97,681.81z"/>
		<path class="st1" d="M864.99,654.31l2.08-2.99c-0.74-2.74-1.43-5.13-2.07-7.16c1.62-1.31,3.1-2.72,4.45-4.23l0.73,0.32
			c0.3,2.36,0.88,5.46,1.76,9.29c0.63-0.09,1.24-0.25,1.83-0.47c1.33-0.49,2.5-1.04,3.51-1.64l0.21,0.08l0.04,0.9
			c0.03,0.94,0.09,1.8,0.19,2.56c-1.56,0.44-2.7,0.79-3.42,1.05c-0.54,0.2-1.05,0.42-1.55,0.67c0.38,1.58,0.73,2.97,1.04,4.17
			c1.36,5.24,2.26,8.16,2.7,8.79c0.45,0.62,1.16,0.75,2.14,0.39c0.29-0.1,0.59-0.26,0.9-0.46c0.31-0.2,0.64-0.44,0.98-0.72
			l0.56,0.77c-0.52,1.33-1,2.69-1.46,4.08c-0.46,0.27-0.89,0.5-1.28,0.7s-0.76,0.36-1.1,0.48c-1.1,0.4-2.08,0.51-2.93,0.33
			c-0.86-0.18-1.54-0.57-2.06-1.16c-0.52-0.59-0.96-1.6-1.33-3.02c-0.19-0.75-0.67-2.72-1.43-5.92c-0.66-2.81-1.19-5.03-1.61-6.65
			l-1.01,0.32c-0.42,0.15-0.94,0.4-1.57,0.73L864.99,654.31z"/>
		<path class="st1" d="M901.49,659.39l0.5,1.91l-1.53,0.48c-0.81,0.25-1.62,0.52-2.42,0.81c-1.23,0.45-2.39,0.93-3.46,1.42
			l-0.26-0.18l-0.63-3.27l-3.15,5.14c-0.68,0.47-1.3,0.81-1.86,1.01c-1.38,0.51-2.58,0.41-3.59-0.29c-1.01-0.7-1.76-1.99-2.25-3.88
			c-0.6-2.32-0.51-4.14,0.28-5.47c1.01-1.73,3.67-3.92,7.97-6.57c-0.5-1.83-1.12-3.07-1.84-3.71c-1.01-0.88-2.27-1.04-3.77-0.49
			c-0.35,0.13-0.7,0.31-1.05,0.55c-0.35,0.24-0.68,0.54-1,0.89l-0.23,2.82l-1.46,0.1l-0.23-1.06l-0.28-1.02l-0.26-0.93
			c1.62-2.21,2.82-3.66,3.6-4.36c0.57-0.51,1.42-0.98,2.56-1.4c1.54-0.57,2.87-0.75,3.98-0.55c1.11,0.2,2.01,0.69,2.7,1.48
			c0.69,0.79,1.27,2.09,1.74,3.92c0.2,0.76,0.52,2.14,0.98,4.12c0.47,2.05,0.87,3.68,1.19,4.92c0.51,1.95,0.86,3.12,1.06,3.5
			c0.12,0.23,0.29,0.38,0.53,0.44C899.53,659.8,900.26,659.69,901.49,659.39z M891.59,652.52c-2.14,1.43-3.47,2.62-3.98,3.57
			c-0.51,0.95-0.62,2-0.31,3.17c0.25,0.95,0.66,1.62,1.25,2.01c0.58,0.38,1.22,0.45,1.89,0.2c1.03-0.38,1.9-1.46,2.63-3.24
			L891.59,652.52z"/>
		<path class="st1" d="M914.61,641.03l-1.61,0.59c-0.57-1.82-0.96-2.84-1.16-3.07c-0.28-0.37-0.77-0.63-1.46-0.77
			c-0.69-0.14-1.49-0.04-2.39,0.29c-1.39,0.51-2.28,1.35-2.67,2.53c-0.39,1.18-0.27,2.99,0.36,5.44c0.8,3.11,2.02,5.29,3.65,6.54
			c1.63,1.26,3.38,1.54,5.25,0.86c0.68-0.25,1.29-0.55,1.82-0.9c0.53-0.35,1-0.74,1.4-1.18l0.46,0.39
			c-0.09,0.85-0.16,1.69-0.22,2.54c-0.73,0.83-1.51,1.53-2.34,2.11c-0.83,0.58-1.7,1.04-2.62,1.38c-2.85,1.04-5.32,0.92-7.39-0.38
			c-2.07-1.29-3.56-3.67-4.45-7.13c-0.33-1.28-0.53-2.47-0.58-3.58c-0.06-1.11,0-2.1,0.17-2.95c0.17-0.86,0.42-1.59,0.73-2.2
			c0.2-0.35,1.1-1.62,2.7-3.83c0.94-1.3,1.65-2.14,2.12-2.54c0.48-0.4,1.16-0.76,2.05-1.08c0.78-0.29,1.57-0.5,2.35-0.63
			c0.78-0.13,1.56-0.19,2.34-0.17l0.44,0.3C913.76,636.36,914.11,638.84,914.61,641.03z"/>
		<path class="st1" d="M916.3,635.53l2.08-2.99c-0.74-2.74-1.43-5.13-2.07-7.16c1.62-1.31,3.1-2.72,4.45-4.23l0.73,0.32
			c0.3,2.36,0.88,5.46,1.76,9.29c0.63-0.09,1.25-0.25,1.83-0.47c1.33-0.49,2.5-1.04,3.51-1.64l0.21,0.08l0.04,0.9
			c0.03,0.94,0.09,1.8,0.19,2.56c-1.56,0.44-2.7,0.79-3.42,1.05c-0.54,0.2-1.05,0.42-1.55,0.67c0.38,1.58,0.73,2.97,1.04,4.17
			c1.35,5.24,2.26,8.16,2.7,8.79c0.45,0.62,1.16,0.75,2.14,0.39c0.29-0.11,0.59-0.26,0.9-0.46c0.31-0.2,0.64-0.44,0.98-0.72
			l0.56,0.77c-0.51,1.33-1,2.69-1.46,4.08c-0.46,0.27-0.89,0.5-1.28,0.7s-0.76,0.36-1.1,0.48c-1.1,0.4-2.08,0.51-2.93,0.33
			c-0.86-0.18-1.54-0.57-2.06-1.16c-0.52-0.59-0.96-1.6-1.33-3.02c-0.19-0.75-0.67-2.72-1.43-5.92c-0.66-2.81-1.19-5.03-1.61-6.65
			l-1.01,0.32c-0.42,0.15-0.94,0.4-1.57,0.73L916.3,635.53z"/>
	</g>
</g>
<g class="Side_Projects">
	<path class="SideProjects_x23_3" class="st5" d="M1151,414V0L747.41,1c-6.48,7.77-15.45,20.33-21.86,38
		c-28.78,79.37,25.34,176.08,65.58,248c41.65,74.42,62.47,111.63,102.58,136c86.48,52.53,180.01,6.51,200.11-4L1151,414z"/>
	<g class="side_Projects">
		<path class="st6" d="M840.8,151.64l1.68,0.8c-0.75,2.24-1.13,3.58-1.15,4.01c-0.02,0.44,0.17,1.12,0.58,2.04
			c0.41,0.92,1.04,1.82,1.9,2.69c0.86,0.87,1.81,1.55,2.85,2.05c1.79,0.86,3.41,0.98,4.87,0.37c1.46-0.62,2.47-1.77,3.04-3.46
			c0.53-1.55,0.58-2.92,0.15-4.08c-0.44-1.18-1.61-2.42-3.51-3.74c-2.82-1.95-4.65-3.48-5.49-4.59c-0.84-1.11-1.36-2.41-1.55-3.91
			c-0.19-1.5,0-3.09,0.57-4.78c0.96-2.84,2.62-4.84,4.97-6s5.37-0.86,9.06,0.91c1.45,0.69,2.69,1.44,3.72,2.23
			c1.03,0.8,2.02,1.76,2.94,2.89l0,0.63c-0.53,0.85-0.96,1.65-1.3,2.38c-0.34,0.73-0.87,2.03-1.57,3.88l-1.64-0.79
			c0.72-2.35,1.07-3.7,1.04-4.04c-0.07-0.61-0.51-1.43-1.3-2.45c-0.8-1.02-1.83-1.84-3.1-2.45c-1.74-0.83-3.26-0.98-4.55-0.44
			c-1.3,0.54-2.22,1.61-2.75,3.19c-0.33,0.96-0.42,1.9-0.27,2.8c0.15,0.91,0.52,1.7,1.11,2.38c0.59,0.68,1.97,1.79,4.14,3.34
			c1.98,1.39,3.28,2.44,3.91,3.16c1.03,1.18,1.66,2.52,1.88,4.04c0.23,1.51,0.03,3.19-0.6,5.03c-1.08,3.2-3.01,5.36-5.79,6.5
			c-2.78,1.13-5.95,0.84-9.51-0.87c-1.59-0.76-2.97-1.63-4.14-2.62c-1.17-0.98-2.31-2.22-3.41-3.71c0.59-0.95,1.06-1.83,1.43-2.65
			C839.5,155.23,840.1,153.65,840.8,151.64z"/>
		<path class="st6" d="M859.84,171.91l0.63-1.86c1.45,0.63,2.32,0.92,2.59,0.88s0.56-0.4,0.86-1.06c0.42-0.9,1.19-2.98,2.29-6.23
			c0.48-1.41,0.9-2.71,1.27-3.93l0.84-2.68c0.3-0.88,0.4-1.46,0.31-1.74c-0.09-0.28-0.48-0.6-1.17-0.97l-1.41-0.75l0.59-1.74
			c3.15,1.19,5.89,1.75,8.22,1.68l0.32,0.68c-1.17,2.8-2.69,6.96-4.57,12.48c-1.08,3.19-1.69,5.14-1.83,5.85
			c-0.1,0.5-0.08,0.86,0.04,1.08c0.12,0.22,0.91,0.75,2.35,1.6l-0.63,1.86c-2.26-1.19-4.01-2.08-5.26-2.69
			C864.62,174.04,862.81,173.22,859.84,171.91z M876.28,141.6c0.81,0.39,1.39,1.07,1.73,2.03s0.35,1.94,0.02,2.92
			c-0.33,0.97-0.9,1.65-1.71,2.06c-0.81,0.41-1.63,0.42-2.45,0.02c-0.81-0.39-1.39-1.07-1.73-2.03c-0.34-0.96-0.35-1.93-0.02-2.9
			c0.33-0.98,0.9-1.68,1.72-2.09C874.64,141.21,875.46,141.2,876.28,141.6z"/>
		<path class="st6" d="M894.25,163.94l1.33-3.91c0.82-2.42,1.26-3.85,1.3-4.29c0.03-0.32-0.02-0.57-0.17-0.78
			c-0.14-0.2-0.97-0.69-2.48-1.47l0.55-1.63c3.15,1.06,5.93,1.55,8.34,1.47l0.31,0.78c-0.95,2.37-1.8,4.64-2.56,6.81l-6.16,17.72
			c-1.01,2.97-1.58,4.81-1.71,5.5c-0.09,0.43-0.06,0.77,0.08,1.03c0.14,0.25,0.87,0.77,2.18,1.56l-0.63,1.86
			c-1.52-0.84-3.02-1.61-4.5-2.32c-1.07-0.51-2.08-0.95-3.04-1.3l-0.23-0.43c0.68-1.45,1.21-2.62,1.59-3.53
			c-1.12,0.35-2.95,1.01-5.48,1.98c-0.83-0.03-1.56-0.2-2.2-0.5c-2.11-1.01-3.54-2.79-4.31-5.33c-0.77-2.54-0.63-5.36,0.42-8.45
			c0.51-1.51,1.12-2.81,1.82-3.91c0.7-1.09,1.35-1.86,1.95-2.29c0.6-0.43,1.64-0.85,3.14-1.26c2.03-0.55,3.47-0.82,4.32-0.81
			c0.84,0.01,1.7,0.22,2.56,0.64c0.62,0.3,1.23,0.68,1.82,1.15C893.09,162.71,893.67,163.28,894.25,163.94z M892.6,168.79
			c-0.25-1.3-0.68-2.38-1.27-3.25c-0.59-0.86-1.35-1.52-2.28-1.96c-1.31-0.63-2.5-0.55-3.57,0.22c-1.08,0.78-2.06,2.47-2.94,5.09
			c-0.91,2.69-1.17,4.91-0.76,6.65c0.4,1.74,1.27,2.93,2.61,3.57c0.9,0.43,1.84,0.52,2.82,0.27c0.98-0.25,1.62-0.6,1.93-1.05
			c0.31-0.45,1.04-2.37,2.18-5.75L892.6,168.79z"/>
		<path class="st6" d="M913.92,192.78l0.33,0.92l-1.59,1.76c-1.14,0.24-2.3,0.27-3.46,0.11s-2.33-0.53-3.51-1.1
			c-2.77-1.33-4.62-3.33-5.57-6.01c-0.95-2.68-0.83-5.74,0.34-9.2c0.74-2.19,1.59-3.89,2.55-5.1c0.78-0.98,1.73-1.65,2.86-2
			c1.13-0.35,2.38-0.61,3.75-0.75c1.37-0.15,2.74,0.1,4.09,0.75c2.08,1,3.57,2.52,4.45,4.55c0.89,2.04,0.81,4.59-0.23,7.66
			c-0.13,0.38-0.35,0.94-0.66,1.69l-3.35-0.82c-0.99-0.39-2.39-1.02-4.22-1.89l-4.12-1.98c-0.69,2.7-0.71,4.97-0.03,6.82
			c0.67,1.85,1.87,3.19,3.59,4.02c0.72,0.35,1.48,0.57,2.28,0.66C912.23,192.96,913.06,192.93,913.92,192.78z M906.3,178.91
			c1.1,0.67,2.22,1.28,3.36,1.83c1,0.48,2.08,0.93,3.22,1.34l0.38-1.06c0.63-1.86,0.81-3.36,0.53-4.49
			c-0.28-1.13-0.91-1.93-1.89-2.4c-0.68-0.33-1.34-0.41-1.97-0.25c-0.63,0.16-1.19,0.55-1.68,1.16
			C907.77,175.65,907.11,176.94,906.3,178.91z"/>
		<path class="st6" d="M926.16,203.74l0.65-1.9c1.56,0.59,2.46,0.86,2.72,0.8c0.18-0.02,0.35-0.12,0.5-0.31
			c0.25-0.32,0.88-1.83,1.87-4.55s1.92-5.37,2.8-7.95c1.63-4.81,2.76-8.27,3.38-10.38c0.62-2.11,0.88-3.33,0.78-3.66
			c-0.1-0.33-0.6-0.75-1.49-1.27l-1.07-0.64l0.65-1.9l2.12,1.12c1.32,0.68,2.37,1.22,3.16,1.59c1.08,0.52,2.83,1.32,5.25,2.41
			c1.31,0.58,2.27,1.02,2.88,1.31c2.27,1.09,3.86,2.15,4.77,3.18c0.91,1.03,1.47,2.2,1.69,3.51c0.21,1.31,0.06,2.74-0.47,4.29
			c-0.95,2.8-2.58,4.74-4.89,5.82c-2.31,1.09-4.75,1.01-7.33-0.23c-0.33-0.16-0.67-0.36-1.02-0.59c-0.35-0.24-0.71-0.51-1.1-0.81
			c-0.03-0.64-0.08-1.28-0.15-1.9l0.63-0.35c0.26,0.2,0.49,0.38,0.72,0.53c0.22,0.15,0.43,0.28,0.62,0.37
			c1.28,0.62,2.51,0.59,3.67-0.07c1.17-0.66,2.07-1.93,2.71-3.82c0.71-2.1,0.82-3.87,0.34-5.3c-0.49-1.44-1.55-2.54-3.18-3.33
			c-0.66-0.32-1.48-0.58-2.44-0.78c-1.7,4.58-3.1,8.49-4.2,11.72c-0.37,1.09-1.49,4.57-3.37,10.46c-0.74,2.33-1.13,3.68-1.16,4.07
			c-0.02,0.29,0.04,0.53,0.18,0.72c0.22,0.3,1.25,0.97,3.08,2.01l-0.65,1.9c-2.21-1.18-4.08-2.14-5.62-2.88
			C932.5,206.6,930.16,205.54,926.16,203.74z"/>
		<path class="st6" d="M948.89,214.65l0.63-1.86c1.31,0.54,2.07,0.8,2.3,0.79c0.18-0.02,0.35-0.1,0.51-0.26
			c0.26-0.3,0.62-1.06,1.06-2.28c0.8-2.18,1.51-4.18,2.12-5.99c1.18-3.49,1.85-5.58,1.99-6.27c0.09-0.4,0.07-0.72-0.07-0.97
			c-0.14-0.25-0.91-0.75-2.32-1.5l0.59-1.74c2.66,0.94,4.61,1.46,5.85,1.56l2.25,0.07c0.18,0.08,0.22,0.27,0.12,0.56l-0.12,0.31
			c-0.36,0.93-0.85,2.29-1.45,4.07c0.9-0.43,1.93-1.02,3.1-1.77c0.87-0.57,1.57-0.87,2.08-0.92c0.52-0.05,1.14,0.1,1.86,0.45
			c0.41,0.2,0.79,0.48,1.15,0.84c-0.63,1.46-1.4,3.47-2.32,6.05l-0.98-0.05c-0.09-0.73-0.27-1.3-0.54-1.7
			c-0.27-0.4-0.68-0.74-1.24-1.01c-0.76-0.37-1.5-0.44-2.2-0.24c-0.7,0.21-1.24,0.58-1.59,1.11c-0.26,0.4-0.83,1.92-1.72,4.56
			c-1.3,3.83-2.01,6.08-2.14,6.76c-0.09,0.45-0.07,0.79,0.07,1.04c0.21,0.37,1.12,0.99,2.71,1.86l-0.63,1.86l-2.11-1.09
			c-1.34-0.7-2.51-1.28-3.5-1.76c-0.94-0.45-2.04-0.95-3.3-1.5L948.89,214.65z"/>
		<path class="st6" d="M968.88,211.73c1.22-3.58,2.83-5.93,4.85-7.05c2.41-1.32,5.21-1.22,8.39,0.31c3.17,1.52,5.2,3.49,6.08,5.9
			c0.88,2.41,0.69,5.45-0.56,9.14c-1.29,3.79-3.12,6.31-5.5,7.56c-2.38,1.25-5.07,1.15-8.06-0.29c-2.94-1.41-4.86-3.45-5.74-6.1
			S967.64,215.38,968.88,211.73z M974.68,212.71c-1.37,4.02-1.91,7.1-1.62,9.22c0.23,1.64,1.01,2.78,2.36,3.43
			c1.18,0.57,2.28,0.44,3.3-0.37c1.02-0.81,2.03-2.69,3.03-5.64c1.38-4.06,1.94-7.05,1.68-8.99c-0.23-1.55-1.02-2.66-2.4-3.31
			c-1.18-0.57-2.3-0.44-3.37,0.36C976.59,208.22,975.6,209.98,974.68,212.71z"/>
		<path class="st6" d="M981.71,244.29l0.12-1.92l0.27-0.08c0.49,0.3,0.82,0.5,1,0.58c0.56,0.27,1.16,0.21,1.8-0.16
			c0.86-0.5,1.72-1.7,2.58-3.62c0.86-1.91,2.27-5.78,4.25-11.6c0.92-2.7,1.86-5.59,2.84-8.69c0.44-1.38,0.65-2.25,0.64-2.61
			c-0.02-0.2-0.1-0.37-0.24-0.51c-0.14-0.14-0.94-0.6-2.4-1.39l0.59-1.74c2.58,0.86,4.75,1.41,6.51,1.63l2.07,0.22
			c0.16,0.08,0.21,0.22,0.14,0.43l-0.22,0.58c-1.34,3.39-2.84,7.48-4.48,12.28c-1.67,4.91-2.7,7.84-3.1,8.81
			c-1,2.45-2.11,4.39-3.35,5.82c-1.24,1.42-2.59,2.35-4.06,2.76c-1.47,0.42-2.75,0.36-3.84-0.16
			C982.56,244.8,982.19,244.58,981.71,244.29z M1003,202.43c0.81,0.39,1.39,1.07,1.74,2.03s0.35,1.94,0.02,2.92
			c-0.33,0.97-0.9,1.65-1.71,2.06c-0.81,0.41-1.63,0.42-2.45,0.02c-0.81-0.39-1.39-1.07-1.74-2.03c-0.34-0.96-0.35-1.93-0.02-2.89
			c0.33-0.97,0.9-1.66,1.71-2.08C1001.36,202.04,1002.18,202.03,1003,202.43z"/>
		<path class="st6" d="M1016.81,242.17l0.33,0.92l-1.59,1.76c-1.14,0.24-2.3,0.27-3.46,0.11c-1.16-0.17-2.33-0.53-3.51-1.1
			c-2.77-1.33-4.62-3.33-5.57-6.01c-0.95-2.68-0.83-5.74,0.34-9.2c0.74-2.19,1.59-3.89,2.55-5.1c0.78-0.98,1.73-1.65,2.86-2
			c1.13-0.35,2.38-0.6,3.75-0.75c1.37-0.15,2.74,0.1,4.09,0.75c2.08,1,3.57,2.52,4.45,4.55c0.89,2.04,0.81,4.59-0.23,7.66
			c-0.13,0.38-0.35,0.94-0.66,1.69l-3.35-0.82c-0.99-0.39-2.4-1.02-4.22-1.89l-4.12-1.98c-0.69,2.7-0.71,4.97-0.03,6.82
			c0.67,1.85,1.87,3.19,3.59,4.02c0.72,0.35,1.48,0.57,2.28,0.66C1015.12,242.35,1015.95,242.32,1016.81,242.17z M1009.19,228.3
			c1.1,0.67,2.22,1.28,3.36,1.83c1,0.48,2.08,0.93,3.22,1.34l0.38-1.06c0.63-1.86,0.81-3.36,0.53-4.49s-0.91-1.93-1.89-2.4
			c-0.68-0.33-1.34-0.41-1.97-0.25c-0.63,0.16-1.19,0.55-1.68,1.16C1010.65,225.04,1010,226.33,1009.19,228.3z"/>
		<path class="st6" d="M1037.51,241.06l-1.56-0.75c0.52-1.84,0.76-2.92,0.73-3.26c-0.02-0.5-0.26-1.07-0.72-1.69
			c-0.46-0.62-1.13-1.15-2.01-1.57c-1.35-0.65-2.49-0.66-3.42-0.04c-0.93,0.62-1.79,2.12-2.6,4.5c-1.02,3.01-1.24,5.62-0.64,7.81
			c0.6,2.2,1.8,3.73,3.62,4.6c0.66,0.32,1.29,0.54,1.89,0.67c0.6,0.13,1.17,0.17,1.71,0.14l0.15,0.65
			c-0.52,0.59-1.03,1.19-1.52,1.81c-1.01,0.09-1.99,0.05-2.94-0.12c-0.95-0.17-1.87-0.47-2.76-0.89c-2.77-1.33-4.61-3.27-5.54-5.83
			c-0.92-2.56-0.82-5.52,0.32-8.87c0.42-1.24,0.9-2.31,1.45-3.22c0.54-0.91,1.11-1.63,1.7-2.16c0.59-0.54,1.16-0.92,1.73-1.16
			c0.34-0.12,1.71-0.43,4.13-0.94c1.42-0.3,2.41-0.43,3-0.38c0.58,0.05,1.3,0.28,2.17,0.7c0.76,0.37,1.48,0.79,2.16,1.27
			c0.68,0.48,1.31,1.03,1.91,1.63l0.19,0.56C1039.33,236.8,1038.28,238.99,1037.51,241.06z"/>
		<path class="st6" d="M1041.74,238.06l3.2-0.75c0.88-2.69,1.61-5.05,2.19-7.11c1.95,0.2,3.85,0.21,5.7,0.05l0.39,0.79
			c-1.02,2.05-2.21,4.9-3.56,8.53c0.54,0.4,1.1,0.74,1.67,1.01c1.29,0.62,2.49,1.07,3.59,1.35l0.12,0.22l-0.45,0.73
			c-0.48,0.75-0.88,1.46-1.21,2.13c-1.44-0.83-2.52-1.42-3.21-1.75c-0.52-0.25-1.04-0.46-1.55-0.64c-0.54,1.52-1.01,2.85-1.41,4.02
			c-1.72,5.08-2.58,8.03-2.56,8.84c0.02,0.82,0.5,1.46,1.46,1.91c0.28,0.13,0.59,0.24,0.94,0.32c0.35,0.08,0.73,0.14,1.14,0.18
			l0.03,1.02c-1.1,0.65-2.2,1.34-3.3,2.08c-0.5-0.13-0.95-0.27-1.36-0.42c-0.41-0.14-0.78-0.29-1.11-0.45
			c-1.07-0.51-1.88-1.16-2.45-1.94c-0.57-0.78-0.9-1.6-0.98-2.45c-0.09-0.85,0.1-1.96,0.57-3.34c0.25-0.73,0.92-2.61,2.03-5.67
			c0.98-2.67,1.74-4.8,2.27-6.37l-0.95-0.51c-0.41-0.2-0.94-0.4-1.61-0.61L1041.74,238.06z"/>
		<path class="st6" d="M1054.04,256.6c-0.6,1.98-0.88,3.1-0.86,3.38c0.07,0.75,0.41,1.55,1.01,2.38c0.61,0.83,1.42,1.5,2.43,1.98
			c1.24,0.6,2.27,0.74,3.09,0.42c0.82-0.31,1.4-0.97,1.74-1.98c0.29-0.87,0.3-1.66,0.03-2.37c-0.28-0.71-1.08-1.61-2.41-2.68
			c-2.01-1.63-3.28-2.83-3.8-3.58c-0.52-0.75-0.83-1.64-0.94-2.68c-0.11-1.03,0.04-2.14,0.44-3.32c0.47-1.39,1.18-2.48,2.13-3.27
			s2.07-1.23,3.38-1.32c1.3-0.08,2.85,0.3,4.65,1.17c1.87,0.9,3.49,2.1,4.86,3.6c-0.58,1.15-1.35,3-2.29,5.56l-1.5-0.72
			c0.48-1.67,0.69-2.68,0.65-3.03c-0.04-0.53-0.28-1.07-0.71-1.63c-0.6-0.76-1.32-1.34-2.15-1.74c-1.07-0.51-1.99-0.63-2.77-0.35
			c-0.78,0.28-1.32,0.85-1.61,1.71c-0.27,0.8-0.22,1.56,0.16,2.28c0.37,0.74,1.48,1.81,3.34,3.2c1.28,0.97,2.14,1.71,2.59,2.22
			c0.73,0.88,1.19,1.87,1.35,2.96c0.17,1.09,0.03,2.3-0.42,3.63c-0.87,2.56-2.36,4.12-4.48,4.68c-2.12,0.56-4.33,0.29-6.62-0.81
			c-0.76-0.37-1.57-0.88-2.42-1.53c-0.85-0.65-1.76-1.44-2.71-2.37l-0.16-0.52c0.6-1.24,1.39-3.26,2.39-6.06L1054.04,256.6z"/>
	</g>
</g>
<g class="CAD">
	<ellipse class="st7" cx="578.4" cy="624.5" rx="190.02" ry="124.5"/>
	<g>
		<path class="st1" d="M461.2,624.91l-4.39,10.87c-1.65,4.08-3,7.65-4.05,10.7h-0.59c-0.36-1.04-1.41-3.72-3.14-8.04l-5.3-13.04
			v13.59c0,3.16,0.11,4.96,0.32,5.39s0.87,0.64,1.98,0.64h0.55v1.11c-1.37-0.08-2.49-0.12-3.35-0.12c-0.62,0-1.86,0.04-3.72,0.12
			v-1.11h0.96c0.65,0,1.08-0.11,1.3-0.33c0.22-0.22,0.35-0.63,0.4-1.21c0.13-1.64,0.19-3.41,0.19-5.31v-9.95
			c0-2.4-0.04-3.99-0.13-4.76c-0.04-0.4-0.18-0.7-0.44-0.91s-0.75-0.32-1.5-0.32h-0.78v-1.11c1.71,0.08,2.79,0.12,3.24,0.12
			c0.56,0,1.36-0.04,2.39-0.12c1.19,3.15,2.57,6.63,4.13,10.43l3.89,9.52l3.59-8.81c1.26-3.08,2.7-6.79,4.32-11.13
			c1.23,0.08,2.1,0.12,2.6,0.12c0.58,0,1.63-0.04,3.15-0.12v1.11h-0.97c-0.87,0-1.4,0.18-1.6,0.54c-0.19,0.36-0.29,1.64-0.29,3.86
			v12.85c0,2.86,0.1,4.5,0.3,4.92c0.2,0.42,0.77,0.63,1.7,0.63h0.85v1.11c-1.37-0.08-2.68-0.12-3.93-0.12
			c-1.38,0-2.82,0.04-4.33,0.12v-1.11h0.98c0.78,0,1.25-0.2,1.41-0.61c0.16-0.4,0.24-2.14,0.24-5.21V624.91z"/>
		<path class="st1" d="M468.22,655.54l0.69-2.74h0.34c0.27,0.38,0.53,0.67,0.8,0.86c0.27,0.19,0.54,0.29,0.81,0.29
			c0.61,0,1.17-0.35,1.67-1.06c0.5-0.7,1.28-2.67,2.32-5.88c-0.43-1.36-1.3-3.95-2.6-7.78l-1.37-4.02l-1.11-3.07
			c-0.34-1.09-0.86-1.63-1.55-1.63h-0.59v-1.02c1.02,0.08,1.93,0.12,2.72,0.12c0.61,0,2.03-0.04,4.27-0.12v1.02h-1.09
			c-0.37,0-0.65,0.08-0.82,0.23c-0.17,0.15-0.26,0.34-0.26,0.56c0,0.19,0.09,0.59,0.28,1.21c1,3.25,2.17,6.74,3.52,10.47
			c1.3-3.41,2.43-6.69,3.4-9.85c0.29-0.92,0.43-1.49,0.43-1.69c0-0.37-0.34-0.62-1.01-0.74l-1.09-0.19v-1.02
			c1.16,0.08,2.2,0.12,3.1,0.12c0.86,0,1.72-0.04,2.59-0.12v1.02h-0.52c-0.23,0-0.46,0.08-0.69,0.24s-0.43,0.38-0.58,0.66
			c-0.32,0.6-1.23,2.87-2.74,6.83c-0.41,1.09-1.47,4.04-3.17,8.85c-1.5,4.06-2.34,6.28-2.54,6.68c-0.38,0.77-0.88,1.37-1.48,1.78
			s-1.25,0.62-1.95,0.62c-0.29,0-0.58-0.05-0.88-0.16C468.83,655.9,468.53,655.74,468.22,655.54z"/>
		<path class="st1" d="M510.87,627.46l-0.12-3.13c-0.88-0.69-1.8-1.21-2.76-1.55s-1.96-0.51-3.01-0.51c-2.66,0-4.79,0.96-6.39,2.88
			s-2.4,4.49-2.4,7.72c0,2.26,0.41,4.28,1.22,6.05s1.97,3.17,3.47,4.2s3.08,1.55,4.74,1.55c1.32,0,2.63-0.18,3.92-0.54
			c0.97-0.27,1.94-0.83,2.91-1.69l0.31,0.35c-0.21,0.54-0.4,1.08-0.58,1.63c-1.15,0.68-2.31,1.19-3.48,1.54
			c-1.17,0.35-2.34,0.52-3.53,0.52c-2.42,0-4.55-0.56-6.39-1.67s-3.25-2.65-4.23-4.61s-1.48-4.18-1.48-6.65s0.5-4.68,1.49-6.64
			c1-1.95,2.4-3.46,4.22-4.54s4.05-1.61,6.7-1.61c1.39,0,3.02,0.27,4.88,0.81c0.93,0.26,1.68,0.45,2.26,0.58
			c-0.44,1.25-0.7,3.02-0.77,5.31H510.87z"/>
		<path class="st1" d="M528.83,637.69h-8.55l-1,2.83c-0.66,1.88-0.99,3.02-0.99,3.45c0,0.27,0.06,0.46,0.18,0.58
			s0.44,0.21,0.94,0.28l1.42,0.19v1.11c-0.95-0.08-2.01-0.12-3.19-0.12c-1.42,0-2.67,0.04-3.74,0.12v-1.11l0.44-0.02
			c0.69-0.02,1.14-0.11,1.34-0.25c0.2-0.15,0.42-0.51,0.64-1.08c0.7-1.69,1.41-3.51,2.14-5.47l4.06-10.95
			c1.08-2.91,1.82-5.02,2.22-6.33h1.01l7.48,20.69c0.5,1.41,0.84,2.25,1.01,2.54c0.17,0.29,0.36,0.49,0.58,0.62
			c0.22,0.12,0.7,0.21,1.46,0.25v1.11c-1.28-0.08-2.5-0.12-3.67-0.12c-1.08,0-2.53,0.04-4.33,0.12v-1.11l1.46-0.11
			c0.52-0.05,0.83-0.11,0.93-0.19c0.15-0.13,0.22-0.29,0.22-0.49c0-0.21-0.15-0.76-0.44-1.65L528.83,637.69z M520.83,636.24h7.45
			l-3.72-10.56L520.83,636.24z"/>
		<path class="st1" d="M540.14,644.37c0.16-1.82,0.24-4.99,0.24-9.53v-5.1c0-2.09-0.06-3.88-0.18-5.4
			c-0.07-0.88-0.16-1.39-0.27-1.53c-0.11-0.14-0.52-0.27-1.22-0.39l-1.18-0.21v-1.11c1.63,0.06,2.72,0.09,3.28,0.09l3.98-0.04
			l3.24-0.07c1.3-0.02,2.64,0.13,4.01,0.46s2.61,0.99,3.72,1.98s1.96,2.23,2.54,3.73s0.87,3.22,0.87,5.18
			c0,3.96-1.12,7.24-3.36,9.83s-5.17,3.88-8.79,3.88l-1.82-0.05c-1.78-0.08-2.91-0.12-3.38-0.12c-0.8,0-1.81,0.07-3.04,0.21v-0.84
			L540.14,644.37z M543.34,644.28c1.33,0.23,2.5,0.35,3.52,0.35c2.76,0,4.9-0.84,6.43-2.53c1.84-2.05,2.76-5.04,2.76-8.96
			c0-3.42-0.77-6.03-2.3-7.82s-3.78-2.69-6.73-2.69c-1.03,0-2.26,0.12-3.68,0.37c-0.12,1.13-0.18,2.4-0.18,3.83v11.5
			C543.16,640.44,543.22,642.43,543.34,644.28z"/>
		<path class="st1" d="M583.37,637.69h-8.55l-1,2.83c-0.66,1.88-0.99,3.02-0.99,3.45c0,0.27,0.06,0.46,0.18,0.58
			s0.44,0.21,0.94,0.28l1.42,0.19v1.11c-0.95-0.08-2.01-0.12-3.19-0.12c-1.42,0-2.67,0.04-3.74,0.12v-1.11l0.44-0.02
			c0.69-0.02,1.14-0.11,1.34-0.25c0.2-0.15,0.42-0.51,0.64-1.08c0.7-1.69,1.41-3.51,2.14-5.47l4.06-10.95
			c1.08-2.91,1.82-5.02,2.22-6.33h1.01l7.48,20.69c0.5,1.41,0.84,2.25,1.01,2.54c0.17,0.29,0.36,0.49,0.58,0.62
			c0.22,0.12,0.7,0.21,1.46,0.25v1.11c-1.28-0.08-2.5-0.12-3.67-0.12c-1.08,0-2.53,0.04-4.33,0.12v-1.11l1.46-0.11
			c0.52-0.05,0.83-0.11,0.93-0.19c0.15-0.13,0.22-0.29,0.22-0.49c0-0.21-0.15-0.76-0.44-1.65L583.37,637.69z M575.37,636.24h7.45
			l-3.72-10.56L575.37,636.24z"/>
		<path class="st1" d="M593.65,640.74v1.15c0,0.92,0.07,1.49,0.21,1.71c0.26,0.38,0.76,0.74,1.5,1.09c0.74,0.35,1.51,0.53,2.3,0.53
			c1.01,0,1.84-0.33,2.48-0.98c0.64-0.65,0.96-1.43,0.96-2.33c0-0.72-0.19-1.29-0.56-1.72c-0.37-0.43-1.09-0.78-2.14-1.04
			c-1.96-0.47-3.26-0.88-3.89-1.23c-0.63-0.35-1.1-0.82-1.42-1.41s-0.47-1.3-0.47-2.13c0-1.56,0.48-2.83,1.43-3.8
			c0.95-0.97,2.3-1.46,4.05-1.46c1.38,0,2.76,0.33,4.13,0.98c-0.09,0.8-0.15,2.13-0.21,4.01h-0.89c-0.02-1.03-0.11-1.71-0.28-2.04
			c-0.23-0.43-0.64-0.83-1.24-1.18c-0.6-0.35-1.24-0.53-1.92-0.53c-0.9,0-1.61,0.27-2.15,0.82c-0.54,0.55-0.8,1.23-0.8,2.05
			c0,0.79,0.21,1.38,0.64,1.78c0.42,0.41,1.6,0.84,3.52,1.3c1.42,0.34,2.35,0.66,2.81,0.95c0.45,0.29,0.82,0.74,1.09,1.33
			c0.28,0.6,0.41,1.28,0.41,2.06c0,1.58-0.57,2.94-1.71,4.09c-1.14,1.15-2.66,1.72-4.56,1.72c-1.21,0-2.57-0.23-4.08-0.68
			c-0.27-0.08-0.4-0.2-0.4-0.37l0.04-0.25c0.04-0.18,0.07-0.49,0.1-0.93c0.09-1.14,0.13-2.03,0.13-2.66l-0.01-0.85H593.65z"/>
		<path class="st1" d="M606.48,640.74v1.15c0,0.92,0.07,1.49,0.21,1.71c0.26,0.38,0.76,0.74,1.5,1.09c0.74,0.35,1.51,0.53,2.3,0.53
			c1.01,0,1.84-0.33,2.48-0.98c0.64-0.65,0.96-1.43,0.96-2.33c0-0.72-0.19-1.29-0.56-1.72c-0.37-0.43-1.09-0.78-2.14-1.04
			c-1.96-0.47-3.26-0.88-3.89-1.23c-0.63-0.35-1.1-0.82-1.42-1.41s-0.47-1.3-0.47-2.13c0-1.56,0.48-2.83,1.43-3.8
			c0.95-0.97,2.3-1.46,4.05-1.46c1.38,0,2.76,0.33,4.13,0.98c-0.09,0.8-0.15,2.13-0.21,4.01h-0.89c-0.02-1.03-0.11-1.71-0.28-2.04
			c-0.23-0.43-0.64-0.83-1.24-1.18c-0.6-0.35-1.24-0.53-1.92-0.53c-0.9,0-1.61,0.27-2.15,0.82c-0.54,0.55-0.8,1.23-0.8,2.05
			c0,0.79,0.21,1.38,0.64,1.78c0.42,0.41,1.6,0.84,3.52,1.3c1.42,0.34,2.35,0.66,2.81,0.95c0.45,0.29,0.82,0.74,1.09,1.33
			c0.28,0.6,0.41,1.28,0.41,2.06c0,1.58-0.57,2.94-1.71,4.09c-1.14,1.15-2.66,1.72-4.56,1.72c-1.21,0-2.57-0.23-4.08-0.68
			c-0.27-0.08-0.4-0.2-0.4-0.37l0.04-0.25c0.04-0.18,0.07-0.49,0.1-0.93c0.09-1.14,0.13-2.03,0.13-2.66l-0.01-0.85H606.48z"/>
		<path class="st1" d="M622.66,629.05l0.35,0.26c-0.07,0.88-0.11,1.85-0.13,2.9c-0.07,3.42-0.1,5.95-0.1,7.58
			c0,1.52,0.04,2.82,0.13,3.9c0.04,0.42,0.13,0.71,0.28,0.88c0.15,0.16,0.5,0.29,1.06,0.37l1.01,0.16v1.02
			c-1.44-0.08-2.75-0.12-3.93-0.12c-1.16,0-2.34,0.04-3.52,0.12v-1.02l1.27-0.16c0.49-0.05,0.8-0.16,0.91-0.33
			c0.11-0.17,0.18-0.74,0.21-1.7c0.05-1.49,0.07-3.55,0.07-6.17c0-1.82-0.02-3.23-0.07-4.21c-0.02-0.36-0.11-0.62-0.26-0.78
			c-0.15-0.15-0.5-0.23-1.03-0.23h-1.11v-1.02c1.2-0.21,2.09-0.4,2.65-0.57C621.03,629.77,621.76,629.47,622.66,629.05z
			 M621.48,621.27c0.45,0,0.84,0.2,1.17,0.59s0.49,0.86,0.49,1.42s-0.16,1.02-0.49,1.41s-0.71,0.58-1.17,0.58
			c-0.46,0-0.86-0.19-1.18-0.58c-0.33-0.39-0.49-0.86-0.49-1.41s0.16-1.02,0.49-1.42C620.62,621.46,621.02,621.27,621.48,621.27z"/>
		<path class="st1" d="M639.1,632.39c0.23,0.75,0.34,1.37,0.34,1.85c0,1.05-0.27,2.05-0.8,3.02c-0.53,0.97-1.29,1.75-2.28,2.34
			c-0.99,0.59-2.05,0.89-3.19,0.89l-0.69-0.02c-0.65,0.57-1.06,1-1.23,1.28c-0.17,0.28-0.26,0.55-0.26,0.82
			c0,0.44,0.19,0.79,0.58,1.05s1.17,0.38,2.35,0.38c0.45,0,1.1-0.02,1.95-0.06c1.21-0.07,2.09-0.1,2.63-0.1
			c0.78,0,1.37,0.15,1.79,0.45c0.41,0.3,0.77,0.82,1.06,1.57s0.44,1.59,0.44,2.53c0,1.31-0.33,2.57-1.01,3.78s-1.65,2.17-2.93,2.9
			c-1.28,0.73-2.75,1.09-4.42,1.09c-2.03,0-3.59-0.52-4.69-1.57c-1.09-1.05-1.64-2.34-1.64-3.88c0-0.95,0.29-1.91,0.86-2.88
			c1.02-0.57,1.89-1.15,2.59-1.74c-0.81-0.32-1.33-0.6-1.56-0.87c-0.23-0.26-0.35-0.6-0.35-1.01c0-0.49,0.11-0.98,0.34-1.45
			c0.13-0.29,0.45-0.65,0.97-1.07l1.43-1.21c-1.18-0.35-2.03-0.85-2.56-1.5c-0.69-0.87-1.03-1.98-1.03-3.33
			c0-1.18,0.26-2.26,0.77-3.24c0.51-0.97,1.27-1.74,2.26-2.31c1.27-0.72,2.5-1.07,3.68-1.07c0.75,0,1.41,0.12,1.97,0.35
			c0.57,0.23,1.15,0.63,1.74,1.2h1.24c1.28,0,2.28-0.05,2.99-0.16l0.16,0.37c-0.3,0.51-0.56,1.04-0.78,1.6H639.1z M632.82,646.37
			c-0.7,0-1.18,0.09-1.43,0.28c-0.83,0.63-1.33,1.14-1.51,1.53c-0.29,0.61-0.44,1.38-0.44,2.31c0,1.28,0.4,2.34,1.2,3.17
			c0.8,0.83,1.9,1.25,3.32,1.25c1.09,0,2.05-0.24,2.88-0.72c0.83-0.48,1.47-1.14,1.93-1.98s0.69-1.71,0.69-2.6
			c0-0.76-0.16-1.43-0.48-2.01c-0.32-0.58-0.7-0.95-1.14-1.11c-0.23-0.08-0.74-0.12-1.55-0.12H632.82z M636.86,635.17
			c0-1.47-0.32-2.65-0.95-3.55c-0.63-0.89-1.43-1.34-2.38-1.34c-0.95,0-1.71,0.37-2.29,1.09c-0.58,0.73-0.87,1.74-0.87,3.04
			c0,1.57,0.31,2.79,0.94,3.68c0.63,0.89,1.41,1.33,2.36,1.33s1.72-0.37,2.3-1.12C636.57,637.56,636.86,636.51,636.86,635.17z"/>
		<path class="st1" d="M648.04,632.48l2.24-2.36c0.27-0.28,0.55-0.49,0.84-0.62c0.65-0.26,1.3-0.39,1.95-0.39
			c1.06,0,1.97,0.25,2.74,0.76c0.77,0.51,1.32,1.17,1.66,1.99s0.5,2.09,0.5,3.82l-0.06,5.54c0,1.91,0.07,3.01,0.21,3.3
			c0.19,0.38,0.55,0.56,1.09,0.56h1.06v1.02c-1.05-0.08-1.96-0.12-2.73-0.12c-0.75,0-1.55,0.04-2.4,0.12
			c0.19-2.29,0.28-5.37,0.28-9.26c0-1.57-0.12-2.68-0.35-3.34c-0.23-0.66-0.62-1.18-1.17-1.58s-1.21-0.6-1.98-0.6
			c-0.96,0-1.77,0.29-2.44,0.86c-0.67,0.57-1.08,1.21-1.24,1.9c-0.1,0.46-0.15,1.65-0.15,3.59c0,2.14,0.01,4.14,0.04,5.98
			c0.01,0.55,0.08,0.9,0.21,1.04c0.25,0.27,0.65,0.4,1.22,0.4h1.06v1.02c-1.67-0.08-3-0.12-3.98-0.12c-1.05,0-2.24,0.04-3.57,0.12
			v-1.02h1.06c0.73,0,1.16-0.2,1.28-0.61c0.12-0.4,0.18-2.83,0.18-7.29c0-2-0.02-3.57-0.06-4.7c-0.02-0.38-0.1-0.63-0.24-0.77
			c-0.14-0.14-0.53-0.21-1.17-0.21h-1.06v-1.02c0.84-0.12,1.6-0.28,2.27-0.47c0.67-0.2,1.42-0.5,2.25-0.91
			c0.09-0.05,0.17-0.07,0.25-0.07c0.16,0,0.24,0.13,0.24,0.4l-0.01,0.67L648.04,632.48z"/>
		<path class="st1" d="M666.01,632.27l1.98-2.11c0.32-0.34,0.65-0.58,1.01-0.72c0.51-0.21,1.02-0.32,1.52-0.32
			c1.11,0,2.01,0.24,2.68,0.71c0.67,0.48,1.29,1.33,1.85,2.56l1.91-2.07c0.33-0.35,0.73-0.62,1.2-0.81
			c0.62-0.26,1.22-0.39,1.81-0.39c0.89,0,1.69,0.25,2.41,0.74c0.72,0.49,1.26,1.13,1.61,1.92c0.35,0.79,0.53,1.85,0.53,3.2
			l-0.06,6.88c0,1.54,0.07,2.44,0.22,2.72c0.15,0.28,0.53,0.43,1.14,0.47l1.09,0.05v1.02l-0.71-0.04c-1.15-0.05-1.93-0.08-2.33-0.08
			c-0.62,0-1.35,0.04-2.18,0.12c0.14-2.17,0.21-4.7,0.21-7.6c0-2.45-0.09-4.06-0.27-4.83c-0.18-0.77-0.52-1.37-1.02-1.81
			c-0.5-0.44-1.13-0.66-1.89-0.66c-0.86,0-1.59,0.28-2.2,0.83c-0.61,0.55-0.99,1.21-1.13,1.98c-0.1,0.49-0.15,2.57-0.15,6.26
			c0,2.17,0.01,3.41,0.04,3.71c0.03,0.3,0.11,0.52,0.24,0.64c0.13,0.12,0.56,0.23,1.28,0.33l0.99,0.14v1.02
			c-1.74-0.08-3.02-0.12-3.84-0.12c-0.65,0-1.91,0.04-3.78,0.12v-1.02h0.99c0.59,0,0.98-0.1,1.15-0.3c0.18-0.2,0.28-0.67,0.31-1.41
			c0.08-1.92,0.12-3.93,0.12-6.02c0-1.87-0.11-3.15-0.32-3.86s-0.57-1.27-1.08-1.68s-1.12-0.62-1.83-0.62
			c-0.76,0-1.45,0.25-2.07,0.76c-0.62,0.5-1.04,1.11-1.27,1.83c-0.15,0.49-0.22,1.89-0.22,4.19c0,2.52,0.02,4.38,0.06,5.56
			c0.02,0.55,0.09,0.9,0.22,1.06c0.13,0.15,0.55,0.27,1.27,0.35l1.02,0.14v1.02c-1.23-0.08-2.39-0.12-3.49-0.12
			c-1.24,0-2.59,0.04-4.05,0.12v-1.02h1.12c0.64,0,1.02-0.2,1.15-0.61c0.13-0.41,0.19-2.61,0.19-6.62c0-2.94-0.01-4.67-0.04-5.2
			c-0.03-0.53-0.11-0.86-0.25-1c-0.14-0.14-0.56-0.21-1.26-0.21h-0.92v-0.97c1.45-0.23,2.69-0.56,3.74-0.97l1.08-0.49
			c0.18,0,0.27,0.14,0.27,0.42l-0.03,0.64C666.01,630.75,666,631.47,666.01,632.27z"/>
		<path class="st1" d="M690.71,637.62c0.05,2.31,0.55,4.06,1.49,5.26c0.94,1.2,2.18,1.79,3.72,1.79c0.69,0,1.37-0.13,2.05-0.4
			c0.68-0.27,1.35-0.67,2.02-1.21l0.25,0.26l-0.47,1.48c-0.82,0.56-1.66,0.98-2.53,1.27c-0.87,0.28-1.76,0.42-2.68,0.42
			c-2,0-3.61-0.75-4.84-2.26s-1.84-3.55-1.84-6.13c0-1.97,0.34-3.67,1.03-5.12c0.45-0.95,1.29-1.83,2.51-2.64s2.41-1.21,3.56-1.21
			c1.74,0,3.13,0.61,4.15,1.83s1.53,2.92,1.53,5.12l-0.03,1.04c-0.65,0.19-1.27,0.31-1.86,0.37c-1.05,0.09-2.51,0.14-4.38,0.14
			H690.71z M690.74,636.3c1.53,0.08,3.21,0.12,5.05,0.12c0.74,0,1.45-0.04,2.14-0.12v-0.98c0-1.03-0.17-2.01-0.52-2.94
			c-0.22-0.57-0.6-1.05-1.14-1.43s-1.17-0.57-1.88-0.57c-1.1,0-1.99,0.48-2.65,1.44C691.1,632.78,690.76,634.27,690.74,636.3z"/>
		<path class="st1" d="M706.88,632.48l2.24-2.36c0.27-0.28,0.55-0.49,0.84-0.62c0.65-0.26,1.3-0.39,1.95-0.39
			c1.06,0,1.97,0.25,2.74,0.76c0.77,0.51,1.32,1.17,1.66,1.99s0.5,2.09,0.5,3.82l-0.06,5.54c0,1.91,0.07,3.01,0.21,3.3
			c0.19,0.38,0.55,0.56,1.09,0.56h1.06v1.02c-1.05-0.08-1.96-0.12-2.73-0.12c-0.75,0-1.55,0.04-2.4,0.12
			c0.19-2.29,0.28-5.37,0.28-9.26c0-1.57-0.12-2.68-0.35-3.34c-0.23-0.66-0.62-1.18-1.17-1.58s-1.21-0.6-1.98-0.6
			c-0.96,0-1.77,0.29-2.44,0.86c-0.67,0.57-1.08,1.21-1.24,1.9c-0.1,0.46-0.15,1.65-0.15,3.59c0,2.14,0.01,4.14,0.04,5.98
			c0.01,0.55,0.08,0.9,0.21,1.04c0.25,0.27,0.65,0.4,1.22,0.4h1.06v1.02c-1.67-0.08-3-0.12-3.98-0.12c-1.05,0-2.24,0.04-3.57,0.12
			v-1.02h1.06c0.73,0,1.16-0.2,1.28-0.61c0.12-0.4,0.18-2.83,0.18-7.29c0-2-0.02-3.57-0.06-4.7c-0.02-0.38-0.1-0.63-0.24-0.77
			c-0.14-0.14-0.53-0.21-1.17-0.21h-1.06v-1.02c0.84-0.12,1.6-0.28,2.27-0.47c0.67-0.2,1.42-0.5,2.25-0.91
			c0.09-0.05,0.17-0.07,0.25-0.07c0.16,0,0.24,0.13,0.24,0.4l-0.01,0.67L706.88,632.48z"/>
		<path class="st1" d="M724.66,632.31v6.9c0,1.8,0.05,2.95,0.15,3.45c0.1,0.5,0.3,0.9,0.6,1.18c0.3,0.28,0.68,0.42,1.15,0.42
			c0.29,0,0.56-0.07,0.84-0.2c0.27-0.13,0.54-0.34,0.81-0.61l0.43,0.61l-1.44,2.01c-0.32,0.13-0.62,0.23-0.92,0.3
			c-0.3,0.07-0.58,0.11-0.86,0.11c-0.73,0-1.35-0.16-1.86-0.47c-0.5-0.31-0.87-0.71-1.1-1.21c-0.23-0.5-0.34-1.25-0.34-2.26
			l0.06-3.39v-6.68c-0.76,0-1.54,0.04-2.35,0.12v-0.76c0.85-0.39,1.63-0.79,2.35-1.21c-0.01-1.68-0.05-3.49-0.12-5.45
			c1.15-0.57,1.98-1.04,2.48-1.39l0.39,0.35c-0.08,0.91-0.16,3.08-0.25,6.49c1.2,0,2.18-0.02,2.94-0.05l1.18-0.07l-0.16,1.81
			l-0.61-0.02l-2.84,0.02H724.66z"/>
	</g>
</g>
</svg>
