<?xml version="1.0" encoding="utf-8"?>
<!-- Generator: Adobe Illustrator 21.0.0, SVG Export Plug-In . SVG Version: 6.00 Build 0)  -->
<svg version="1.1" xmlns="http://www.w3.org/2000/svg" xmlns:xlink="http://www.w3.org/1999/xlink" x="0px" y="0px"
	 viewBox="0 0 1366 768" style="enable-background:new 0 0 1366 768;" xml:space="preserve">
<style type="text/css">
	.st0{fill:#00A99D;}
</style>
<g id="About">
	<g>
		<path class="st0" d="M439.06,327.16l-10.78-26.33l-3.59-0.04l-8.85,21.08c-1.58,3.75-2.88,6.67-3.89,8.78
			c-0.53,1.07-0.92,1.68-1.17,1.84c-0.36,0.22-1.31,0.37-2.84,0.44l-0.02,2.22c1.33-0.1,3.13-0.14,5.39-0.12
			c2.37,0.02,4.36,0.1,5.95,0.23l0.02-2.22c-1.97-0.18-3.11-0.34-3.42-0.5c-0.32-0.15-0.47-0.41-0.47-0.78
			c0-0.27,0.05-0.57,0.16-0.91c0.44-1.47,0.81-2.58,1.11-3.33l1.1-2.73c1.78-0.03,3.75-0.04,5.92-0.02
			c2.49,0.02,4.75,0.07,6.77,0.14l1.57,4.09c0.67,1.77,1,2.81,0.99,3.11c0,0.35-0.16,0.59-0.46,0.72c-0.3,0.13-1.42,0.23-3.36,0.29
			l-0.02,2.22c2.54-0.09,5.22-0.12,8.03-0.09c2.36,0.02,4.86,0.1,7.51,0.24l0.02-2.22c-1.72-0.13-2.75-0.35-3.08-0.67
			C441.33,332.31,440.46,330.49,439.06,327.16z M423.88,322.08c-1.81-0.02-3.46-0.07-4.96-0.17l5.27-12.5l5.11,12.61
			C427.58,322.08,425.77,322.1,423.88,322.08z"/>
		<path class="st0" d="M464.8,311.96c-1.04-0.01-1.93,0.11-2.68,0.36c-0.74,0.25-1.58,0.77-2.52,1.54l-2.98,2.44
			c0.16-8.35,0.26-12.96,0.31-13.84l0.1-2.56c0-0.39-0.15-0.59-0.46-0.59l-1.08,0.41c-0.98,0.4-2.44,0.78-4.4,1.14
			c-1.95,0.36-3.37,0.54-4.27,0.53l-0.02,1.76c1.7,0.08,2.65,0.16,2.86,0.22c0.29,0.08,0.49,0.23,0.6,0.45
			c0.16,0.31,0.23,0.95,0.22,1.91l0.08,6.28c0.03,1.71,0.03,4.14,0,7.28c-0.07,6.95-0.27,12.4-0.6,16.34l1.16,0.48
			c1.04-0.98,1.76-1.62,2.15-1.91c1.18,0.74,2.24,1.26,3.18,1.54c0.94,0.29,1.96,0.43,3.05,0.45c1.11,0.01,2.04-0.11,2.81-0.36
			c0.77-0.25,1.72-0.8,2.85-1.63c0.95-0.71,2.11-1.49,3.47-2.34c1.08-0.71,1.96-1.52,2.65-2.46c0.68-0.93,1.26-2.13,1.73-3.6
			c0.47-1.47,0.71-2.9,0.73-4.28c0.03-2.82-0.78-5.11-2.41-6.87C469.72,312.88,467.53,311.99,464.8,311.96z M465.76,330.78
			c-1.09,1.38-2.5,2.06-4.24,2.05c-1.07-0.01-2.03-0.25-2.87-0.71c-0.84-0.46-1.56-1.15-2.15-2.05l0.11-11.21
			c0.71-0.86,1.48-1.5,2.3-1.92c0.83-0.42,1.71-0.63,2.66-0.62c1.77,0.02,3.2,0.71,4.29,2.08c1.09,1.37,1.62,3.39,1.59,6.06
			C467.41,327.29,466.85,329.4,465.76,330.78z"/>
		<path class="st0" d="M490.14,312.21c-4.09-0.04-7.22,1.08-9.41,3.35c-1.83,1.92-2.76,4.81-2.79,8.67
			c-0.04,3.94,0.92,6.96,2.87,9.05c1.95,2.09,4.81,3.15,8.59,3.19c3.84,0.04,6.85-1.04,9.03-3.24c2.18-2.19,3.29-5.34,3.33-9.42
			c0.04-3.97-0.87-6.89-2.72-8.75C497.17,313.2,494.21,312.25,490.14,312.21z M493.67,332.31c-0.83,1.2-2.01,1.79-3.52,1.78
			c-1.73-0.02-3.01-0.74-3.86-2.17c-1.09-1.85-1.61-4.95-1.57-9.29c0.03-2.94,0.48-5.01,1.37-6.23c0.88-1.22,2.08-1.82,3.59-1.8
			c1.76,0.02,3.05,0.7,3.86,2.04c0.99,1.69,1.47,4.72,1.43,9.09C494.93,328.92,494.5,331.11,493.67,332.31z"/>
		<path class="st0" d="M529.44,333.34c-0.12-0.59-0.17-2.02-0.15-4.31c0.07-7.45,0.25-12.6,0.54-15.43l0.05-0.66
			c0-0.34-0.13-0.51-0.41-0.52l-2.59,0.9c-1.56,0.49-4.01,0.91-7.34,1.25l-0.02,1.88c1.97,0.12,3.07,0.24,3.32,0.37
			c0.16,0.1,0.27,0.28,0.34,0.54c0.09,0.49,0.13,2.18,0.1,5.06c-0.04,3.6-0.16,5.79-0.37,6.55c-0.21,0.76-0.75,1.46-1.63,2.09
			c-0.88,0.63-1.89,0.94-3.05,0.92c-0.99-0.01-1.78-0.22-2.37-0.63c-0.59-0.41-1-0.99-1.22-1.73c-0.22-0.74-0.32-2.24-0.3-4.49
			c0.03-3.49,0.21-7.1,0.52-10.85l0.11-1.44c0-0.38-0.14-0.56-0.43-0.57l-2.43,0.83c-2.27,0.66-4.71,1.1-7.31,1.32l-0.02,1.88
			c1.76,0.05,2.77,0.15,3.02,0.31c0.26,0.16,0.43,0.42,0.5,0.8c0.11,0.57,0.15,2.31,0.12,5.21c-0.01,1.03-0.05,2.36-0.11,4.01
			l-0.07,2.66c-0.02,1.76,0.23,3.13,0.75,4.1c0.52,0.97,1.33,1.77,2.43,2.38c1.1,0.61,2.4,0.93,3.9,0.94
			c1.12,0.01,2.26-0.23,3.42-0.72c1.43-1.45,2.91-2.78,4.43-3.99c-0.07,1.74-0.15,3.02-0.23,3.83l0.21,0.44
			c1.28-0.09,2.67-0.12,4.16-0.11c1.83,0.02,3.68,0.08,5.54,0.2l0.02-2c-1.78-0.15-2.79-0.3-3.05-0.45
			C529.64,333.81,529.51,333.62,529.44,333.34z"/>
		<path class="st0" d="M550.93,314.65c-1.32,0.21-2.81,0.31-4.47,0.3c-0.73-0.01-1.47-0.08-2.22-0.22c0.17-3.97,0.44-7.13,0.83-9.49
			l-0.73-0.57c-1.99,0.96-4.09,1.77-6.32,2.43c0.11,2.17,0.16,4.69,0.17,7.57l-3.27,2.09l-0.01,1.27c0.81-0.09,1.48-0.13,2-0.13
			l1.25,0.06c-0.02,1.7-0.08,4-0.19,6.92c-0.11,3.32-0.17,5.38-0.18,6.16c-0.01,1.48,0.18,2.6,0.59,3.36
			c0.41,0.75,1.07,1.37,1.98,1.85s2.06,0.73,3.42,0.74c0.42,0,0.89-0.02,1.39-0.06s1.06-0.11,1.66-0.2c0.94-1.16,1.9-2.28,2.89-3.37
			l-0.41-0.93c-0.47,0.14-0.92,0.25-1.33,0.33c-0.42,0.08-0.8,0.11-1.16,0.11c-1.22-0.01-1.99-0.39-2.31-1.15s-0.45-3.87-0.4-9.35
			c0.01-1.25,0.04-2.71,0.09-4.35c0.64-0.06,1.29-0.08,1.95-0.08c0.89,0.01,2.29,0.09,4.2,0.24c0.12-0.76,0.31-1.6,0.56-2.51
			l0.23-0.88L550.93,314.65z"/>
	</g>
</g>
<g id="Home">
	<g>
		<path class="st0" d="M91.22,138.56c-0.3-0.04-0.58-0.2-0.84-0.5c-0.26-0.29-0.91-1.58-1.95-3.86l-4.63-10.07
			c-0.89-2.01-2-4.66-3.34-7.95c-0.88-2.14-1.32-3.39-1.32-3.77c0.01-0.22,0.09-0.41,0.22-0.58c0.24-0.3,1.29-0.93,3.14-1.9
			l-0.83-1.88c-2.45,1.21-4.8,2.31-7.04,3.31c-1.31,0.58-3.83,1.64-7.58,3.17l0.83,1.87c2.01-0.78,3.24-1.11,3.71-0.98
			c0.34,0.08,0.72,0.53,1.16,1.36c0.82,1.54,2.3,4.73,4.43,9.57c-1.38,0.7-3.56,1.71-6.55,3.04c-3.36,1.49-5.82,2.54-7.4,3.15
			l-0.82-1.85c-0.98-2.2-1.9-4.39-2.78-6.57c-0.58-1.47-0.86-2.38-0.84-2.73c0.01-0.22,0.09-0.41,0.25-0.59
			c0.26-0.29,1.28-0.91,3.06-1.84l-0.83-1.87c-2.23,1.12-4.73,2.28-7.49,3.51c-1.74,0.77-4.13,1.77-7.15,2.99l0.83,1.87
			c2.06-0.77,3.28-1.12,3.66-1.06c0.23,0.04,0.44,0.15,0.61,0.34c0.3,0.31,1.37,2.53,3.21,6.64l5.44,12.2
			c1.46,3.3,2.31,5.4,2.52,6.28c0.15,0.58,0.13,1.01-0.06,1.29c-0.19,0.29-1.24,0.91-3.16,1.87l0.83,1.88l7.46-3.5
			c1.31-0.58,2.81-1.21,4.51-1.89l2.67-1.1l-0.83-1.87c-2.04,0.75-3.25,1.07-3.63,0.98c-0.38-0.09-0.89-0.78-1.55-2.05
			c-0.97-1.9-2.32-4.8-4.05-8.7l-0.65-1.47c2.38-1.13,5.17-2.4,8.36-3.81c2.04-0.9,3.88-1.72,5.55-2.46
			c2.41,5.55,3.93,9.19,4.58,10.93c0.38,1.01,0.48,1.7,0.32,2.05c-0.17,0.35-1.22,1.01-3.15,1.98l0.83,1.88
			c2.94-1.43,5.51-2.63,7.71-3.61c1.06-0.47,2.52-1.08,4.41-1.85l2.5-1.03l-0.83-1.88C92.7,138.24,91.53,138.6,91.22,138.56z"/>
		<path class="st0" d="M109.57,110.2c-2.46-0.92-5.55-0.56-9.27,1.09c-3.73,1.66-6.13,3.97-7.17,6.95c-0.86,2.5-0.51,5.52,1.05,9.05
			c1.6,3.6,3.72,5.95,6.36,7.05c2.64,1.09,5.68,0.87,9.14-0.66c3.51-1.56,5.8-3.79,6.88-6.69c1.07-2.9,0.78-6.22-0.88-9.96
			C114.06,113.4,112.03,111.12,109.57,110.2z M111.84,128.12c-0.26,1.44-1.08,2.46-2.47,3.08c-1.58,0.7-3.05,0.58-4.41-0.37
			c-1.76-1.24-3.52-3.84-5.28-7.81c-1.19-2.68-1.64-4.76-1.34-6.23s1.14-2.52,2.53-3.13c1.61-0.71,3.06-0.63,4.36,0.26
			c1.6,1.13,3.29,3.69,5.07,7.69C111.59,124.51,112.11,126.68,111.84,128.12z"/>
		<path class="st0" d="M159.04,108.62c-0.28-0.05-0.54-0.22-0.78-0.52c-0.41-0.57-1.09-1.92-2.04-4.05
			c-0.72-1.61-1.5-3.46-2.35-5.54l-0.78-1.88c-1.14-2.58-2.52-4.2-4.13-4.86c-1.61-0.66-3.58-0.47-5.92,0.56
			c-1.31,0.58-2.2,1.32-2.67,2.23l-2.46,4.7c-1.09-1.14-2.24-1.81-3.45-2.01c-1.21-0.2-2.61,0.05-4.2,0.75
			c-1.57,0.7-2.62,1.51-3.13,2.43l-2.44,4.37l-0.36-0.8c-0.24-0.54-0.39-0.91-0.46-1.13c-0.18-0.49-0.33-0.88-0.45-1.16
			c-0.16-0.37-0.35-0.51-0.56-0.42c-0.1,0.05-0.24,0.15-0.42,0.32c-0.85,0.88-1.86,1.76-3.02,2.62c-1.16,0.87-2.61,1.8-4.35,2.81
			l0.76,1.72l1.46-0.59c0.92-0.39,1.53-0.41,1.83-0.06c0.36,0.41,1.81,3.48,4.35,9.22c1.21,2.73,1.91,4.48,2.12,5.26
			c0.11,0.4,0.08,0.72-0.07,0.95c-0.15,0.24-0.98,0.73-2.49,1.47l0.81,1.83c3.23-1.54,5.21-2.47,5.95-2.8
			c2.12-0.94,4.1-1.76,5.92-2.46l-0.81-1.83c-1.49,0.5-2.36,0.73-2.62,0.68c-0.26-0.05-0.48-0.21-0.66-0.49
			c-0.3-0.42-1-1.9-2.13-4.44l-1.15-2.65c-0.85-1.92-1.39-3.09-1.63-3.48l-0.4-0.84c-0.32-0.72-0.44-1.3-0.35-1.75
			c0.14-0.81,0.44-1.52,0.89-2.14c0.46-0.61,1.06-1.09,1.8-1.42c1.01-0.45,1.91-0.56,2.7-0.34c0.78,0.22,1.46,0.76,2.01,1.62
			c0.56,0.86,1.68,3.18,3.35,6.95c1.47,3.31,2.17,5.24,2.11,5.78c-0.06,0.54-0.83,1.13-2.31,1.78l0.81,1.83
			c1.82-0.91,3.9-1.89,6.23-2.93c1.87-0.83,3.81-1.63,5.79-2.41l-0.81-1.83c-1.72,0.62-2.74,0.89-3.05,0.8
			c-0.31-0.09-0.64-0.45-0.98-1.1c-0.77-1.46-2.03-4.16-3.78-8.1c-0.97-2.19-1.48-3.53-1.51-4.02c-0.04-0.7,0.19-1.43,0.68-2.2
			c0.5-0.77,1.21-1.37,2.13-1.78c1.42-0.63,2.61-0.62,3.57,0.04c0.96,0.65,2.24,2.79,3.85,6.41c1.35,3.05,2.55,6.27,3.58,9.64
			l0.45,0.31c1.4-0.73,2.76-1.38,4.09-1.98c1.38-0.61,3.01-1.28,4.9-2.01l-0.81-1.83C160.21,108.41,159.32,108.66,159.04,108.62z"/>
		<path class="st0" d="M181.14,96.26c-0.61,0.84-1.27,1.57-2,2.18c-0.72,0.62-1.51,1.11-2.36,1.49c-2.02,0.9-3.98,0.99-5.86,0.27
			c-1.89-0.72-3.51-2.31-4.87-4.78l4.83-2.14c2.14-0.95,3.76-1.71,4.85-2.29l3.36-2.29c-0.28-0.79-0.5-1.37-0.66-1.74
			c-1.34-3.03-3.11-4.87-5.31-5.53c-2.2-0.66-4.52-0.45-6.96,0.64c-1.59,0.71-2.9,1.7-3.93,2.97s-1.88,2.52-2.57,3.73
			s-0.99,2.49-0.93,3.83c0.08,1.66,0.59,3.57,1.55,5.73c1.51,3.41,3.62,5.64,6.32,6.7c2.7,1.06,5.68,0.86,8.92-0.57
			c1.38-0.61,2.62-1.36,3.7-2.24c1.08-0.88,2.01-1.89,2.78-3.03l0.05-2.58L181.14,96.26z M163.71,88.76
			c-0.03-0.84,0.15-1.59,0.56-2.24c0.4-0.65,1.01-1.16,1.81-1.51c1.15-0.51,2.24-0.49,3.28,0.06c1.04,0.55,1.97,1.74,2.79,3.57
			l0.44,1.06c-1.24,0.69-2.45,1.3-3.63,1.82c-1.34,0.59-2.7,1.13-4.1,1.6C164.13,91.05,163.74,89.6,163.71,88.76z"/>
	</g>
</g>
<g id="Works">
	<g>
		<path class="st0" d="M106.17,611.5c0.46-0.16,1.34-0.08,2.64,0.24l0.66-1.94c-2.42-0.71-4.11-1.22-5.05-1.54
			c-0.77-0.26-2.56-0.93-5.37-2.02l-0.66,1.94c1.83,0.68,2.88,1.15,3.15,1.42c0.27,0.27,0.32,0.65,0.15,1.15
			c-0.4,1.17-1.54,3.16-3.43,5.97l-8.78,13.02l-1.42-27.26l-2.06-0.7c-1.78,1.94-4.64,4.9-8.59,8.9l-10.1,10.24l1.51-12.95
			c0.57-4.83,0.94-7.51,1.12-8.03c0.15-0.45,0.43-0.7,0.84-0.77c0.41-0.07,1.44,0.15,3.09,0.64l0.66-1.94
			c-2.73-0.81-5.13-1.57-7.19-2.28c-1.96-0.67-4.19-1.49-6.71-2.47l-0.66,1.94c1.45,0.65,2.28,1.13,2.49,1.46s0.26,1.07,0.14,2.23
			l-1.24,11.65c-1.14,10.43-1.82,16.64-2.06,18.64l3.3,1.13c2.57-2.83,5.44-5.89,8.63-9.17l10.2-10.46l1.27,26.49l4.39,1.5
			l8.24-12.25c4.93-7.23,7.96-11.58,9.08-13.07C105.12,612.23,105.71,611.67,106.17,611.5z"/>
		<path class="st0" d="M126.19,629.53c-1.18-2.35-3.69-4.18-7.54-5.49c-3.87-1.32-7.19-1.24-9.99,0.23
			c-2.34,1.25-4.13,3.7-5.38,7.36c-1.27,3.73-1.31,6.89-0.12,9.49c1.19,2.59,3.58,4.5,7.15,5.72c3.63,1.24,6.83,1.16,9.59-0.24
			c2.76-1.4,4.8-4.03,6.12-7.9C127.31,634.93,127.36,631.87,126.19,629.53z M118.98,638.39c-1.03,3.01-2.13,4.96-3.29,5.83
			c-1.17,0.88-2.47,1.07-3.9,0.58c-1.63-0.56-2.63-1.65-2.99-3.27c-0.45-2.1,0.02-5.21,1.43-9.31c0.95-2.78,2.03-4.61,3.25-5.48
			c1.22-0.88,2.55-1.07,3.98-0.58c1.66,0.57,2.67,1.62,3.02,3.15C120.89,631.23,120.39,634.25,118.98,638.39z"/>
		<path class="st0" d="M145.03,639.35c0.34,0.38,0.59,0.94,0.74,1.66l1.17-0.02c0.95-2.64,1.76-4.7,2.43-6.19
			c-0.45-0.34-0.92-0.6-1.41-0.77c-0.88-0.3-1.62-0.41-2.24-0.33c-0.61,0.08-1.42,0.43-2.42,1.06c-1.35,0.83-2.55,1.49-3.59,1.97
			c0.62-1.82,1.12-3.2,1.5-4.16l0.13-0.32c0.1-0.29,0.04-0.48-0.17-0.55l-2.68,0.08c-1.49-0.02-3.83-0.41-7.04-1.18l-0.61,1.78
			c1.72,0.66,2.67,1.1,2.84,1.34c0.18,0.24,0.22,0.56,0.14,0.96c-0.13,0.7-0.81,2.82-2.03,6.39c-0.63,1.85-1.36,3.89-2.19,6.12
			c-0.46,1.25-0.84,2.04-1.14,2.35c-0.18,0.16-0.37,0.26-0.59,0.29c-0.27,0.03-1.19-0.18-2.77-0.64l-0.65,1.89l2.63,0.82
			c1.52,0.47,2.86,0.9,4,1.29c1.2,0.41,2.62,0.92,4.25,1.53l2.56,0.95l0.65-1.89c-1.94-0.77-3.05-1.33-3.32-1.68
			c-0.18-0.23-0.22-0.58-0.14-1.03c0.11-0.69,0.84-2.98,2.17-6.89c0.92-2.69,1.52-4.24,1.8-4.66c0.4-0.55,1.01-0.96,1.83-1.21
			c0.83-0.25,1.7-0.22,2.63,0.09C144.18,638.66,144.69,638.97,145.03,639.35z"/>
		<path class="st0" d="M172.76,645.54c0.39,0.01,1.46,0.25,3.2,0.75l0.65-1.9c-1.19-0.3-2.3-0.63-3.33-0.98
			c-0.86-0.29-1.83-0.67-2.89-1.14c-4.8,2.71-9.29,4.89-13.48,6.54l0.39-1.29l2.26-6.46c2.62-7.52,4.15-11.85,4.59-12.97l0.38-0.98
			c0.14-0.42,0.1-0.66-0.13-0.74c-0.12-0.04-0.35-0.05-0.69-0.03c-1.22,0.12-2.52,0.1-3.91-0.06c-1.38-0.15-3.13-0.48-5.26-0.98
			l-0.57,1.66c1.54,0.56,2.42,0.96,2.61,1.19s0.29,0.51,0.27,0.84c-0.02,0.33-0.47,1.88-1.34,4.65c-1.21,3.81-2.23,6.91-3.05,9.32
			c-1.02,2.98-2.02,5.84-3.01,8.57c-0.99,2.74-1.6,4.26-1.84,4.55c-0.14,0.16-0.3,0.26-0.47,0.31c-0.33,0.06-1.33-0.16-3-0.66
			l-0.65,1.89c3.67,1.15,5.99,1.89,6.96,2.22c1,0.34,2.97,1.07,5.91,2.17l0.65-1.89c-1.62-0.66-2.52-1.09-2.7-1.3
			c-0.19-0.21-0.26-0.5-0.22-0.87c0.08-0.83,0.49-2.33,1.23-4.49l1.27-3.73c0.9,1.74,1.99,4.14,3.27,7.21
			c0.94,2.25,1.82,4.64,2.66,7.18c1.13,0.28,2.25,0.61,3.37,1c1.45,0.49,3.02,1.08,4.71,1.76l0.65-1.89
			c-0.76-0.34-1.29-0.79-1.6-1.32c-0.48-0.8-1.91-4.04-4.26-9.7l-2.06-4.92c4.14-1.74,6.65-2.76,7.53-3.06
			C171.73,645.69,172.36,645.54,172.76,645.54z"/>
		<path class="st0" d="M193.85,657.49c0.98-2.62,1.78-4.52,2.41-5.7c-1.7-1.41-3.69-2.5-5.97-3.28c-2.18-0.75-4.05-1.03-5.59-0.86
			c-1.54,0.17-2.86,0.68-3.94,1.53c-1.08,0.85-1.86,1.99-2.35,3.4c-0.41,1.2-0.52,2.31-0.34,3.34c0.18,1.03,0.6,1.9,1.26,2.61
			c0.66,0.71,2.23,1.82,4.71,3.32c1.64,0.99,2.64,1.83,3.01,2.52c0.36,0.7,0.4,1.49,0.09,2.37c-0.35,1.03-1,1.72-1.96,2.09
			c-0.96,0.37-2.19,0.29-3.69-0.22c-1.23-0.42-2.23-1.03-2.99-1.82c-0.77-0.79-1.21-1.57-1.33-2.31c-0.04-0.27,0.23-1.42,0.84-3.43
			l-1.96-0.67c-1.03,2.86-1.87,4.93-2.51,6.21l0.21,0.51c1.18,0.86,2.3,1.59,3.35,2.19c1.05,0.6,2.04,1.05,2.96,1.37
			c2.78,0.95,5.42,1.08,7.91,0.38c2.49-0.7,4.18-2.35,5.07-4.96c0.46-1.36,0.57-2.58,0.31-3.66c-0.26-1.08-0.85-2.03-1.77-2.86
			c-0.56-0.48-1.62-1.17-3.2-2.05c-2.28-1.28-3.66-2.27-4.14-2.98c-0.48-0.7-0.59-1.45-0.31-2.26c0.3-0.87,0.91-1.48,1.82-1.81
			c0.91-0.33,2.02-0.28,3.31,0.17c1.02,0.35,1.9,0.88,2.65,1.6c0.54,0.53,0.85,1.06,0.93,1.58c0.07,0.35-0.13,1.37-0.61,3.07
			L193.85,657.49z"/>
	</g>
</g>
<g id="Contacts">
	<path class="st0" d="M853.71,514.97l0.75,0.36c-0.17,0.9-0.28,1.81-0.34,2.71c-1.51,1.51-3.04,2.71-4.59,3.63
		c-1.55,0.91-3.41,1.7-5.59,2.37c-4.08,1.26-7.74,1.6-11,1.04c-3.26-0.56-6.04-1.91-8.36-4.04c-2.32-2.13-3.99-4.88-5.03-8.24
		c-1.49-4.84-0.99-9.33,1.49-13.47c2.48-4.14,6.74-7.15,12.77-9c2.01-0.62,4.05-1.05,6.13-1.3c2.08-0.25,4.2-0.3,6.37-0.17l0.27,0.3
		c-0.03,0.93,0.02,1.8,0.15,2.61c0.21,1.42,0.57,3.14,1.08,5.19l-1.96,0.6c-0.85-2.43-1.36-3.75-1.53-3.96
		c-0.17-0.21-0.72-0.49-1.66-0.84c-0.94-0.35-2.12-0.51-3.53-0.47c-1.41,0.03-2.9,0.29-4.47,0.77c-3.73,1.15-6.34,3.21-7.83,6.19
		c-1.49,2.98-1.6,6.52-0.34,10.63c1.37,4.45,3.8,7.64,7.29,9.58c3.23,1.8,6.97,2.04,11.24,0.73c1.65-0.51,3.14-1.15,4.47-1.94
		S852.23,516.36,853.71,514.97z"/>
	<path class="st0" d="M855.82,507.72c-1.14-3.69-1.13-6.73,0.03-9.11c1.39-2.83,4.04-4.85,7.95-6.05c3.89-1.2,7-1.19,9.33,0.02
		c2.33,1.21,4.08,3.71,5.25,7.51c1.2,3.91,1.1,7.24-0.31,9.99c-1.41,2.75-3.95,4.7-7.62,5.83c-3.61,1.11-6.66,0.97-9.15-0.43
		C858.8,514.07,856.98,511.49,855.82,507.72z M861.79,504.13c1.28,4.15,2.72,6.94,4.32,8.38c1.24,1.1,2.69,1.4,4.34,0.89
		c1.45-0.45,2.38-1.37,2.82-2.76c0.43-1.39,0.18-3.61-0.76-6.65c-1.29-4.18-2.66-6.92-4.12-8.23c-1.19-1.03-2.62-1.29-4.3-0.78
		c-1.45,0.45-2.41,1.38-2.88,2.81S860.92,501.32,861.79,504.13z"/>
	<path class="st0" d="M885.22,510.81l-0.59-1.91c1.67-0.62,2.58-1.05,2.74-1.29c0.16-0.25,0.17-0.69,0.03-1.33
		c-0.39-1.6-1.2-4.39-2.42-8.36c-0.6-1.96-1.16-3.64-1.65-5.04c-0.3-0.87-0.52-1.36-0.66-1.49c-0.12-0.1-0.27-0.16-0.46-0.17
		c-0.19-0.01-1.13,0.22-2.81,0.69l-0.55-1.8c0.84-0.26,2.1-0.84,3.77-1.76c1.67-0.91,3.05-1.79,4.12-2.64l0.57-0.41
		c0.22-0.07,0.38,0.08,0.49,0.44l0.04,0.22c0.09,0.45,0.41,1.58,0.96,3.38l2.68-4.15c0.33-0.53,0.71-0.94,1.15-1.22
		c0.63-0.4,1.43-0.75,2.41-1.05c1.65-0.51,3.08-0.64,4.3-0.39c1.22,0.25,2.23,0.8,3.03,1.65c0.8,0.85,1.52,2.34,2.18,4.46
		c0.29,0.93,0.6,2.03,0.93,3.27c0.7,2.55,1.33,4.74,1.9,6.58c0.32,1.04,0.63,1.74,0.93,2.1c0.21,0.24,0.44,0.38,0.7,0.4
		c0.25,0.03,1.14-0.12,2.66-0.44l0.59,1.91l-2.9,0.79l-1.86,0.52l-4.76,1.62l-0.35-0.22c-0.51-3.08-1.24-6.18-2.2-9.3
		c-1.22-3.96-2.21-6.32-2.97-7.09c-0.99-0.99-2.3-1.23-3.95-0.73c-1.06,0.32-1.89,0.88-2.5,1.65c-0.61,0.78-0.94,1.51-0.99,2.19
		c-0.03,0.29,0.16,1.09,0.56,2.41c1.74,5.65,2.76,8.87,3.06,9.68c0.3,0.81,0.59,1.27,0.86,1.39c0.35,0.15,1.44-0.01,3.28-0.47
		l0.59,1.91c-2.74,0.74-5.04,1.4-6.9,1.97C890.12,509.15,888.12,509.82,885.22,510.81z"/>
	<path class="st0" d="M907.85,483.31l2.48-2.99c-0.88-2.74-1.7-5.13-2.46-7.16c1.92-1.31,3.69-2.72,5.29-4.23l0.87,0.32
		c0.35,2.36,1.05,5.46,2.09,9.29c0.75-0.09,1.48-0.25,2.18-0.47c1.59-0.49,2.98-1.04,4.17-1.64l0.25,0.08l0.05,0.9
		c0.04,0.94,0.11,1.8,0.23,2.56c-1.86,0.44-3.21,0.79-4.07,1.05c-0.64,0.2-1.25,0.42-1.84,0.67c0.45,1.58,0.86,2.97,1.23,4.17
		c1.61,5.24,2.68,8.16,3.21,8.79c0.53,0.62,1.38,0.75,2.55,0.39c0.34-0.1,0.7-0.26,1.07-0.46c0.37-0.2,0.76-0.44,1.17-0.72
		l0.67,0.77c-0.61,1.33-1.19,2.69-1.73,4.08c-0.55,0.27-1.05,0.5-1.52,0.7s-0.9,0.36-1.31,0.48c-1.31,0.4-2.47,0.51-3.49,0.33
		c-1.02-0.18-1.83-0.57-2.45-1.16c-0.62-0.59-1.14-1.6-1.58-3.02c-0.23-0.75-0.79-2.72-1.7-5.92c-0.78-2.81-1.42-5.03-1.92-6.65
		l-1.2,0.32c-0.5,0.15-1.12,0.4-1.87,0.73L907.85,483.31z"/>
	<path class="st0" d="M951.25,488.39l0.59,1.91l-1.82,0.48c-0.97,0.25-1.92,0.52-2.88,0.81c-1.47,0.45-2.84,0.93-4.12,1.42
		l-0.31-0.18l-0.75-3.27l-3.75,5.14c-0.81,0.47-1.55,0.81-2.21,1.01c-1.65,0.51-3.07,0.41-4.27-0.29c-1.2-0.7-2.09-1.99-2.67-3.88
		c-0.71-2.32-0.6-4.14,0.33-5.47c1.2-1.73,4.36-3.92,9.48-6.57c-0.6-1.83-1.33-3.07-2.19-3.71c-1.2-0.88-2.7-1.04-4.48-0.49
		c-0.42,0.13-0.83,0.31-1.25,0.55c-0.41,0.24-0.81,0.54-1.19,0.89l-0.28,2.82l-1.73,0.1l-0.28-1.06l-0.34-1.02l-0.31-0.93
		c1.92-2.21,3.35-3.66,4.28-4.36c0.68-0.51,1.69-0.98,3.04-1.4c1.83-0.57,3.41-0.75,4.74-0.55c1.32,0.2,2.39,0.69,3.21,1.48
		c0.82,0.79,1.51,2.09,2.08,3.92c0.23,0.76,0.62,2.14,1.17,4.12c0.56,2.05,1.03,3.68,1.41,4.92c0.6,1.95,1.02,3.12,1.26,3.5
		c0.14,0.23,0.35,0.38,0.63,0.44C948.92,488.8,949.79,488.69,951.25,488.39z M939.48,481.52c-2.55,1.43-4.12,2.62-4.73,3.57
		c-0.61,0.95-0.73,2-0.37,3.17c0.29,0.95,0.79,1.62,1.48,2.01c0.7,0.38,1.45,0.45,2.25,0.2c1.22-0.38,2.27-1.46,3.13-3.24
		L939.48,481.52z"/>
	<path class="st0" d="M966.85,470.03l-1.91,0.59c-0.68-1.82-1.14-2.84-1.38-3.07c-0.34-0.37-0.92-0.63-1.74-0.77
		c-0.82-0.14-1.77-0.04-2.84,0.29c-1.65,0.51-2.71,1.35-3.18,2.53c-0.47,1.18-0.32,2.99,0.43,5.44c0.96,3.11,2.4,5.29,4.34,6.54
		c1.94,1.26,4.02,1.54,6.24,0.86c0.81-0.25,1.53-0.55,2.16-0.9c0.63-0.35,1.19-0.74,1.67-1.18l0.55,0.39
		c-0.11,0.85-0.2,1.69-0.26,2.54c-0.87,0.83-1.8,1.53-2.79,2.11c-0.99,0.58-2.03,1.04-3.12,1.38c-3.39,1.04-6.32,0.92-8.79-0.38
		c-2.47-1.29-4.23-3.67-5.3-7.13c-0.39-1.28-0.63-2.47-0.69-3.58c-0.07-1.11,0-2.1,0.2-2.95c0.2-0.86,0.5-1.59,0.87-2.2
		c0.23-0.35,1.31-1.62,3.21-3.83c1.12-1.3,1.96-2.14,2.53-2.54c0.57-0.4,1.38-0.76,2.44-1.08c0.93-0.29,1.87-0.5,2.79-0.63
		c0.93-0.13,1.86-0.19,2.78-0.17l0.53,0.3C965.85,465.36,966.26,467.84,966.85,470.03z"/>
	<path class="st0" d="M968.86,464.53l2.48-2.99c-0.88-2.74-1.7-5.13-2.46-7.16c1.92-1.31,3.68-2.72,5.29-4.23l0.87,0.32
		c0.35,2.36,1.05,5.46,2.09,9.29c0.75-0.09,1.48-0.25,2.18-0.47c1.59-0.49,2.98-1.04,4.17-1.64l0.25,0.08l0.05,0.9
		c0.04,0.94,0.11,1.8,0.23,2.56c-1.86,0.44-3.22,0.79-4.07,1.05c-0.64,0.2-1.25,0.42-1.84,0.67c0.45,1.58,0.87,2.97,1.23,4.17
		c1.61,5.24,2.68,8.16,3.21,8.79s1.38,0.75,2.55,0.39c0.34-0.11,0.7-0.26,1.07-0.46c0.37-0.2,0.76-0.44,1.17-0.72l0.67,0.77
		c-0.61,1.33-1.19,2.69-1.73,4.08c-0.55,0.27-1.05,0.5-1.52,0.7s-0.9,0.36-1.31,0.48c-1.31,0.4-2.47,0.51-3.49,0.33
		c-1.02-0.18-1.84-0.57-2.45-1.16c-0.62-0.59-1.14-1.6-1.58-3.02c-0.23-0.75-0.8-2.72-1.7-5.92c-0.78-2.81-1.42-5.03-1.92-6.65
		l-1.2,0.32c-0.5,0.15-1.12,0.4-1.87,0.73L968.86,464.53z"/>
</g>
<g id="Side_Projects">
	<g>
		<path class="st0" d="M763.76,104.71c-0.27-1.51-1.01-2.86-2.24-4.04c-0.74-0.72-2.29-1.78-4.65-3.16
			c-2.58-1.55-4.23-2.67-4.93-3.34c-0.7-0.68-1.14-1.47-1.32-2.38c-0.18-0.91-0.07-1.84,0.32-2.8c0.64-1.58,1.73-2.65,3.28-3.19
			c1.54-0.54,3.35-0.4,5.42,0.44c1.51,0.61,2.74,1.42,3.69,2.45c0.95,1.02,1.46,1.84,1.55,2.45c0.04,0.35-0.38,1.7-1.24,4.04
			l1.95,0.79c0.84-1.86,1.46-3.15,1.87-3.88c0.41-0.73,0.93-1.52,1.55-2.38L769,89.07c-1.1-1.13-2.27-2.09-3.5-2.89
			c-1.23-0.79-2.71-1.54-4.42-2.23c-4.39-1.77-7.98-2.07-10.77-0.91s-4.76,3.17-5.91,6c-0.68,1.69-0.91,3.29-0.68,4.78
			c0.23,1.5,0.84,2.8,1.85,3.91c1,1.11,3.18,2.64,6.53,4.59c2.26,1.32,3.65,2.56,4.18,3.74c0.51,1.17,0.45,2.53-0.17,4.08
			c-0.68,1.69-1.89,2.84-3.62,3.46c-1.73,0.62-3.66,0.49-5.79-0.37c-1.24-0.5-2.37-1.18-3.39-2.05c-1.02-0.87-1.77-1.76-2.26-2.69
			c-0.49-0.92-0.72-1.6-0.69-2.04c0.03-0.44,0.48-1.77,1.37-4.01l-1.99-0.8c-0.83,2.01-1.55,3.59-2.15,4.74
			c-0.44,0.82-1,1.71-1.7,2.65c1.31,1.49,2.66,2.73,4.06,3.71s3.03,1.86,4.92,2.62c4.24,1.71,8.01,2,11.31,0.87
			c3.3-1.13,5.6-3.3,6.89-6.5C763.79,107.89,764.03,106.22,763.76,104.71z"/>
		<path class="st0" d="M775.21,116.67c2.23-5.52,4.04-9.68,5.43-12.48l-0.38-0.68c-2.77,0.07-6.03-0.49-9.77-1.68l-0.7,1.74
			l1.67,0.75c0.82,0.37,1.28,0.69,1.39,0.97c0.11,0.28-0.02,0.86-0.37,1.74l-1,2.68c-0.44,1.21-0.94,2.52-1.51,3.93
			c-1.31,3.25-2.22,5.33-2.73,6.23c-0.36,0.67-0.7,1.02-1.02,1.06s-1.35-0.25-3.08-0.88l-0.75,1.86c3.53,1.32,5.69,2.14,6.48,2.46
			c1.49,0.6,3.58,1.5,6.26,2.69l0.75-1.86c-1.71-0.85-2.65-1.38-2.79-1.6c-0.15-0.22-0.16-0.58-0.05-1.08
			C773.19,121.81,773.92,119.86,775.21,116.67z"/>
		<path class="st0" d="M779.07,98.63c0.98,0.4,1.95,0.39,2.92-0.02c0.96-0.41,1.64-1.1,2.03-2.06c0.4-0.98,0.39-1.95-0.02-2.92
			s-1.1-1.64-2.06-2.03c-0.98-0.4-1.95-0.39-2.92,0.02c-0.96,0.41-1.64,1.11-2.04,2.09c-0.39,0.97-0.38,1.93,0.03,2.9
			C777.41,97.56,778.1,98.24,779.07,98.63z"/>
		<path class="st0" d="M801.89,135.18c-0.17-0.25-0.2-0.6-0.1-1.03c0.16-0.69,0.84-2.53,2.04-5.5l7.33-17.72
			c0.91-2.16,1.92-4.43,3.05-6.81l-0.37-0.78c-2.86,0.07-6.17-0.42-9.91-1.47l-0.66,1.63c1.8,0.78,2.78,1.27,2.95,1.47
			s0.24,0.46,0.2,0.78c-0.05,0.43-0.57,1.86-1.55,4.29l-1.58,3.91c-0.68-0.66-1.37-1.23-2.08-1.7c-0.71-0.47-1.43-0.85-2.17-1.15
			c-1.03-0.41-2.04-0.63-3.05-0.64c-1.01-0.01-2.72,0.26-5.13,0.81c-1.78,0.41-3.02,0.83-3.73,1.26c-0.71,0.43-1.48,1.2-2.32,2.29
			c-0.84,1.09-1.56,2.4-2.17,3.91c-1.25,3.1-1.42,5.92-0.5,8.45c0.91,2.54,2.63,4.31,5.13,5.33c0.75,0.3,1.63,0.47,2.61,0.5
			c3-0.96,5.17-1.62,6.51-1.98c-0.46,0.9-1.09,2.08-1.9,3.53l0.28,0.43c1.14,0.36,2.35,0.79,3.62,1.3c1.75,0.71,3.54,1.48,5.35,2.32
			l0.75-1.86C802.93,135.96,802.06,135.44,801.89,135.18z M799.81,122.57c-1.37,3.39-2.23,5.3-2.6,5.75
			c-0.37,0.45-1.13,0.8-2.29,1.05c-1.16,0.25-2.28,0.16-3.35-0.27c-1.58-0.64-2.62-1.83-3.1-3.57c-0.48-1.74-0.18-3.96,0.91-6.65
			c1.06-2.62,2.22-4.31,3.5-5.09c1.28-0.78,2.7-0.85,4.25-0.22c1.1,0.44,2,1.1,2.71,1.96c0.7,0.86,1.21,1.95,1.51,3.25
			L799.81,122.57z"/>
		<path class="st0" d="M826.46,122.16c-1.61-0.65-3.24-0.9-4.87-0.75c-1.63,0.15-3.12,0.4-4.46,0.75c-1.35,0.35-2.48,1.02-3.4,2
			c-1.14,1.21-2.15,2.91-3.03,5.1c-1.4,3.46-1.53,6.53-0.41,9.2c1.12,2.68,3.33,4.68,6.62,6.01c1.4,0.57,2.8,0.93,4.18,1.1
			s2.75,0.13,4.11-0.11l1.89-1.76l-0.39-0.92c-1.03,0.15-2.01,0.18-2.96,0.09c-0.95-0.09-1.85-0.31-2.71-0.66
			c-2.05-0.83-3.48-2.17-4.28-4.02c-0.8-1.85-0.78-4.13,0.04-6.82l4.9,1.98c2.17,0.88,3.84,1.51,5.02,1.89l3.98,0.82
			c0.37-0.75,0.63-1.31,0.79-1.69c1.24-3.07,1.33-5.62,0.27-7.66C830.71,124.67,828.94,123.16,826.46,122.16z M825.92,131.01
			l-0.45,1.06c-1.36-0.41-2.64-0.85-3.83-1.34c-1.36-0.55-2.69-1.16-4-1.83c0.97-1.97,1.75-3.26,2.33-3.87s1.25-1,2-1.16
			c0.75-0.16,1.53-0.08,2.35,0.25c1.16,0.47,1.91,1.27,2.24,2.4S826.67,129.15,825.92,131.01z"/>
		<path class="st0" d="M877.14,139.39c0.63-1.55,0.81-2.98,0.56-4.29c-0.25-1.31-0.92-2.48-2.01-3.51
			c-1.08-1.03-2.98-2.09-5.68-3.18c-0.72-0.29-1.87-0.73-3.42-1.31c-2.88-1.09-4.96-1.89-6.24-2.41c-0.94-0.38-2.19-0.91-3.75-1.59
			l-2.52-1.12l-0.77,1.9l1.27,0.64c1.06,0.51,1.64,0.94,1.77,1.27c0.12,0.33-0.19,1.55-0.92,3.66c-0.74,2.11-2.08,5.57-4.02,10.38
			c-1.04,2.58-2.15,5.23-3.33,7.95s-1.92,4.24-2.22,4.55c-0.18,0.19-0.38,0.29-0.6,0.31c-0.3,0.05-1.38-0.21-3.23-0.8l-0.77,1.9
			c4.75,1.79,7.54,2.86,8.35,3.19c1.83,0.74,4.05,1.7,6.68,2.88l0.77-1.9c-2.18-1.04-3.4-1.71-3.67-2.01
			c-0.17-0.19-0.24-0.43-0.21-0.72c0.03-0.39,0.5-1.75,1.38-4.07c2.23-5.89,3.57-9.37,4.01-10.46c1.3-3.23,2.97-7.13,4.99-11.72
			c1.15,0.2,2.12,0.46,2.91,0.78c1.94,0.78,3.2,1.89,3.78,3.33c0.58,1.44,0.45,3.21-0.4,5.3c-0.76,1.89-1.84,3.16-3.23,3.82
			c-1.39,0.66-2.85,0.68-4.37,0.07c-0.23-0.09-0.47-0.21-0.73-0.37c-0.26-0.15-0.55-0.33-0.85-0.53l-0.75,0.35
			c0.08,0.62,0.14,1.26,0.18,1.9c0.46,0.31,0.89,0.58,1.3,0.81c0.41,0.24,0.82,0.43,1.21,0.59c3.06,1.24,5.97,1.31,8.72,0.23
			C874.07,144.13,876.01,142.19,877.14,139.39z"/>
		<path class="st0" d="M894.06,149.73c-0.43-0.37-0.89-0.65-1.37-0.84c-0.86-0.35-1.6-0.5-2.22-0.45c-0.62,0.05-1.44,0.36-2.48,0.92
			c-1.39,0.75-2.62,1.35-3.69,1.77c0.72-1.78,1.29-3.14,1.73-4.07l0.15-0.31c0.12-0.29,0.07-0.47-0.14-0.56l-2.68-0.07
			c-1.48-0.1-3.8-0.62-6.96-1.56l-0.7,1.74c1.68,0.75,2.6,1.25,2.76,1.5c0.16,0.25,0.19,0.57,0.08,0.97
			c-0.17,0.69-0.96,2.77-2.37,6.27c-0.73,1.81-1.57,3.81-2.53,5.99c-0.53,1.23-0.95,1.99-1.26,2.28c-0.19,0.15-0.39,0.24-0.6,0.26
			c-0.27,0.01-1.18-0.25-2.74-0.79l-0.75,1.86l2.59,0.96c1.5,0.55,2.8,1.05,3.92,1.5c1.18,0.48,2.56,1.06,4.16,1.76l2.51,1.09
			l0.75-1.86c-1.9-0.87-2.97-1.49-3.23-1.86c-0.17-0.24-0.19-0.59-0.08-1.04c0.15-0.68,1-2.93,2.55-6.76
			c1.06-2.63,1.75-4.16,2.05-4.56c0.43-0.53,1.06-0.9,1.9-1.11c0.84-0.21,1.71-0.13,2.62,0.24c0.66,0.27,1.16,0.6,1.48,1.01
			s0.54,0.97,0.64,1.7l1.17,0.05C892.39,153.2,893.31,151.18,894.06,149.73z"/>
		<path class="st0" d="M914.38,170.03c1.49-3.69,1.71-6.73,0.66-9.14c-1.05-2.41-3.46-4.37-7.23-5.9c-3.79-1.53-7.12-1.63-9.98-0.31
			c-2.4,1.12-4.32,3.47-5.77,7.05c-1.48,3.66-1.69,6.81-0.64,9.47s3.33,4.69,6.83,6.1c3.56,1.44,6.76,1.53,9.59,0.29
			C910.66,176.34,912.84,173.82,914.38,170.03z M903.75,174.99c-1.21,0.81-2.52,0.93-3.93,0.37c-1.6-0.65-2.53-1.79-2.8-3.43
			c-0.34-2.13,0.31-5.2,1.93-9.22c1.1-2.72,2.28-4.49,3.55-5.3c1.26-0.81,2.6-0.93,4-0.36c1.63,0.66,2.58,1.76,2.85,3.31
			c0.31,1.94-0.36,4.93-2,8.99C906.17,172.29,904.96,174.18,903.75,174.99z"/>
		<path class="st0" d="M929.78,159.46c0.98,0.4,1.95,0.39,2.92-0.02c0.96-0.41,1.64-1.1,2.03-2.06c0.4-0.98,0.39-1.95-0.02-2.92
			s-1.1-1.64-2.06-2.03c-0.98-0.4-1.96-0.38-2.92,0.03c-0.97,0.42-1.65,1.11-2.04,2.08s-0.38,1.93,0.03,2.89
			C928.12,158.39,928.81,159.07,929.78,159.46z"/>
		<path class="st0" d="M928.69,164.19c-2.1-0.23-4.68-0.77-7.74-1.63l-0.7,1.74c1.73,0.79,2.68,1.25,2.85,1.39s0.26,0.31,0.28,0.51
			c0.01,0.36-0.24,1.23-0.76,2.61c-1.16,3.09-2.29,5.99-3.38,8.69c-2.35,5.82-4.03,9.69-5.05,11.6c-1.02,1.91-2.04,3.12-3.07,3.62
			c-0.77,0.38-1.48,0.43-2.14,0.16c-0.21-0.08-0.61-0.28-1.19-0.58l-0.32,0.08l-0.14,1.92c0.56,0.3,1.01,0.51,1.34,0.65
			c1.3,0.52,2.82,0.58,4.57,0.16c1.75-0.42,3.36-1.34,4.83-2.76c1.47-1.42,2.8-3.36,3.98-5.82c0.48-0.97,1.71-3.9,3.69-8.81
			c1.95-4.79,3.73-8.89,5.33-12.28l0.26-0.58c0.08-0.21,0.03-0.36-0.17-0.43L928.69,164.19z"/>
		<path class="st0" d="M954.13,176.1c-1.06-2.04-2.82-3.55-5.3-4.55c-1.61-0.65-3.24-0.9-4.87-0.75c-1.63,0.15-3.12,0.4-4.46,0.75
			c-1.35,0.35-2.48,1.02-3.4,2c-1.14,1.21-2.15,2.91-3.03,5.1c-1.4,3.46-1.53,6.53-0.41,9.2c1.12,2.68,3.33,4.68,6.62,6.01
			c1.4,0.57,2.8,0.93,4.18,1.1c1.38,0.17,2.75,0.13,4.11-0.11l1.89-1.76l-0.39-0.92c-1.03,0.15-2.01,0.18-2.96,0.09
			c-0.95-0.09-1.85-0.31-2.71-0.66c-2.05-0.83-3.48-2.17-4.28-4.02c-0.8-1.85-0.78-4.13,0.04-6.82l4.9,1.98
			c2.17,0.88,3.84,1.51,5.02,1.89l3.98,0.82c0.37-0.75,0.63-1.31,0.79-1.69C955.09,180.69,955.18,178.14,954.13,176.1z
			 M948.28,180.41l-0.45,1.06c-1.36-0.41-2.64-0.85-3.83-1.34c-1.36-0.55-2.69-1.16-4-1.83c0.97-1.97,1.75-3.26,2.33-3.87
			c0.58-0.61,1.25-1,2-1.16c0.75-0.16,1.53-0.08,2.35,0.25c1.16,0.47,1.91,1.27,2.24,2.4S949.04,178.54,948.28,180.41z"/>
		<path class="st0" d="M977.19,183.94c-0.71-0.6-1.46-1.14-2.27-1.63c-0.81-0.48-1.66-0.91-2.57-1.27c-1.03-0.41-1.88-0.64-2.58-0.7
			c-0.69-0.05-1.88,0.08-3.56,0.38c-2.87,0.51-4.51,0.82-4.91,0.94c-0.67,0.24-1.36,0.62-2.06,1.16c-0.7,0.54-1.37,1.26-2.02,2.16
			c-0.65,0.91-1.22,1.98-1.72,3.22c-1.35,3.35-1.48,6.31-0.38,8.87c1.1,2.56,3.29,4.51,6.59,5.83c1.06,0.43,2.15,0.72,3.29,0.89
			c1.13,0.17,2.3,0.21,3.5,0.12c0.58-0.62,1.18-1.22,1.8-1.81l-0.18-0.65c-0.65,0.04-1.33-0.01-2.04-0.14
			c-0.71-0.13-1.46-0.35-2.25-0.67c-2.16-0.87-3.59-2.41-4.3-4.6c-0.71-2.2-0.46-4.8,0.76-7.81c0.96-2.38,1.99-3.88,3.09-4.5
			c1.1-0.62,2.46-0.6,4.06,0.04c1.04,0.42,1.84,0.95,2.39,1.57c0.55,0.63,0.83,1.19,0.86,1.69c0.04,0.33-0.25,1.42-0.87,3.26
			l1.86,0.75c0.92-2.07,2.16-4.25,3.72-6.55L977.19,183.94z"/>
		<path class="st0" d="M986.9,192.63c0.61,0.18,1.23,0.39,1.85,0.64c0.83,0.33,2.1,0.92,3.82,1.75c0.39-0.67,0.87-1.38,1.44-2.13
			l0.53-0.73l-0.15-0.22c-1.31-0.28-2.73-0.73-4.27-1.35c-0.68-0.27-1.34-0.61-1.99-1.01c1.61-3.63,3.02-6.48,4.23-8.53l-0.47-0.79
			c-2.2,0.17-4.46,0.15-6.77-0.05c-0.69,2.05-1.56,4.42-2.61,7.11l-3.81,0.75l-0.48,1.18c0.79,0.21,1.43,0.42,1.91,0.61l1.14,0.51
			c-0.63,1.57-1.54,3.69-2.7,6.37c-1.32,3.05-2.13,4.94-2.42,5.67c-0.56,1.38-0.78,2.49-0.68,3.34c0.1,0.85,0.49,1.67,1.17,2.45
			c0.68,0.78,1.65,1.43,2.92,1.94c0.39,0.16,0.83,0.31,1.32,0.45c0.49,0.14,1.03,0.28,1.62,0.42c1.3-0.74,2.61-1.43,3.92-2.08
			l-0.04-1.02c-0.49-0.04-0.95-0.1-1.36-0.18c-0.42-0.08-0.79-0.19-1.12-0.32c-1.13-0.46-1.71-1.09-1.73-1.91
			c-0.02-0.82,0.99-3.76,3.04-8.84C985.69,195.48,986.25,194.14,986.9,192.63z"/>
		<path class="st0" d="M1009.36,203.9c1.12-2.56,2.02-4.42,2.72-5.56c-1.62-1.5-3.55-2.7-5.78-3.6c-2.14-0.86-3.99-1.25-5.54-1.17
			c-1.55,0.09-2.89,0.52-4.02,1.32s-1.97,1.88-2.53,3.27c-0.48,1.18-0.65,2.28-0.52,3.32c0.13,1.04,0.5,1.93,1.12,2.68
			c0.62,0.75,2.13,1.94,4.52,3.58c1.58,1.08,2.54,1.97,2.87,2.68c0.32,0.72,0.31,1.51-0.04,2.37c-0.41,1.01-1.1,1.67-2.07,1.98
			c-0.98,0.31-2.2,0.17-3.68-0.42c-1.21-0.49-2.17-1.15-2.89-1.98c-0.72-0.84-1.12-1.63-1.21-2.38c-0.03-0.28,0.31-1.4,1.02-3.38
			l-1.92-0.78c-1.18,2.8-2.13,4.82-2.84,6.06l0.19,0.52c1.13,0.93,2.21,1.72,3.22,2.37c1.02,0.65,1.98,1.16,2.88,1.53
			c2.73,1.1,5.35,1.37,7.88,0.81c2.52-0.56,4.3-2.12,5.33-4.68c0.54-1.33,0.7-2.54,0.5-3.63c-0.2-1.09-0.74-2.08-1.61-2.96
			c-0.53-0.51-1.56-1.25-3.08-2.22c-2.21-1.4-3.53-2.47-3.97-3.2c-0.45-0.72-0.51-1.48-0.19-2.28c0.35-0.86,0.98-1.43,1.91-1.71
			c0.93-0.28,2.03-0.17,3.3,0.35c1,0.4,1.85,0.98,2.56,1.74c0.51,0.56,0.79,1.1,0.84,1.63c0.05,0.35-0.21,1.36-0.78,3.03
			L1009.36,203.9z"/>
	</g>
</g>
<g id="CAD">
	<g>
		<path class="st0" d="M510.02,658.19c-0.17-0.1-0.3-0.25-0.39-0.45c-0.13-0.34-0.22-1.8-0.27-4.37c-0.05-2.58-0.07-5.02-0.07-7.34
			c0-4.59,0.04-7.71,0.13-9.35c0.06-1,0.21-1.6,0.43-1.8c0.22-0.2,1.18-0.35,2.89-0.45l0-1.64c-1.53,0.07-3.12,0.1-4.77,0.1
			c-1.4,0-2.88-0.03-4.44-0.1c-1.77,4.2-4.87,10.76-9.3,19.66c-4.2-8.66-6.56-13.58-7.1-14.73c-0.76-1.63-1.49-3.27-2.19-4.92
			c-1.63,0.04-3.32,0.06-5.07,0.06c-1.51,0-3.05-0.02-4.62-0.06l0,1.64c1.64,0.12,2.57,0.23,2.77,0.33c0.21,0.1,0.35,0.24,0.43,0.41
			c0.16,0.34,0.24,1.28,0.26,2.81c0.02,2.54,0.03,4.8,0.03,6.79c0,3.75-0.04,7.23-0.13,10.44c-0.04,1.58-0.18,2.5-0.42,2.77
			c-0.24,0.27-0.83,0.44-1.78,0.49l-1.16,0.08l0,1.64c1.55-0.09,3.31-0.14,5.28-0.14c1.33,0,2.65,0.04,3.98,0.14l0-1.64
			c-1.68-0.08-2.65-0.25-2.91-0.51c-0.26-0.26-0.41-0.95-0.45-2.07c-0.07-2.77-0.1-7.83-0.1-15.16l0-2.65l6.77,13.89
			c1.64,3.43,2.96,6.26,3.93,8.5l1.28,0c0.72-1.69,1.71-3.88,2.99-6.56c3.11-6.53,5.67-11.8,7.68-15.83l0,11.79
			c0,3.41-0.03,5.57-0.09,6.49c-0.07,0.92-0.21,1.48-0.44,1.7c-0.23,0.21-0.8,0.34-1.71,0.38l-1.15,0.04l0,1.64
			c2.86-0.09,5.13-0.14,6.8-0.14c1.65,0,3.54,0.04,5.64,0.13l0-1.64C511.1,658.42,510.19,658.3,510.02,658.19z"/>
		<path class="st0" d="M531.87,641.71c-0.43,0-1.3-0.02-2.62-0.06l-1.23-0.05l0.01,1.6c1.17,0.05,1.87,0.13,2.1,0.24
			c0.23,0.11,0.34,0.3,0.34,0.57c0,0.59-0.8,2.79-2.42,6.61l-1.8,4.26l-2.15-5.38c-1.29-3.21-1.93-5.01-1.94-5.4
			c0-0.29,0.11-0.49,0.34-0.62c0.23-0.12,0.95-0.22,2.16-0.27l-0.01-1.6c-2.11,0.09-3.74,0.13-4.9,0.14c-0.83,0-2.75-0.03-5.74-0.09
			l0.01,1.6c1.08,0.07,1.74,0.19,1.98,0.33c0.24,0.15,0.47,0.46,0.68,0.94l2.43,5.92l4.4,11.03c-1.17,2.68-2.04,4.31-2.6,4.87
			c-0.56,0.56-1.27,0.84-2.13,0.85c-1.02,0-1.91-0.42-2.68-1.26l-0.53,0.18c-0.14,1.22-0.36,2.47-0.67,3.76
			c0.99,0.44,1.93,0.65,2.82,0.65c0.89,0,1.69-0.16,2.4-0.47c0.71-0.31,1.37-0.78,1.98-1.41c0.6-0.63,1.29-1.74,2.05-3.32l3.35-7.7
			l3.6-8.33c1.42-3.31,2.23-5.11,2.44-5.4c0.13-0.19,0.28-0.34,0.45-0.43c0.4-0.2,0.92-0.3,1.56-0.3l-0.01-1.6
			C533.57,641.67,532.34,641.71,531.87,641.71z"/>
		<path class="st0" d="M564,634.69c1.31,0,2.51,0.15,3.6,0.46c1.09,0.31,1.95,0.7,2.58,1.19c0.64,0.49,1,0.83,1.07,1.03
			c0.08,0.2,0.16,1.33,0.24,3.39l1.64,0c0.09-1.68,0.22-3.09,0.4-4.22c0.09-0.65,0.26-1.33,0.5-2.03l-0.14-0.29
			c-1.63-0.61-3.27-1.07-4.91-1.37c-1.65-0.3-3.31-0.45-4.99-0.45c-5.05,0-9.01,1.3-11.88,3.88c-2.87,2.59-4.3,5.9-4.3,9.95
			c0,2.81,0.64,5.31,1.91,7.48c1.27,2.17,3.08,3.86,5.44,5.06c2.36,1.2,5.24,1.79,8.65,1.79c1.82,0,3.43-0.17,4.83-0.5
			c1.4-0.33,2.85-0.9,4.36-1.69c0.26-0.68,0.56-1.34,0.9-1.99l-0.49-0.45c-1.46,0.72-2.79,1.22-3.99,1.51
			c-1.2,0.29-2.5,0.43-3.88,0.43c-3.57,0-6.37-1.06-8.42-3.2c-2.21-2.3-3.32-5.32-3.32-9.04c0-3.44,0.92-6.12,2.76-8.05
			C558.4,635.66,560.88,634.69,564,634.69z"/>
		<path class="st0" d="M603.33,657.87c-0.27-0.25-0.97-1.7-2.12-4.35l-8.84-20.97l-2.87,0l-6.91,16.94
			c-1.24,3.01-2.25,5.36-3.04,7.05c-0.42,0.86-0.72,1.35-0.92,1.48c-0.29,0.18-1.04,0.31-2.27,0.37l0,1.78
			c1.07-0.09,2.5-0.14,4.31-0.14c1.9,0,3.49,0.04,4.76,0.13l0-1.78c-1.57-0.13-2.49-0.25-2.74-0.37c-0.25-0.12-0.38-0.33-0.38-0.62
			c0-0.22,0.04-0.46,0.12-0.72c0.34-1.18,0.62-2.07,0.86-2.67l0.86-2.19c1.42-0.04,3-0.06,4.73-0.06c1.99,0,3.8,0.02,5.42,0.06
			l1.29,3.26c0.55,1.41,0.82,2.24,0.82,2.48c0,0.28-0.12,0.47-0.36,0.58c-0.24,0.11-1.14,0.19-2.68,0.26l0,1.78
			c2.03-0.09,4.17-0.14,6.42-0.14c1.89,0,3.89,0.04,6.01,0.13l0-1.78C604.42,658.3,603.6,658.13,603.33,657.87z M589.02,649.58
			c-1.45,0-2.77-0.03-3.97-0.1l4.12-10.05l4.19,10.04C591.98,649.55,590.53,649.58,589.02,649.58z"/>
		<path class="st0" d="M632.11,634.08c-1.82-0.89-4.48-1.33-7.98-1.32l-9.63,0.1c-2.55,0-4.81-0.03-6.78-0.09l0,1.64
			c1.72,0.21,2.68,0.36,2.87,0.47c0.12,0.07,0.2,0.16,0.25,0.29c0.12,0.26,0.21,1.3,0.26,3.13s0.09,4.1,0.09,6.82
			c0,6.28-0.09,10.57-0.27,12.86c-0.38,0.26-1.02,0.65-1.91,1.17l0,1.02c2.38-0.09,4.17-0.14,5.35-0.14l7.4,0.13
			c2.72,0,5.28-0.52,7.68-1.55s4.43-2.76,6.09-5.18s2.5-5.31,2.5-8.65c0-2.6-0.54-4.82-1.6-6.64S633.93,634.96,632.11,634.08z
			 M630.63,652.69c-0.94,1.89-2.18,3.26-3.7,4.09c-1.52,0.83-3.74,1.25-6.64,1.25c-1.15,0-2.27-0.1-3.36-0.29
			c-0.11-1.87-0.16-5.37-0.16-10.49l0.15-12.17c1.99-0.13,3.39-0.2,4.2-0.2c3.75,0,6.45,0.84,8.11,2.53
			c1.88,1.9,2.81,4.66,2.82,8.29C632.05,648.47,631.58,650.79,630.63,652.69z"/>
		<path class="st0" d="M677.76,657.84c-0.27-0.25-0.97-1.7-2.12-4.35l-8.84-20.97l-2.87,0l-6.91,16.94
			c-1.24,3.01-2.25,5.36-3.04,7.05c-0.42,0.86-0.72,1.35-0.92,1.48c-0.29,0.18-1.04,0.31-2.27,0.37l0,1.78
			c1.07-0.09,2.5-0.14,4.31-0.14c1.9,0,3.49,0.04,4.76,0.13l0-1.78c-1.58-0.13-2.49-0.25-2.74-0.37c-0.25-0.12-0.38-0.33-0.38-0.62
			c0-0.22,0.04-0.46,0.12-0.72c0.34-1.18,0.62-2.07,0.86-2.67l0.86-2.19c1.42-0.04,3-0.06,4.73-0.06c2,0,3.8,0.02,5.42,0.06
			l1.29,3.26c0.55,1.41,0.82,2.24,0.82,2.48c0,0.28-0.12,0.47-0.36,0.58c-0.24,0.11-1.14,0.19-2.68,0.26l0,1.78
			c2.03-0.09,4.17-0.14,6.42-0.14c1.89,0,3.89,0.04,6.01,0.13l0-1.78C678.85,658.27,678.03,658.1,677.76,657.84z M663.45,649.55
			c-1.45,0-2.77-0.03-3.97-0.1l4.12-10.05l4.19,10.04C666.41,649.52,664.97,649.55,663.45,649.55z"/>
		<path class="st0" d="M694.1,649.15c-0.55-0.22-1.53-0.46-2.95-0.72c-2.06-0.38-3.36-0.77-3.91-1.19c-0.55-0.4-0.82-0.95-0.82-1.63
			c0-0.74,0.3-1.35,0.91-1.84c0.61-0.49,1.45-0.73,2.55-0.73c0.86,0,1.67,0.18,2.42,0.53c0.55,0.26,0.92,0.58,1.11,0.96
			c0.14,0.25,0.25,1.07,0.33,2.48l1.54,0c0.06-2.24,0.18-3.88,0.35-4.94c-1.65-0.62-3.44-0.94-5.36-0.94
			c-1.85,0-3.33,0.27-4.46,0.79c-1.12,0.53-1.99,1.25-2.58,2.18c-0.6,0.93-0.9,1.99-0.9,3.18c0,1.02,0.2,1.89,0.61,2.62
			c0.4,0.73,0.95,1.28,1.63,1.65c0.68,0.37,2.16,0.8,4.42,1.3c1.5,0.32,2.47,0.7,2.93,1.13c0.46,0.43,0.68,1.02,0.68,1.77
			c0,0.87-0.31,1.56-0.94,2.09c-0.63,0.53-1.58,0.79-2.85,0.79c-1.04,0-1.95-0.2-2.74-0.6c-0.79-0.4-1.32-0.87-1.61-1.41
			c-0.1-0.2-0.19-1.13-0.25-2.81l-1.66,0c-0.04,2.43-0.14,4.21-0.29,5.35l0.29,0.33c1.12,0.35,2.15,0.61,3.1,0.79
			c0.95,0.18,1.81,0.27,2.59,0.27c2.35,0,4.38-0.59,6.08-1.76c1.7-1.17,2.55-2.86,2.55-5.07c0-1.15-0.24-2.1-0.71-2.85
			C695.7,650.11,695.01,649.54,694.1,649.15z"/>
		<path class="st0" d="M711.85,649.14c-0.55-0.22-1.53-0.46-2.95-0.72c-2.06-0.38-3.36-0.77-3.91-1.19
			c-0.55-0.4-0.82-0.95-0.82-1.63c0-0.74,0.3-1.35,0.91-1.84c0.61-0.49,1.45-0.73,2.55-0.73c0.86,0,1.67,0.18,2.42,0.53
			c0.55,0.26,0.92,0.58,1.11,0.96c0.14,0.25,0.25,1.07,0.33,2.48l1.54,0c0.06-2.24,0.18-3.88,0.35-4.94
			c-1.65-0.62-3.44-0.94-5.36-0.94c-1.85,0-3.33,0.27-4.46,0.79c-1.12,0.53-1.99,1.25-2.58,2.18c-0.6,0.93-0.9,1.99-0.9,3.18
			c0,1.02,0.2,1.89,0.61,2.62c0.4,0.73,0.95,1.28,1.63,1.65c0.68,0.37,2.16,0.8,4.42,1.3c1.5,0.32,2.47,0.7,2.93,1.13
			c0.46,0.43,0.68,1.02,0.68,1.77c0,0.87-0.31,1.56-0.94,2.09c-0.63,0.53-1.58,0.79-2.85,0.79c-1.04,0-1.95-0.2-2.74-0.6
			c-0.79-0.4-1.32-0.87-1.61-1.41c-0.1-0.2-0.19-1.13-0.25-2.81l-1.66,0c-0.04,2.43-0.14,4.21-0.29,5.35l0.29,0.33
			c1.12,0.35,2.15,0.61,3.1,0.79c0.95,0.18,1.81,0.27,2.59,0.27c2.35,0,4.38-0.59,6.08-1.76c1.7-1.17,2.55-2.86,2.55-5.07
			c0-1.15-0.24-2.1-0.71-2.85C713.46,650.11,712.76,649.54,711.85,649.14z"/>
		<path class="st0" d="M725.87,658.16c-0.17-0.12-0.3-0.38-0.36-0.78c-0.09-0.58-0.14-2.24-0.14-4.99c0-4.76,0.09-8.39,0.29-10.88
			l-0.49-0.39c-2.03,0.88-4.62,1.44-7.75,1.68l0,1.5l1.46,0.06c0.72,0.03,1.16,0.13,1.32,0.3c0.16,0.18,0.24,0.64,0.24,1.4
			l0.06,2.29c0.04,1.03,0.06,2.15,0.06,3.36c0,2.8-0.05,4.62-0.15,5.44c-0.07,0.6-0.21,0.96-0.44,1.1
			c-0.23,0.13-1.08,0.22-2.55,0.27l0,1.6c3.01-0.08,4.86-0.12,5.55-0.12c1.28,0,3.1,0.04,5.45,0.11l0-1.6
			C726.89,658.4,726.04,658.28,725.87,658.16z"/>
		<path class="st0" d="M722.82,637.85c0.85,0,1.57-0.3,2.16-0.89s0.89-1.31,0.89-2.14c0-0.85-0.3-1.57-0.89-2.16
			s-1.31-0.89-2.14-0.89c-0.85,0-1.57,0.3-2.16,0.89c-0.59,0.59-0.89,1.31-0.89,2.16c0,0.83,0.3,1.55,0.89,2.14
			C721.28,637.56,721.99,637.85,722.82,637.85z"/>
		<path class="st0" d="M752.1,642.91l-0.33-0.4c-0.87,0.09-2.74,0.13-5.61,0.12c-0.77-0.53-1.53-0.9-2.3-1.11
			c-1.04-0.27-2.24-0.41-3.6-0.41c-2.77,0-4.91,0.64-6.45,1.93c-1.53,1.28-2.3,2.92-2.3,4.91c0,1.38,0.33,2.53,0.99,3.44
			c0.66,0.91,1.74,1.63,3.23,2.17c-0.66,0.56-1.37,1.08-2.11,1.56l-0.64,0.41c-0.51,1-0.76,1.85-0.76,2.54
			c0,0.64,0.18,1.13,0.53,1.47c0.35,0.34,1.05,0.62,2.11,0.83l-1.41,0.8c-1.22,0.7-1.94,1.2-2.15,1.49
			c-0.46,0.63-0.68,1.41-0.68,2.34c0,1.63,0.74,2.96,2.21,4.01c1.47,1.05,3.7,1.57,6.7,1.57c3.53,0,6.33-0.89,8.4-2.66
			c2.07-1.77,3.1-3.97,3.1-6.58c0-1.13-0.2-2.06-0.61-2.77c-0.4-0.72-0.92-1.21-1.53-1.49s-1.74-0.42-3.35-0.42
			c-4.8,0-7.45-0.04-7.93-0.11c-0.87-0.13-1.31-0.51-1.31-1.13c0-0.26,0.08-0.49,0.24-0.7c0.16-0.21,0.54-0.49,1.14-0.84
			c0.7,0.05,1.23,0.08,1.6,0.08c2.29,0,4.29-0.59,5.99-1.76c1.71-1.17,2.56-2.96,2.56-5.36c0-0.55-0.09-1.14-0.27-1.78l3.24,0
			C751.32,644.1,751.75,643.4,752.1,642.91z M737.01,660.6l3.42,0c2.4,0,3.84,0.06,4.35,0.17c0.5,0.12,0.9,0.38,1.18,0.78
			c0.39,0.59,0.59,1.31,0.59,2.15c0,0.93-0.24,1.77-0.72,2.53s-1.2,1.35-2.17,1.78c-0.96,0.43-2.13,0.65-3.5,0.65
			c-1.9,0-3.34-0.39-4.32-1.16c-0.98-0.78-1.47-1.79-1.47-3.04c0-0.69,0.17-1.31,0.5-1.84C735.21,662.08,735.92,661.41,737.01,660.6
			z M742.19,650.98c-0.54,0.7-1.31,1.05-2.29,1.05c-1.07,0-1.9-0.4-2.48-1.19c-0.58-0.8-0.87-2.17-0.87-4.13
			c0-1.16,0.29-2.06,0.87-2.71c0.58-0.65,1.36-0.97,2.35-0.97c1.02,0,1.82,0.37,2.38,1.11c0.56,0.74,0.85,1.93,0.85,3.56
			C743,649.18,742.73,650.28,742.19,650.98z"/>
		<path class="st0" d="M773.37,658.2c-0.19-0.08-0.34-0.23-0.44-0.47c-0.14-0.34-0.22-0.95-0.22-1.82c0-1.54,0.03-3.37,0.1-5.48
			c0.04-1.03,0.06-1.94,0.06-2.72c0-1.77-0.21-3.08-0.62-3.92c-0.41-0.84-1.05-1.5-1.93-1.98c-0.88-0.48-2.01-0.71-3.38-0.71
			c-0.82,0-1.51,0.08-2.09,0.24c-0.4,0.12-0.79,0.34-1.17,0.66l-3.02,2.54c0-1.51,0.02-2.45,0.06-2.81l0.02-0.18
			c0-0.3-0.09-0.45-0.27-0.45l-0.53,0.18c-1.02,0.4-2.27,0.75-3.77,1.05c-1.49,0.3-2.59,0.46-3.3,0.46l0,1.5
			c1.4,0.04,2.17,0.08,2.31,0.14c0.14,0.05,0.25,0.13,0.31,0.24c0.08,0.13,0.13,0.56,0.16,1.29c0.05,1.19,0.08,2.6,0.08,4.24
			c0,3.33-0.04,5.65-0.11,6.96c-0.04,0.52-0.15,0.86-0.33,1.01c-0.18,0.15-0.98,0.27-2.4,0.34l0,1.6c2.45-0.08,4.13-0.12,5.06-0.12
			c1.56,0,3.48,0.04,5.74,0.11l0-1.6c-1.51-0.08-2.38-0.21-2.62-0.41c-0.18-0.16-0.29-0.58-0.33-1.26
			c-0.04-0.69-0.06-3.39-0.06-8.12c0-1.11,0.05-1.77,0.14-1.98c0.2-0.51,0.62-0.99,1.27-1.44s1.42-0.68,2.3-0.68
			c1.38,0,2.33,0.5,2.85,1.49c0.4,0.77,0.61,2.81,0.61,6.12c0,2.61-0.17,5.15-0.5,7.63l0.21,0.25l4.02-0.12l1.54,0.04l2.4,0.08
			l0-1.6C774.27,658.38,773.56,658.28,773.37,658.2z"/>
		<path class="st0" d="M809.03,658.18c-0.19-0.12-0.32-0.34-0.4-0.64c-0.12-0.55-0.18-1.75-0.18-3.62c0-1.41,0.03-3.01,0.08-4.82
			l0.04-1.62c0-2.26-0.48-3.89-1.45-4.89c-0.96-1-2.47-1.51-4.51-1.51c-1.15,0-2.04,0.25-2.68,0.76l-3.32,2.64
			c-0.43-1.18-1.05-2.05-1.87-2.59c-0.82-0.54-1.92-0.81-3.31-0.81c-1.38,0-2.41,0.25-3.08,0.76l-3.2,2.4l0-0.7
			c0-0.47,0.01-0.79,0.03-0.98c0.03-0.42,0.05-0.75,0.05-1c0-0.33-0.09-0.49-0.27-0.49c-0.09,0-0.23,0.03-0.41,0.1
			c-0.91,0.37-1.93,0.68-3.06,0.94c-1.13,0.26-2.49,0.47-4.09,0.64l0,1.5l1.26,0.04c0.8,0.01,1.25,0.19,1.36,0.55
			c0.13,0.42,0.2,3.14,0.2,8.16c0,2.39-0.05,3.9-0.15,4.54c-0.05,0.33-0.17,0.55-0.36,0.67c-0.19,0.12-0.95,0.21-2.3,0.26l0,1.6
			c2.86-0.08,4.61-0.12,5.26-0.12c1.86,0,3.57,0.04,5.13,0.12l0-1.6c-1.25-0.12-1.96-0.23-2.14-0.35c-0.18-0.12-0.28-0.31-0.32-0.57
			c-0.08-0.41-0.12-1.72-0.12-3.94l0.02-2.31c0-1.68-0.02-2.71-0.06-3.08l-0.02-0.74c0-0.63,0.1-1.09,0.31-1.39
			c0.36-0.55,0.81-0.97,1.35-1.27c0.53-0.3,1.13-0.45,1.78-0.45c0.89,0,1.58,0.21,2.08,0.63c0.5,0.42,0.82,1.03,0.95,1.84
			c0.13,0.81,0.2,2.87,0.2,6.17c0,2.9-0.11,4.54-0.33,4.91c-0.22,0.37-0.98,0.56-2.27,0.56l0,1.6c1.63-0.08,3.46-0.12,5.51-0.12
			c1.64,0,3.31,0.04,5.02,0.12l0-1.6c-1.46-0.1-2.29-0.24-2.49-0.4c-0.2-0.16-0.32-0.54-0.36-1.13c-0.09-1.32-0.14-3.7-0.14-7.15
			c0-1.92,0.06-3.06,0.19-3.43c0.2-0.52,0.6-0.99,1.21-1.39s1.32-0.61,2.13-0.61c1.24,0,2.11,0.39,2.6,1.18
			c0.49,0.79,0.74,2.77,0.74,5.93c0,2.67-0.17,5.41-0.5,8.21l0.23,0.37c1.26-0.08,2.47-0.12,3.63-0.12c1.21,0,2.62,0.04,4.24,0.12
			l0-1.6C809.95,658.4,809.22,658.3,809.03,658.18z"/>
		<path class="st0" d="M828.14,642.86c-1.39-1.19-3.16-1.79-5.29-1.79c-1.39,0-2.67,0.3-3.84,0.9s-2.19,1.23-3.09,1.9
			c-0.89,0.67-1.53,1.5-1.92,2.5c-0.48,1.24-0.72,2.8-0.72,4.69c0,2.99,0.82,5.3,2.46,6.95c1.63,1.65,3.87,2.47,6.71,2.47
			c1.21,0,2.35-0.15,3.43-0.44c1.07-0.29,2.08-0.73,3.02-1.31l0.87-1.87l-0.56-0.57c-0.72,0.42-1.44,0.73-2.17,0.95
			c-0.73,0.22-1.46,0.32-2.21,0.32c-1.77,0-3.23-0.57-4.38-1.7c-1.15-1.14-1.82-2.83-2.01-5.07l4.23,0c1.87,0,3.3-0.03,4.29-0.1
			l3.2-0.59c0.05-0.67,0.08-1.16,0.08-1.49C830.23,645.97,829.53,644.05,828.14,642.86z M825.07,648.73
			c-1.13,0.1-2.21,0.16-3.24,0.16c-1.17,0-2.34-0.05-3.52-0.15c0.13-1.75,0.32-2.94,0.56-3.57c0.25-0.63,0.62-1.11,1.13-1.46
			c0.51-0.35,1.11-0.52,1.82-0.52c1,0,1.8,0.37,2.38,1.11s0.88,1.91,0.88,3.52L825.07,648.73z"/>
		<path class="st0" d="M853.37,658.17c-0.19-0.08-0.34-0.23-0.44-0.47c-0.14-0.34-0.22-0.95-0.22-1.82c0-1.54,0.03-3.37,0.1-5.48
			c0.04-1.03,0.06-1.94,0.06-2.72c0-1.77-0.21-3.08-0.62-3.92c-0.41-0.84-1.05-1.5-1.93-1.98c-0.88-0.48-2.01-0.71-3.38-0.71
			c-0.82,0-1.51,0.08-2.09,0.24c-0.4,0.12-0.79,0.34-1.17,0.66l-3.02,2.54c0-1.51,0.02-2.45,0.06-2.81l0.02-0.18
			c0-0.3-0.09-0.45-0.27-0.45l-0.53,0.18c-1.02,0.4-2.27,0.75-3.77,1.05c-1.49,0.3-2.59,0.46-3.3,0.46l0,1.5
			c1.4,0.04,2.17,0.08,2.31,0.14c0.14,0.05,0.25,0.13,0.31,0.24c0.08,0.13,0.13,0.56,0.16,1.29c0.05,1.19,0.08,2.6,0.08,4.24
			c0,3.33-0.04,5.65-0.11,6.96c-0.04,0.52-0.15,0.86-0.33,1.01c-0.18,0.15-0.98,0.27-2.4,0.34l0,1.6c2.45-0.08,4.13-0.12,5.06-0.12
			c1.56,0,3.48,0.04,5.74,0.11l0-1.6c-1.51-0.08-2.38-0.21-2.62-0.41c-0.18-0.16-0.29-0.58-0.33-1.26
			c-0.04-0.69-0.06-3.39-0.06-8.12c0-1.11,0.05-1.77,0.14-1.98c0.2-0.51,0.62-0.99,1.27-1.44c0.65-0.45,1.42-0.68,2.3-0.68
			c1.38,0,2.33,0.5,2.85,1.49c0.4,0.77,0.61,2.81,0.61,6.12c0,2.61-0.17,5.15-0.5,7.63l0.21,0.25l4.02-0.12l1.54,0.04l2.4,0.08
			l0-1.6C854.27,658.34,853.56,658.25,853.37,658.17z"/>
		<path class="st0" d="M869.43,642.54c-1.05,0.18-2.25,0.27-3.57,0.27c-0.59,0-1.18-0.05-1.78-0.16c0.1-3.18,0.3-5.71,0.58-7.6
			l-0.59-0.45c-1.58,0.78-3.26,1.45-5.04,1.99c0.1,1.73,0.17,3.75,0.2,6.05l-2.6,1.7l0,1.02c0.65-0.08,1.18-0.12,1.6-0.12l1,0.04
			c0,1.36-0.03,3.2-0.1,5.53c-0.06,2.66-0.1,4.3-0.1,4.93c0,1.19,0.17,2.08,0.5,2.68c0.33,0.6,0.87,1.09,1.6,1.47
			c0.74,0.38,1.65,0.57,2.74,0.57c0.34,0,0.71-0.02,1.11-0.06c0.4-0.04,0.85-0.1,1.33-0.18c0.74-0.94,1.5-1.84,2.28-2.72l-0.33-0.74
			c-0.38,0.12-0.73,0.21-1.06,0.27c-0.33,0.07-0.64,0.1-0.93,0.1c-0.98,0-1.59-0.3-1.86-0.9c-0.26-0.6-0.39-3.09-0.39-7.47
			c0-1,0.01-2.17,0.04-3.48c0.51-0.05,1.03-0.08,1.56-0.08c0.72,0,1.84,0.05,3.36,0.15c0.09-0.61,0.23-1.28,0.43-2.01l0.18-0.7
			L869.43,642.54z"/>
	</g>
</g>
</svg>
