<svg x="0px" y="0px"
	 <!-- viewBox="0 0 1366 768" style="enable-background:new 0 0 1366 768;"--> 
	  xml:space="preserve">

<style type="text/css">

	.st0{opacity:0.15;fill:#0EFF00;}
	.st1{fill:#00A99D;}
	.st2{opacity:0.15;fill:#E1FF15;}
	.st3{opacity:0.15;fill:#EA2AFF;}
	.st4{opacity:0.15;fill:#7F1100;}
	.st5{opacity:0.15;fill:#7FE7FF;}
	.st6{fill:#22B573;}
	.st7{opacity:0.15;fill:#0017A3;}
</style>

<a href="About.html">

<g class="About">

	<path class="About_x23_1" class="st0" d="M629.5,0.5c85.33,0,170.67,0,256,0c-4.92,4.85-10.22,10.92-15.19,18.38
		C856.49,39.59,853,59.45,851.5,68.5c-9.05,54.66,20.26,110.38,39,146c2.82,5.36,8.31,15.55,23,39c45.79,73.11,71.3,105.06,79,114
		c13.87,16.1,20.81,24.16,30,32c36.87,31.46,78.23,41.97,105,46c0.52,2.66,0.94,6.57,0,11c-5.98,28.09-58.66,38.86-80,43
		c-114,22.12-216.07-23.09-359-11c-84.34,7.13-79.02,25.43-143,25c-112.88-0.76-204.36-58.23-265-108c0.6-1.37,1.59-3.49,3-6
		c2.76-4.92,5.38-8.2,6-9c5.42-7.02,9.69-21.38,11-26c5.19-18.32,4.6-27.41,10-61c2.72-16.94,4-21.68,5-25c2.9-9.65,6.45-21.5,15-33
		c19.6-26.38,51.43-32.05,59-33c8.22-1.03,18-1,18-1c8.99,0.03,15.56,0.84,17,1c19.07,2.08,47.64-3.85,70-12
		c5.82-2.12,17.86-6.82,32-15c9.08-5.25,39.29-23.66,66-60c9.38-12.76,25.21-34.72,34-68c5.81-21.98,6.46-41.02,6-54L629.5,0.5z"/>

		<path class="st1" d="M560.95,377.94c1.53-0.07,2.48-0.21,2.84-0.44c0.25-0.16,0.63-0.78,1.17-1.84c1.01-2.11,2.31-5.03,3.89-8.78
			l8.85-21.08l3.59,0.04l10.78,26.33c1.4,3.32,2.27,5.14,2.6,5.46c0.33,0.32,1.36,0.54,3.08,0.67l-0.02,2.22
			c-2.65-0.14-5.15-0.22-7.51-0.24c-2.81-0.03-5.49,0-8.03,0.09l0.02-2.22c1.94-0.06,3.06-0.16,3.36-0.29
			c0.3-0.13,0.46-0.37,0.46-0.72c0-0.3-0.33-1.34-0.99-3.11l-1.57-4.09c-2.02-0.07-4.28-0.11-6.77-0.14
			c-2.17-0.02-4.14-0.02-5.92,0.02l-1.1,2.73c-0.3,0.75-0.67,1.85-1.11,3.33c-0.1,0.33-0.15,0.64-0.16,0.91
			c0,0.37,0.15,0.63,0.47,0.78c0.32,0.16,1.46,0.32,3.42,0.5l-0.02,2.22c-1.59-0.13-3.58-0.21-5.95-0.23
			c-2.26-0.02-4.06,0.02-5.39,0.12L560.95,377.94z M577.2,354.41l-5.27,12.5c1.5,0.1,3.15,0.15,4.96,0.17c1.89,0.02,3.7,0,5.42-0.07
			L577.2,354.41z"/>
		<path class="st1" d="M604.15,381.1l-1.16-0.48c0.33-3.94,0.53-9.39,0.6-16.34c0.03-3.14,0.03-5.57,0-7.28l-0.08-6.28
			c0.01-0.96-0.06-1.6-0.22-1.91c-0.11-0.21-0.31-0.36-0.6-0.45c-0.21-0.07-1.16-0.14-2.86-0.22l0.02-1.76
			c0.89,0.01,2.32-0.17,4.27-0.53c1.95-0.36,3.42-0.74,4.4-1.14l1.08-0.41c0.31,0,0.46,0.2,0.46,0.59l-0.1,2.56
			c-0.04,0.88-0.14,5.49-0.31,13.84l2.98-2.44c0.94-0.77,1.77-1.28,2.52-1.54c0.74-0.25,1.64-0.38,2.68-0.36
			c2.73,0.03,4.92,0.92,6.55,2.68c1.63,1.76,2.44,4.05,2.41,6.87c-0.01,1.38-0.26,2.81-0.73,4.28c-0.47,1.47-1.05,2.67-1.73,3.6
			c-0.69,0.93-1.57,1.75-2.65,2.46c-1.36,0.85-2.51,1.63-3.47,2.34c-1.13,0.84-2.08,1.38-2.85,1.63c-0.77,0.25-1.71,0.37-2.81,0.36
			c-1.09-0.01-2.11-0.16-3.05-0.45c-0.94-0.29-2-0.8-3.18-1.54C605.91,379.48,605.19,380.11,604.15,381.1z M609.6,363.86
			l-0.11,11.21c0.59,0.9,1.31,1.58,2.15,2.05c0.84,0.46,1.8,0.7,2.87,0.71c1.74,0.02,3.16-0.67,4.24-2.05
			c1.09-1.38,1.65-3.49,1.67-6.32c0.03-2.67-0.5-4.69-1.59-6.06c-1.09-1.37-2.51-2.06-4.29-2.08c-0.94-0.01-1.83,0.2-2.66,0.62
			C611.08,362.37,610.31,363.01,609.6,363.86z"/>
		<path class="st1" d="M630.94,369.23c0.04-3.86,0.97-6.75,2.79-8.67c2.19-2.28,5.32-3.39,9.41-3.35c4.07,0.04,7.03,0.99,8.88,2.85
			c1.85,1.86,2.76,4.78,2.72,8.75c-0.04,4.09-1.15,7.23-3.33,9.42c-2.18,2.2-5.19,3.27-9.03,3.24c-3.78-0.04-6.64-1.1-8.59-3.19
			C631.85,376.19,630.9,373.18,630.94,369.23z M637.71,367.62c-0.04,4.34,0.48,7.44,1.57,9.29c0.85,1.43,2.14,2.15,3.86,2.17
			c1.51,0.01,2.69-0.58,3.52-1.78c0.83-1.2,1.27-3.39,1.3-6.57c0.04-4.37-0.43-7.4-1.43-9.09c-0.82-1.35-2.1-2.03-3.86-2.04
			c-1.51-0.01-2.71,0.59-3.59,1.8C638.2,362.61,637.74,364.69,637.71,367.62z"/>
		<path class="st1" d="M657.77,361.3l0.02-1.88c2.61-0.22,5.04-0.66,7.31-1.32l2.43-0.83c0.29,0,0.44,0.19,0.43,0.57l-0.11,1.44
			c-0.31,3.75-0.49,7.36-0.52,10.85c-0.02,2.25,0.08,3.75,0.3,4.49c0.22,0.74,0.63,1.32,1.22,1.73c0.59,0.41,1.38,0.63,2.37,0.63
			c1.16,0.01,2.17-0.3,3.05-0.92c0.88-0.63,1.42-1.32,1.63-2.09c0.21-0.76,0.33-2.95,0.37-6.55c0.03-2.88,0-4.57-0.1-5.06
			c-0.06-0.26-0.17-0.44-0.34-0.54c-0.24-0.13-1.35-0.26-3.32-0.37l0.02-1.88c3.33-0.34,5.78-0.76,7.34-1.25l2.59-0.9
			c0.28,0,0.41,0.17,0.41,0.52l-0.05,0.66c-0.29,2.83-0.47,7.98-0.54,15.43c-0.02,2.28,0.03,3.72,0.15,4.31
			c0.08,0.28,0.21,0.47,0.38,0.59c0.26,0.15,1.28,0.3,3.05,0.45l-0.02,2c-1.86-0.12-3.71-0.18-5.54-0.2
			c-1.49-0.01-2.88,0.02-4.16,0.11l-0.21-0.44c0.08-0.81,0.16-2.09,0.23-3.83c-1.53,1.21-3,2.54-4.43,3.99
			c-1.16,0.49-2.3,0.74-3.42,0.72c-1.5-0.01-2.8-0.33-3.9-0.94c-1.1-0.61-1.91-1.41-2.43-2.38c-0.52-0.97-0.77-2.34-0.75-4.1
			l0.07-2.66c0.06-1.65,0.1-2.98,0.11-4.01c0.03-2.9-0.01-4.64-0.12-5.21c-0.08-0.37-0.25-0.64-0.5-0.8
			C660.54,361.46,659.53,361.35,657.77,361.3z"/>
		<path class="st1" d="M687.92,361.77l3.27-2.09c-0.01-2.88-0.07-5.4-0.17-7.57c2.23-0.66,4.34-1.47,6.32-2.43l0.73,0.57
			c-0.38,2.36-0.66,5.52-0.83,9.49c0.75,0.14,1.49,0.21,2.22,0.22c1.66,0.02,3.15-0.08,4.47-0.3l0.22,0.15l-0.23,0.88
			c-0.25,0.91-0.44,1.75-0.56,2.51c-1.9-0.15-3.3-0.23-4.2-0.24c-0.67-0.01-1.32,0.02-1.95,0.08c-0.05,1.65-0.08,3.1-0.09,4.35
			c-0.05,5.48,0.08,8.59,0.4,9.35s1.09,1.14,2.31,1.15c0.36,0,0.75-0.03,1.16-0.11c0.42-0.08,0.86-0.19,1.33-0.33l0.41,0.93
			c-0.99,1.08-1.95,2.2-2.89,3.37c-0.6,0.09-1.16,0.16-1.66,0.2s-0.97,0.06-1.39,0.06c-1.37-0.01-2.51-0.26-3.42-0.74
			s-1.58-1.1-1.98-1.85c-0.41-0.75-0.6-1.87-0.59-3.36c0.01-0.78,0.07-2.83,0.18-6.16c0.11-2.92,0.17-5.22,0.19-6.92l-1.25-0.06
			c-0.52,0-1.19,0.04-2,0.13L687.92,361.77z"/>

</g></a>

<a href="Home.html">

<g class="Home">

	<path class="Home_x23_5" class="st2" d="M0,416.11V1h629.79c0.67,6.94,1.18,17.07,0,29.19c-6.24,64.22-54.68,132.83-128.16,165.4
	c-71.59,31.73-101.53,0.25-148.84,29.19c-73.14,44.75-21.29,132.1-82.69,185.93c-33.1,29.02-101.97,50.81-256.33,25.94L0,416.11z"/>
	
		<path class="st1" d="M151.53,179.91l-0.83-1.88c1.92-0.96,2.97-1.58,3.16-1.87c0.19-0.29,0.2-0.72,0.06-1.29
			c-0.21-0.88-1.05-2.98-2.52-6.28l-5.44-12.2c-1.84-4.11-2.91-6.33-3.21-6.64c-0.17-0.19-0.38-0.3-0.61-0.34
			c-0.38-0.06-1.61,0.3-3.66,1.06l-0.83-1.87c3.03-1.22,5.41-2.21,7.15-2.99c2.76-1.22,5.25-2.39,7.49-3.51l0.83,1.87
			c-1.78,0.93-2.8,1.54-3.06,1.84c-0.15,0.18-0.24,0.37-0.25,0.59c-0.02,0.35,0.26,1.26,0.84,2.73c0.88,2.18,1.8,4.37,2.78,6.57
			l0.82,1.85c1.58-0.61,4.04-1.66,7.4-3.15c2.99-1.32,5.17-2.34,6.55-3.04c-2.13-4.84-3.61-8.03-4.43-9.57
			c-0.44-0.82-0.82-1.27-1.16-1.36c-0.47-0.13-1.7,0.19-3.71,0.98l-0.83-1.87c3.75-1.54,6.27-2.59,7.58-3.17
			c2.24-0.99,4.59-2.1,7.04-3.31l0.83,1.88c-1.85,0.96-2.9,1.6-3.14,1.9c-0.14,0.17-0.21,0.36-0.22,0.58c0,0.37,0.45,1.63,1.32,3.77
			c1.33,3.29,2.45,5.94,3.34,7.95l4.63,10.07c1.05,2.28,1.7,3.57,1.95,3.86c0.26,0.3,0.53,0.46,0.84,0.5
			c0.3,0.04,1.47-0.32,3.51-1.06l0.83,1.88l-2.5,1.03c-1.88,0.77-3.35,1.38-4.41,1.85c-2.2,0.98-4.77,2.18-7.71,3.61l-0.83-1.88
			c1.93-0.96,2.98-1.62,3.15-1.98c0.17-0.35,0.06-1.04-0.32-2.05c-0.65-1.74-2.18-5.38-4.58-10.93c-1.67,0.74-3.51,1.56-5.55,2.46
			c-3.19,1.42-5.98,2.69-8.36,3.81l0.65,1.47c1.73,3.9,3.08,6.8,4.05,8.7c0.65,1.28,1.17,1.96,1.55,2.05
			c0.38,0.09,1.59-0.24,3.63-0.98l0.83,1.87l-2.67,1.1c-1.7,0.68-3.2,1.31-4.51,1.89L151.53,179.91z"/>
		<path class="st1" d="M185.18,152.29c-1.57-3.53-1.92-6.55-1.05-9.05c1.05-2.98,3.44-5.29,7.17-6.95c3.72-1.65,6.81-2.01,9.27-1.09
			c2.46,0.92,4.49,3.2,6.1,6.84c1.66,3.74,1.95,7.06,0.88,9.96c-1.07,2.9-3.37,5.13-6.88,6.69c-3.45,1.53-6.5,1.75-9.14,0.66
			C188.9,158.24,186.78,155.89,185.18,152.29z M190.69,148.01c1.76,3.97,3.52,6.57,5.28,7.81c1.36,0.95,2.83,1.07,4.41,0.37
			c1.38-0.61,2.21-1.64,2.47-3.08c0.26-1.44-0.25-3.61-1.54-6.52c-1.77-4-3.46-6.56-5.07-7.69c-1.3-0.89-2.76-0.97-4.36-0.26
			c-1.38,0.61-2.23,1.66-2.53,3.13C189.05,143.25,189.49,145.33,190.69,148.01z"/>
		<path class="st1" d="M214.86,151.82l-0.81-1.83c1.51-0.74,2.34-1.23,2.49-1.47c0.15-0.24,0.17-0.55,0.07-0.95
			c-0.21-0.78-0.91-2.54-2.12-5.26c-2.54-5.74-4-8.81-4.35-9.22c-0.3-0.35-0.91-0.33-1.83,0.06l-1.46,0.59l-0.76-1.72
			c1.74-1,3.19-1.94,4.35-2.81c1.16-0.87,2.17-1.74,3.02-2.62c0.17-0.17,0.31-0.27,0.42-0.32c0.21-0.09,0.39,0.05,0.56,0.42
			c0.13,0.28,0.28,0.67,0.45,1.16c0.07,0.22,0.22,0.6,0.46,1.13l0.36,0.8l2.44-4.37c0.51-0.92,1.56-1.73,3.13-2.43
			c1.59-0.71,2.99-0.96,4.2-0.75c1.21,0.2,2.36,0.87,3.45,2.01l2.46-4.7c0.47-0.9,1.36-1.65,2.67-2.23
			c2.34-1.03,4.31-1.22,5.92-0.56c1.61,0.66,2.99,2.28,4.13,4.86l0.78,1.88c0.85,2.09,1.64,3.93,2.35,5.54
			c0.94,2.13,1.62,3.48,2.04,4.05c0.24,0.3,0.5,0.48,0.78,0.52c0.28,0.04,1.17-0.21,2.66-0.77l0.81,1.83
			c-1.89,0.73-3.52,1.4-4.9,2.01c-1.33,0.59-2.7,1.25-4.09,1.98l-0.45-0.31c-1.03-3.37-2.23-6.59-3.58-9.64
			c-1.6-3.62-2.89-5.76-3.85-6.41c-0.96-0.65-2.15-0.66-3.57-0.04c-0.92,0.41-1.64,1-2.13,1.78c-0.5,0.77-0.72,1.51-0.68,2.2
			c0.04,0.48,0.54,1.82,1.51,4.02c1.75,3.94,3.01,6.64,3.78,8.1c0.34,0.65,0.67,1.02,0.98,1.1c0.31,0.08,1.33-0.18,3.05-0.8
			l0.81,1.83c-1.99,0.77-3.92,1.58-5.79,2.41c-2.34,1.04-4.41,2.01-6.23,2.93l-0.81-1.83c1.47-0.65,2.24-1.25,2.31-1.78
			c0.06-0.54-0.64-2.46-2.11-5.78c-1.67-3.77-2.79-6.09-3.35-6.95c-0.56-0.86-1.23-1.4-2.01-1.62c-0.78-0.22-1.68-0.11-2.69,0.34
			c-0.74,0.33-1.35,0.8-1.8,1.42s-0.76,1.33-0.89,2.14c-0.09,0.45,0.03,1.03,0.35,1.75l0.4,0.84c0.23,0.4,0.77,1.56,1.63,3.48
			l1.15,2.65c1.12,2.54,1.83,4.02,2.13,4.44c0.18,0.28,0.4,0.44,0.66,0.49c0.26,0.04,1.13-0.18,2.62-0.68l0.81,1.83
			c-1.82,0.7-3.79,1.52-5.92,2.46C220.08,149.35,218.09,150.28,214.86,151.82z"/>
		<path class="st1" d="M272.14,121.26l0.93,0.36l-0.05,2.58c-0.78,1.14-1.7,2.15-2.78,3.03c-1.08,0.88-2.31,1.62-3.7,2.24
			c-3.24,1.44-6.22,1.63-8.92,0.57c-2.7-1.05-4.81-3.29-6.32-6.7c-0.96-2.16-1.48-4.07-1.55-5.73c-0.06-1.35,0.25-2.62,0.93-3.83
			s1.54-2.46,2.57-3.73c1.03-1.28,2.34-2.27,3.93-2.97c2.44-1.08,4.76-1.29,6.96-0.64c2.2,0.66,3.97,2.5,5.31,5.53
			c0.17,0.37,0.39,0.95,0.66,1.74l-3.36,2.29c-1.1,0.58-2.71,1.34-4.85,2.29l-4.83,2.14c1.36,2.47,2.98,4.06,4.87,4.78
			c1.89,0.72,3.84,0.63,5.86-0.27c0.85-0.38,1.63-0.87,2.36-1.49C270.87,122.83,271.53,122.1,272.14,121.26z M255.87,118.12
			c1.39-0.47,2.76-1.01,4.1-1.6c1.18-0.52,2.38-1.13,3.63-1.82l-0.44-1.06c-0.81-1.84-1.74-3.03-2.79-3.57
			c-1.04-0.55-2.14-0.57-3.28-0.06c-0.8,0.36-1.41,0.86-1.81,1.51c-0.41,0.65-0.59,1.4-0.56,2.24
			C254.74,114.6,255.13,116.05,255.87,118.12z"/>

</g></a>

<a href="Works.html">

<g class="Works">
	<path class="Works_x23_2" class="st3" d="M-0.5,423.5v345h704c-1.3-7.03-3.64-17.63-8-30c-20.44-58.01-56.16-72.46-60-100
		c-5.93-42.54,87.9-59.19,86-96c-1.02-19.79-25.98-52.23-54-46c-3.16-0.49-8.04-1.06-14-1c-15.96,0.16-25.84,4.74-46,11
		c-14.66,4.56-22.02,6.75-29,8c-14.24,2.54-25.15,2.34-39,2c-21.27-0.52-37.8-2.87-45-4c-11.8-1.84-40.07-6.87-75-20
		c-7.46-2.81-40.25-15.38-79-40c0,0-12.59-8-62-44c-0.73-0.98-1.79-2.07-3-2c-2.25,0.13-3.69,4.2-4,5c-3.33,8.59-22.38,16.65-29,19
		c-31,11-47,15-47,15c-43,4-104,3-175-6c-5.01-0.64-6.63-5.08-9-6l-11-15L-0.5,423.5z"/>
	
		<path class="st1" d="M161.97,560.38l0.66-1.94c2.52,0.98,4.76,1.81,6.71,2.47c2.06,0.7,4.46,1.46,7.19,2.28l-0.66,1.94
			c-1.65-0.5-2.69-0.71-3.09-0.64c-0.41,0.07-0.69,0.32-0.84,0.77c-0.18,0.52-0.55,3.2-1.12,8.03l-1.51,12.95l10.1-10.24
			c3.94-4,6.81-6.96,8.59-8.9l2.06,0.7l1.42,27.26l8.78-13.02c1.89-2.81,3.03-4.8,3.43-5.97c0.17-0.49,0.12-0.88-0.15-1.15
			c-0.27-0.27-1.32-0.75-3.15-1.42l0.66-1.94c2.81,1.08,4.6,1.75,5.37,2.02c0.94,0.32,2.62,0.84,5.05,1.54l-0.66,1.94
			c-1.3-0.32-2.18-0.41-2.64-0.24c-0.46,0.16-1.04,0.73-1.76,1.71c-1.13,1.49-4.16,5.85-9.08,13.07l-8.24,12.25l-4.39-1.5
			l-1.27-26.49l-10.2,10.46c-3.18,3.28-6.06,6.33-8.63,9.17l-3.3-1.13c0.24-2,0.92-8.21,2.06-18.64l1.24-11.65
			c0.12-1.16,0.07-1.9-0.14-2.23S163.41,561.03,161.97,560.38z"/>
		<path class="st1" d="M205.28,596.93c1.25-3.65,3.04-6.11,5.38-7.36c2.79-1.48,6.12-1.55,9.99-0.23c3.85,1.32,6.36,3.15,7.54,5.49
			c1.18,2.35,1.12,5.4-0.16,9.16c-1.32,3.87-3.36,6.5-6.12,7.9c-2.76,1.4-5.95,1.48-9.59,0.24c-3.57-1.22-5.96-3.13-7.15-5.72
			C203.97,603.83,204.01,600.67,205.28,596.93z M212.22,597.53c-1.4,4.11-1.88,7.21-1.43,9.31c0.36,1.62,1.35,2.71,2.99,3.27
			c1.43,0.49,2.73,0.29,3.9-0.58c1.17-0.88,2.27-2.82,3.29-5.83c1.41-4.14,1.91-7.17,1.5-9.08c-0.35-1.53-1.36-2.58-3.02-3.15
			c-1.43-0.49-2.76-0.3-3.98,0.58C214.26,592.93,213.17,594.75,212.22,597.53z"/>
		<path class="st1" d="M226.44,616.43l0.65-1.89c1.58,0.45,2.51,0.67,2.77,0.64c0.22-0.03,0.41-0.13,0.59-0.29
			c0.29-0.31,0.67-1.1,1.14-2.35c0.83-2.23,1.56-4.27,2.19-6.12c1.22-3.56,1.89-5.69,2.03-6.39c0.08-0.4,0.04-0.72-0.14-0.96
			c-0.18-0.24-1.12-0.69-2.84-1.34l0.61-1.78c3.2,0.76,5.55,1.16,7.04,1.18l2.68-0.08c0.22,0.07,0.27,0.26,0.17,0.55l-0.13,0.32
			c-0.38,0.95-0.88,2.34-1.5,4.16c1.04-0.49,2.24-1.14,3.59-1.97c1-0.62,1.81-0.97,2.42-1.06c0.61-0.08,1.36,0.03,2.24,0.33
			c0.49,0.17,0.96,0.42,1.41,0.77c-0.67,1.49-1.47,3.56-2.43,6.19l-1.17,0.02c-0.15-0.72-0.39-1.28-0.74-1.66
			c-0.34-0.38-0.85-0.69-1.53-0.92c-0.92-0.32-1.8-0.35-2.63-0.09c-0.83,0.25-1.44,0.66-1.83,1.21c-0.28,0.42-0.88,1.98-1.8,4.66
			c-1.33,3.91-2.06,6.21-2.17,6.89c-0.09,0.45-0.04,0.8,0.14,1.03c0.27,0.35,1.38,0.91,3.32,1.68l-0.65,1.89l-2.56-0.95
			c-1.63-0.61-3.05-1.12-4.25-1.53c-1.14-0.39-2.47-0.82-4-1.29L226.44,616.43z"/>
		<path class="st1" d="M245.5,622.94l0.65-1.89c1.67,0.5,2.67,0.72,3,0.66c0.17-0.04,0.33-0.15,0.47-0.31
			c0.24-0.3,0.85-1.82,1.84-4.55c0.99-2.74,1.99-5.59,3.01-8.57c0.82-2.41,1.84-5.51,3.05-9.32c0.88-2.77,1.32-4.32,1.34-4.65
			c0.02-0.33-0.07-0.61-0.27-0.84s-1.07-0.63-2.61-1.19l0.57-1.66c2.13,0.5,3.88,0.83,5.26,0.98c1.38,0.15,2.68,0.17,3.91,0.06
			c0.33-0.02,0.56-0.01,0.69,0.03c0.23,0.08,0.27,0.33,0.13,0.74l-0.38,0.98c-0.45,1.12-1.97,5.45-4.59,12.97l-2.26,6.46l-0.39,1.29
			c4.19-1.65,8.69-3.83,13.48-6.54c1.06,0.47,2.02,0.85,2.89,1.14c1.03,0.35,2.14,0.68,3.33,0.98l-0.65,1.9
			c-1.74-0.49-2.8-0.74-3.2-0.75s-1.03,0.14-1.9,0.44c-0.87,0.3-3.38,1.32-7.53,3.06l2.06,4.92c2.36,5.67,3.78,8.9,4.26,9.7
			c0.31,0.53,0.84,0.97,1.6,1.32l-0.65,1.89c-1.69-0.68-3.26-1.27-4.71-1.76c-1.13-0.38-2.25-0.72-3.37-1
			c-0.84-2.54-1.72-4.93-2.66-7.18c-1.27-3.07-2.36-5.47-3.27-7.21l-1.27,3.73c-0.74,2.16-1.15,3.66-1.23,4.49
			c-0.04,0.37,0.03,0.66,0.22,0.87c0.19,0.21,1.09,0.64,2.7,1.3l-0.65,1.89c-2.94-1.11-4.91-1.83-5.91-2.17
			C251.48,624.83,249.16,624.08,245.5,622.94z"/>
		<path class="st1" d="M280.01,626.36c-0.6,2.01-0.88,3.16-0.84,3.43c0.12,0.75,0.57,1.52,1.33,2.31c0.77,0.79,1.76,1.4,2.99,1.82
			c1.51,0.51,2.74,0.59,3.69,0.22c0.96-0.37,1.61-1.06,1.96-2.09c0.3-0.89,0.27-1.68-0.09-2.37c-0.37-0.69-1.37-1.53-3.01-2.52
			c-2.48-1.5-4.05-2.61-4.71-3.32c-0.66-0.72-1.08-1.58-1.26-2.61c-0.18-1.03-0.07-2.14,0.34-3.34c0.48-1.42,1.27-2.55,2.35-3.4
			c1.08-0.85,2.39-1.36,3.94-1.53c1.54-0.17,3.41,0.12,5.59,0.86c2.28,0.78,4.26,1.87,5.97,3.28c-0.63,1.18-1.44,3.08-2.41,5.7
			l-1.83-0.62c0.48-1.69,0.68-2.72,0.61-3.07c-0.08-0.53-0.39-1.05-0.93-1.58c-0.75-0.72-1.64-1.26-2.65-1.6
			c-1.29-0.44-2.4-0.5-3.31-0.17c-0.91,0.33-1.52,0.93-1.82,1.81c-0.28,0.81-0.17,1.57,0.31,2.26c0.48,0.71,1.86,1.71,4.14,2.98
			c1.57,0.88,2.64,1.56,3.2,2.05c0.92,0.83,1.51,1.79,1.77,2.86c0.26,1.08,0.16,2.3-0.31,3.66c-0.89,2.61-2.58,4.26-5.07,4.96
			c-2.49,0.7-5.13,0.58-7.91-0.38c-0.92-0.32-1.91-0.77-2.96-1.37c-1.05-0.6-2.17-1.33-3.35-2.19l-0.21-0.51
			c0.64-1.27,1.48-3.34,2.51-6.21L280.01,626.36z"/>
	
</g></a>

<a href="Contact.html">

<g class="Contacts">

	<path class="Contacts_x23_4" class="st4" d="M1364,416.5c0.33,119.17,0.67,238.33,1,357.5H701.85c-1.09-5.24-2.41-10.64-4.02-16.16
		c-4.03-13.84-13.55-46.17-37.18-72.71c-5.27-5.92-10.55-13.37-21.1-28.28c-1.9-2.69-4.84-6.93-6.03-13.13
		c-1.71-8.9,1.25-16.29,2.01-18.18c5.2-12.99,16.33-14.52,46.22-34.34c7.76-5.14,13.11-11.42,21.1-19.19
		c14.65-14.23,13.81-20.68,14.07-23.23c0.71-7.18-1.18-12.42-6.03-21.21c-5.09-9.22-13.76-21.89-30.14-27.27
		c-11.96-3.93-21.83-2.04-22.11-2.02c-17.08,1.01,10.13-5.12,28.13-6.06c4.15-0.22,14.75,1.25,24.11,1.01
		c50.33-1.29,95.45,3.03,95.45,3.03c33.87,3.24,29.43,5.37,69.33,10.1c24.59,2.92,54.3,4.04,92.44,4.04
		c3.01,0,48.35,0.65,105.5-13.13c0,0,14.68-4.41,34.16-16.16c10.05-6.06,12.75-10.12,14.07-14.14c2.56-7.79,0.1-15.62,4.02-18.18
		c2.12-1.38,4.96,1.01,6.03,1.01c12.06,0,26.12,1.54,39.19,1.01c25.12-1.01,58.15-6.59,63.3-8.08c28.58-8.26,34.37-17.02,61.29-20.2
		c1.47-0.17,8.37-0.79,24.11-2.02c16.68-1.3,30.27-2.35,39.19-3.03L1364,416.5z"/>

		<path class="st1" d="M974.71,685.97l0.75,0.36c-0.17,0.9-0.28,1.81-0.34,2.71c-1.51,1.51-3.04,2.71-4.59,3.63
			c-1.55,0.91-3.41,1.7-5.59,2.37c-4.08,1.26-7.74,1.6-11,1.04c-3.26-0.56-6.04-1.91-8.36-4.04c-2.32-2.13-3.99-4.88-5.03-8.24
			c-1.49-4.84-0.99-9.33,1.49-13.47c2.48-4.14,6.74-7.15,12.77-9c2.01-0.62,4.05-1.05,6.13-1.3c2.08-0.25,4.2-0.3,6.37-0.17
			l0.27,0.3c-0.03,0.93,0.02,1.8,0.15,2.61c0.21,1.42,0.57,3.14,1.08,5.19l-1.96,0.6c-0.85-2.43-1.36-3.75-1.53-3.96
			c-0.17-0.21-0.72-0.49-1.66-0.84c-0.94-0.35-2.12-0.51-3.53-0.47c-1.41,0.03-2.9,0.29-4.47,0.77c-3.73,1.15-6.34,3.21-7.83,6.19
			c-1.49,2.98-1.6,6.52-0.34,10.63c1.37,4.45,3.8,7.64,7.29,9.58c3.23,1.8,6.97,2.04,11.24,0.73c1.65-0.51,3.14-1.15,4.47-1.94
			S973.23,687.36,974.71,685.97z"/>
		<path class="st1" d="M976.82,678.72c-1.14-3.69-1.13-6.73,0.03-9.11c1.39-2.83,4.04-4.85,7.95-6.05c3.89-1.2,7-1.19,9.33,0.02
			c2.33,1.21,4.08,3.71,5.25,7.51c1.2,3.91,1.1,7.24-0.31,9.99c-1.41,2.75-3.95,4.7-7.62,5.83c-3.61,1.11-6.66,0.97-9.15-0.43
			C979.8,685.07,977.98,682.49,976.82,678.72z M982.79,675.13c1.28,4.15,2.72,6.94,4.32,8.38c1.24,1.1,2.69,1.4,4.34,0.89
			c1.45-0.45,2.38-1.37,2.82-2.76c0.43-1.39,0.18-3.61-0.76-6.65c-1.29-4.18-2.66-6.92-4.12-8.23c-1.19-1.03-2.62-1.29-4.3-0.78
			c-1.45,0.45-2.41,1.38-2.88,2.81S981.92,672.32,982.79,675.13z"/>
		<path class="st1" d="M1006.22,681.81l-0.59-1.91c1.67-0.62,2.58-1.05,2.74-1.29c0.16-0.25,0.17-0.69,0.03-1.33
			c-0.39-1.6-1.2-4.39-2.42-8.36c-0.6-1.96-1.16-3.64-1.65-5.04c-0.3-0.87-0.52-1.36-0.66-1.49c-0.12-0.1-0.27-0.16-0.46-0.17
			c-0.19-0.01-1.13,0.22-2.81,0.69l-0.55-1.8c0.84-0.26,2.1-0.84,3.77-1.76c1.67-0.91,3.05-1.79,4.12-2.64l0.57-0.41
			c0.22-0.07,0.38,0.08,0.49,0.44l0.04,0.22c0.09,0.45,0.41,1.58,0.96,3.38l2.68-4.15c0.33-0.53,0.71-0.94,1.15-1.22
			c0.63-0.4,1.43-0.75,2.41-1.05c1.65-0.51,3.08-0.64,4.3-0.39c1.22,0.25,2.23,0.8,3.03,1.65c0.8,0.85,1.52,2.34,2.18,4.46
			c0.29,0.93,0.6,2.03,0.93,3.27c0.7,2.55,1.33,4.74,1.9,6.58c0.32,1.04,0.63,1.74,0.93,2.1c0.21,0.24,0.44,0.38,0.7,0.4
			c0.25,0.03,1.14-0.12,2.66-0.44l0.59,1.91l-2.9,0.79l-1.86,0.52l-4.76,1.62l-0.35-0.22c-0.51-3.08-1.24-6.18-2.2-9.3
			c-1.22-3.96-2.21-6.32-2.97-7.09c-0.99-0.99-2.3-1.23-3.95-0.73c-1.06,0.32-1.89,0.88-2.5,1.65c-0.61,0.78-0.94,1.51-0.99,2.19
			c-0.03,0.29,0.16,1.09,0.56,2.41c1.74,5.65,2.76,8.87,3.06,9.68c0.3,0.81,0.59,1.27,0.86,1.39c0.35,0.15,1.44-0.01,3.28-0.47
			l0.59,1.91c-2.74,0.74-5.04,1.4-6.9,1.97C1011.12,680.15,1009.12,680.82,1006.22,681.81z"/>
		<path class="st1" d="M1028.85,654.31l2.48-2.99c-0.88-2.74-1.7-5.13-2.46-7.16c1.92-1.31,3.69-2.72,5.29-4.23l0.87,0.32
			c0.35,2.36,1.05,5.46,2.09,9.29c0.75-0.09,1.48-0.25,2.18-0.47c1.59-0.49,2.98-1.04,4.17-1.64l0.25,0.08l0.05,0.9
			c0.04,0.94,0.11,1.8,0.23,2.56c-1.86,0.44-3.21,0.79-4.07,1.05c-0.64,0.2-1.25,0.42-1.84,0.67c0.45,1.58,0.86,2.97,1.23,4.17
			c1.61,5.24,2.68,8.16,3.21,8.79c0.53,0.62,1.38,0.75,2.55,0.39c0.34-0.1,0.7-0.26,1.07-0.46c0.37-0.2,0.76-0.44,1.17-0.72
			l0.67,0.77c-0.61,1.33-1.19,2.69-1.73,4.08c-0.55,0.27-1.05,0.5-1.52,0.7s-0.9,0.36-1.31,0.48c-1.31,0.4-2.47,0.51-3.49,0.33
			c-1.02-0.18-1.83-0.57-2.45-1.16c-0.62-0.59-1.14-1.6-1.58-3.02c-0.23-0.75-0.79-2.72-1.7-5.92c-0.78-2.81-1.42-5.03-1.92-6.65
			l-1.2,0.32c-0.5,0.15-1.12,0.4-1.87,0.73L1028.85,654.31z"/>
		<path class="st1" d="M1072.25,659.39l0.59,1.91l-1.82,0.48c-0.97,0.25-1.92,0.52-2.88,0.81c-1.47,0.45-2.84,0.93-4.12,1.42
			l-0.31-0.18l-0.75-3.27l-3.75,5.14c-0.81,0.47-1.55,0.81-2.21,1.01c-1.65,0.51-3.07,0.41-4.27-0.29c-1.2-0.7-2.09-1.99-2.67-3.88
			c-0.71-2.32-0.6-4.14,0.33-5.47c1.2-1.73,4.36-3.92,9.48-6.57c-0.6-1.83-1.33-3.07-2.19-3.71c-1.2-0.88-2.7-1.04-4.48-0.49
			c-0.42,0.13-0.83,0.31-1.25,0.55c-0.41,0.24-0.81,0.54-1.19,0.89l-0.28,2.82l-1.73,0.1l-0.28-1.06l-0.34-1.02l-0.31-0.93
			c1.92-2.21,3.35-3.66,4.28-4.36c0.68-0.51,1.69-0.98,3.04-1.4c1.83-0.57,3.41-0.75,4.74-0.55c1.32,0.2,2.39,0.69,3.21,1.48
			c0.82,0.79,1.51,2.09,2.08,3.92c0.23,0.76,0.62,2.14,1.17,4.12c0.56,2.05,1.03,3.68,1.41,4.92c0.6,1.95,1.02,3.12,1.26,3.5
			c0.14,0.23,0.35,0.38,0.63,0.44C1069.92,659.8,1070.79,659.69,1072.25,659.39z M1060.48,652.52c-2.55,1.43-4.12,2.62-4.73,3.57
			c-0.61,0.95-0.73,2-0.37,3.17c0.29,0.95,0.79,1.62,1.48,2.01c0.7,0.38,1.45,0.45,2.25,0.2c1.22-0.38,2.27-1.46,3.13-3.24
			L1060.48,652.52z"/>
		<path class="st1" d="M1087.85,641.03l-1.91,0.59c-0.68-1.82-1.14-2.84-1.38-3.07c-0.34-0.37-0.92-0.63-1.74-0.77
			c-0.82-0.14-1.77-0.04-2.84,0.29c-1.65,0.51-2.71,1.35-3.18,2.53c-0.47,1.18-0.32,2.99,0.43,5.44c0.96,3.11,2.4,5.29,4.34,6.54
			c1.94,1.26,4.02,1.54,6.24,0.86c0.81-0.25,1.53-0.55,2.16-0.9c0.63-0.35,1.19-0.74,1.67-1.18l0.55,0.39
			c-0.11,0.85-0.2,1.69-0.26,2.54c-0.87,0.83-1.8,1.53-2.79,2.11c-0.99,0.58-2.03,1.04-3.12,1.38c-3.39,1.04-6.32,0.92-8.79-0.38
			c-2.47-1.29-4.23-3.67-5.3-7.13c-0.39-1.28-0.63-2.47-0.69-3.58c-0.07-1.11,0-2.1,0.2-2.95c0.2-0.86,0.5-1.59,0.87-2.2
			c0.23-0.35,1.31-1.62,3.21-3.83c1.12-1.3,1.96-2.14,2.53-2.54c0.57-0.4,1.38-0.76,2.44-1.08c0.93-0.29,1.87-0.5,2.79-0.63
			c0.93-0.13,1.86-0.19,2.78-0.17l0.53,0.3C1086.85,636.36,1087.26,638.84,1087.85,641.03z"/>
		<path class="st1" d="M1089.86,635.53l2.48-2.99c-0.88-2.74-1.7-5.13-2.46-7.16c1.92-1.31,3.68-2.72,5.29-4.23l0.87,0.32
			c0.35,2.36,1.05,5.46,2.09,9.29c0.75-0.09,1.48-0.25,2.18-0.47c1.59-0.49,2.98-1.04,4.17-1.64l0.25,0.08l0.05,0.9
			c0.04,0.94,0.11,1.8,0.23,2.56c-1.86,0.44-3.22,0.79-4.07,1.05c-0.64,0.2-1.25,0.42-1.84,0.67c0.45,1.58,0.87,2.97,1.23,4.17
			c1.61,5.24,2.68,8.16,3.21,8.79s1.38,0.75,2.55,0.39c0.34-0.11,0.7-0.26,1.07-0.46c0.37-0.2,0.76-0.44,1.17-0.72l0.67,0.77
			c-0.61,1.33-1.19,2.69-1.73,4.08c-0.55,0.27-1.05,0.5-1.52,0.7s-0.9,0.36-1.31,0.48c-1.31,0.4-2.47,0.51-3.49,0.33
			c-1.02-0.18-1.84-0.57-2.45-1.16c-0.62-0.59-1.14-1.6-1.58-3.02c-0.23-0.75-0.8-2.72-1.7-5.92c-0.78-2.81-1.42-5.03-1.92-6.65
			l-1.2,0.32c-0.5,0.15-1.12,0.4-1.87,0.73L1089.86,635.53z"/>

</g></a>

<a href="Side Projects.html">

<g class="Side_Projects">

	<path class="SideProjects_x23_3" class="st5" d="M1369,414V0L889,1c-7.7,7.77-18.38,20.33-26,38c-34.23,79.37,30.14,176.08,78,248
		c49.53,74.42,74.29,111.63,122,136c102.85,52.53,214.09,6.51,238-4L1369,414z"/>

	<g class="side_Projects">

		<path class="st6" d="M1000.07,151.64l1.99,0.8c-0.89,2.24-1.34,3.58-1.37,4.01c-0.03,0.44,0.2,1.12,0.69,2.04
			c0.49,0.92,1.24,1.82,2.26,2.69c1.02,0.87,2.15,1.55,3.39,2.05c2.13,0.86,4.06,0.98,5.79,0.37c1.73-0.62,2.94-1.77,3.62-3.46
			c0.63-1.55,0.68-2.92,0.17-4.08c-0.53-1.18-1.92-2.42-4.18-3.74c-3.36-1.95-5.53-3.48-6.53-4.59c-1-1.11-1.62-2.41-1.85-3.91
			c-0.23-1.5,0-3.09,0.68-4.78c1.15-2.84,3.12-4.84,5.91-6s6.38-0.86,10.77,0.91c1.72,0.69,3.19,1.44,4.42,2.23
			c1.23,0.8,2.4,1.76,3.5,2.89l0.01,0.63c-0.63,0.85-1.14,1.65-1.55,2.38c-0.41,0.73-1.03,2.03-1.87,3.88l-1.95-0.79
			c0.86-2.35,1.27-3.7,1.24-4.04c-0.09-0.61-0.6-1.43-1.55-2.45c-0.95-1.02-2.18-1.84-3.69-2.45c-2.07-0.83-3.87-0.98-5.42-0.44
			c-1.54,0.54-2.64,1.61-3.28,3.19c-0.39,0.96-0.5,1.9-0.32,2.8c0.18,0.91,0.62,1.7,1.32,2.38c0.7,0.68,2.34,1.79,4.93,3.34
			c2.35,1.39,3.9,2.44,4.65,3.16c1.23,1.18,1.97,2.52,2.24,4.04c0.27,1.51,0.03,3.19-0.71,5.03c-1.29,3.2-3.58,5.36-6.89,6.5
			c-3.3,1.13-7.07,0.84-11.31-0.87c-1.89-0.76-3.53-1.63-4.92-2.62s-2.75-2.22-4.06-3.71c0.7-0.95,1.27-1.83,1.7-2.65
			C998.52,155.23,999.24,153.65,1000.07,151.64z"/>
		<path class="st6" d="M1022.72,171.91l0.75-1.86c1.73,0.63,2.76,0.92,3.08,0.88s0.67-0.4,1.02-1.06c0.5-0.9,1.41-2.98,2.73-6.23
			c0.57-1.41,1.07-2.71,1.51-3.93l1-2.68c0.35-0.88,0.48-1.46,0.37-1.74c-0.11-0.28-0.57-0.6-1.39-0.97l-1.67-0.75l0.7-1.74
			c3.75,1.19,7.01,1.75,9.77,1.68l0.38,0.68c-1.39,2.8-3.2,6.96-5.43,12.48c-1.29,3.19-2.01,5.14-2.18,5.85
			c-0.11,0.5-0.1,0.86,0.05,1.08c0.15,0.22,1.08,0.75,2.79,1.6l-0.75,1.86c-2.69-1.19-4.77-2.08-6.26-2.69
			C1028.41,174.04,1026.25,173.22,1022.72,171.91z M1042.27,141.6c0.96,0.39,1.65,1.07,2.06,2.03s0.42,1.94,0.02,2.92
			c-0.39,0.97-1.07,1.65-2.03,2.06c-0.96,0.41-1.94,0.42-2.92,0.02c-0.97-0.39-1.65-1.07-2.06-2.03c-0.41-0.96-0.42-1.93-0.03-2.9
			c0.4-0.98,1.08-1.68,2.04-2.09C1040.32,141.21,1041.29,141.2,1042.27,141.6z"/>
		<path class="st6" d="M1063.64,163.94l1.58-3.91c0.98-2.42,1.49-3.85,1.55-4.29c0.04-0.32-0.03-0.57-0.2-0.78s-1.16-0.69-2.95-1.47
			l0.66-1.63c3.75,1.06,7.05,1.55,9.91,1.47l0.37,0.78c-1.13,2.37-2.14,4.64-3.05,6.81l-7.33,17.72c-1.2,2.97-1.88,4.81-2.04,5.5
			c-0.1,0.43-0.07,0.77,0.1,1.03c0.17,0.25,1.04,0.77,2.6,1.56l-0.75,1.86c-1.81-0.84-3.59-1.61-5.35-2.32
			c-1.27-0.51-2.48-0.95-3.62-1.3l-0.28-0.43c0.81-1.45,1.44-2.62,1.9-3.53c-1.34,0.35-3.51,1.01-6.51,1.98
			c-0.99-0.03-1.86-0.2-2.61-0.5c-2.5-1.01-4.22-2.79-5.13-5.33c-0.92-2.54-0.75-5.36,0.5-8.45c0.61-1.51,1.33-2.81,2.17-3.91
			c0.84-1.09,1.61-1.86,2.32-2.29c0.71-0.43,1.96-0.85,3.73-1.26c2.42-0.55,4.13-0.82,5.13-0.81c1,0.01,2.02,0.22,3.05,0.64
			c0.74,0.3,1.46,0.68,2.17,1.15C1062.26,162.71,1062.96,163.28,1063.64,163.94z M1061.68,168.79c-0.3-1.3-0.8-2.38-1.51-3.25
			c-0.71-0.86-1.61-1.52-2.71-1.96c-1.55-0.63-2.97-0.55-4.25,0.22c-1.28,0.78-2.45,2.47-3.5,5.09c-1.09,2.69-1.39,4.91-0.91,6.65
			c0.48,1.74,1.51,2.93,3.1,3.57c1.07,0.43,2.19,0.52,3.35,0.27c1.16-0.25,1.93-0.6,2.29-1.05c0.37-0.45,1.23-2.37,2.6-5.75
			L1061.68,168.79z"/>
		<path class="st6" d="M1087.04,192.78l0.39,0.92l-1.89,1.76c-1.36,0.24-2.73,0.27-4.11,0.11s-2.77-0.53-4.18-1.1
			c-3.29-1.33-5.5-3.33-6.62-6.01c-1.12-2.68-0.99-5.74,0.41-9.2c0.88-2.19,1.9-3.89,3.03-5.1c0.92-0.98,2.06-1.65,3.4-2
			c1.34-0.35,2.83-0.61,4.46-0.75c1.63-0.15,3.25,0.1,4.87,0.75c2.48,1,4.24,2.52,5.3,4.55c1.06,2.04,0.96,4.59-0.27,7.66
			c-0.15,0.38-0.42,0.94-0.79,1.69l-3.98-0.82c-1.17-0.39-2.85-1.02-5.02-1.89l-4.9-1.98c-0.82,2.7-0.84,4.97-0.04,6.82
			c0.8,1.85,2.22,3.19,4.28,4.02c0.86,0.35,1.76,0.57,2.71,0.66C1085.03,192.96,1086.01,192.93,1087.04,192.78z M1077.97,178.91
			c1.31,0.67,2.64,1.28,4,1.83c1.19,0.48,2.47,0.93,3.83,1.34l0.45-1.06c0.75-1.86,0.96-3.36,0.63-4.49s-1.08-1.93-2.24-2.4
			c-0.81-0.33-1.6-0.41-2.35-0.25c-0.75,0.16-1.42,0.55-2,1.16S1078.94,176.94,1077.97,178.91z"/>
		<path class="st6" d="M1101.6,203.74l0.77-1.9c1.85,0.59,2.93,0.86,3.23,0.8c0.22-0.02,0.42-0.12,0.6-0.31
			c0.3-0.32,1.04-1.83,2.22-4.55s2.29-5.37,3.33-7.95c1.94-4.81,3.28-8.27,4.02-10.38c0.74-2.11,1.04-3.33,0.92-3.66
			c-0.12-0.33-0.71-0.75-1.77-1.27l-1.27-0.64l0.77-1.9l2.52,1.12c1.57,0.68,2.82,1.22,3.75,1.59c1.28,0.52,3.36,1.32,6.24,2.41
			c1.56,0.58,2.7,1.02,3.42,1.31c2.7,1.09,4.59,2.15,5.68,3.18c1.08,1.03,1.75,2.2,2.01,3.51c0.25,1.31,0.07,2.74-0.56,4.29
			c-1.13,2.8-3.07,4.74-5.81,5.82c-2.75,1.09-5.65,1.01-8.72-0.23c-0.39-0.16-0.79-0.36-1.21-0.59c-0.41-0.24-0.85-0.51-1.3-0.81
			c-0.04-0.64-0.1-1.28-0.18-1.9l0.75-0.35c0.3,0.2,0.59,0.38,0.85,0.53c0.26,0.15,0.51,0.28,0.73,0.37
			c1.52,0.62,2.98,0.59,4.37-0.07c1.39-0.66,2.46-1.93,3.23-3.82c0.85-2.1,0.98-3.87,0.4-5.3c-0.58-1.44-1.84-2.54-3.78-3.33
			c-0.79-0.32-1.76-0.58-2.91-0.78c-2.03,4.58-3.69,8.49-4.99,11.72c-0.44,1.09-1.78,4.57-4.01,10.46
			c-0.89,2.33-1.35,3.68-1.38,4.07c-0.03,0.29,0.04,0.53,0.21,0.72c0.26,0.3,1.49,0.97,3.67,2.01l-0.77,1.9
			c-2.63-1.18-4.86-2.14-6.68-2.88C1109.13,206.6,1106.35,205.54,1101.6,203.74z"/>
		<path class="st6" d="M1128.63,214.65l0.75-1.86c1.55,0.54,2.47,0.8,2.74,0.79c0.22-0.02,0.42-0.1,0.6-0.26
			c0.31-0.3,0.73-1.06,1.26-2.28c0.95-2.18,1.79-4.18,2.53-5.99c1.41-3.49,2.2-5.58,2.37-6.27c0.11-0.4,0.08-0.72-0.08-0.97
			c-0.16-0.25-1.08-0.75-2.76-1.5l0.7-1.74c3.16,0.94,5.48,1.46,6.96,1.56l2.68,0.07c0.21,0.08,0.26,0.27,0.14,0.56l-0.15,0.31
			c-0.43,0.93-1.01,2.29-1.73,4.07c1.07-0.43,2.3-1.02,3.69-1.77c1.04-0.57,1.86-0.87,2.48-0.92c0.62-0.05,1.36,0.1,2.22,0.45
			c0.48,0.2,0.94,0.48,1.37,0.84c-0.75,1.46-1.67,3.47-2.76,6.05l-1.17-0.05c-0.11-0.73-0.32-1.3-0.64-1.7s-0.81-0.74-1.48-1.01
			c-0.91-0.37-1.78-0.44-2.62-0.24c-0.84,0.21-1.47,0.58-1.9,1.11c-0.3,0.4-0.99,1.92-2.05,4.56c-1.55,3.83-2.39,6.08-2.55,6.76
			c-0.11,0.45-0.08,0.79,0.08,1.04c0.25,0.37,1.33,0.99,3.23,1.86l-0.75,1.86l-2.51-1.09c-1.6-0.7-2.98-1.28-4.16-1.76
			c-1.12-0.45-2.42-0.95-3.92-1.5L1128.63,214.65z"/>
		<path class="st6" d="M1152.4,211.73c1.45-3.58,3.37-5.93,5.77-7.05c2.87-1.32,6.2-1.22,9.98,0.31c3.77,1.52,6.18,3.49,7.23,5.9
			c1.05,2.41,0.83,5.45-0.66,9.14c-1.53,3.79-3.71,6.31-6.54,7.56c-2.83,1.25-6.03,1.15-9.59-0.29c-3.5-1.41-5.78-3.45-6.83-6.1
			S1150.92,215.38,1152.4,211.73z M1159.29,212.71c-1.62,4.02-2.27,7.1-1.93,9.22c0.27,1.64,1.2,2.78,2.8,3.43
			c1.4,0.57,2.71,0.44,3.93-0.37c1.21-0.81,2.42-2.69,3.61-5.64c1.64-4.06,2.3-7.05,2-8.99c-0.27-1.55-1.22-2.66-2.85-3.31
			c-1.4-0.57-2.74-0.44-4,0.36C1161.58,208.22,1160.39,209.98,1159.29,212.71z"/>
		<path class="st6" d="M1167.66,244.29l0.14-1.92l0.32-0.08c0.58,0.3,0.97,0.5,1.19,0.58c0.66,0.27,1.38,0.21,2.14-0.16
			c1.03-0.5,2.05-1.7,3.07-3.62c1.02-1.91,2.7-5.78,5.05-11.6c1.09-2.7,2.21-5.59,3.38-8.69c0.52-1.38,0.78-2.25,0.76-2.61
			c-0.02-0.2-0.12-0.37-0.28-0.51s-1.11-0.6-2.85-1.39l0.7-1.74c3.06,0.86,5.65,1.41,7.74,1.63l2.46,0.22
			c0.2,0.08,0.25,0.22,0.17,0.43l-0.26,0.58c-1.6,3.39-3.38,7.48-5.33,12.28c-1.98,4.91-3.21,7.84-3.69,8.81
			c-1.18,2.45-2.51,4.39-3.98,5.82c-1.47,1.42-3.08,2.35-4.83,2.76c-1.75,0.42-3.27,0.36-4.57-0.16
			C1168.68,244.8,1168.23,244.58,1167.66,244.29z M1192.98,202.43c0.97,0.39,1.65,1.07,2.06,2.03s0.42,1.94,0.02,2.92
			c-0.39,0.97-1.07,1.65-2.03,2.06c-0.96,0.41-1.94,0.42-2.92,0.02c-0.97-0.39-1.65-1.07-2.06-2.03c-0.41-0.96-0.42-1.93-0.03-2.89
			s1.07-1.66,2.04-2.08C1191.03,202.04,1192,202.03,1192.98,202.43z"/>
		<path class="st6" d="M1209.41,242.17l0.39,0.92l-1.89,1.76c-1.36,0.24-2.73,0.27-4.11,0.11c-1.38-0.17-2.77-0.53-4.18-1.1
			c-3.29-1.33-5.5-3.33-6.62-6.01c-1.12-2.68-0.99-5.74,0.41-9.2c0.88-2.19,1.89-3.89,3.03-5.1c0.92-0.98,2.06-1.65,3.4-2
			c1.34-0.35,2.83-0.6,4.46-0.75c1.63-0.15,3.25,0.1,4.87,0.75c2.48,1,4.24,2.52,5.3,4.55c1.06,2.04,0.97,4.59-0.27,7.66
			c-0.15,0.38-0.42,0.94-0.79,1.69l-3.98-0.82c-1.18-0.39-2.85-1.02-5.02-1.89l-4.9-1.98c-0.82,2.7-0.84,4.97-0.04,6.82
			c0.8,1.85,2.22,3.19,4.28,4.02c0.86,0.35,1.76,0.57,2.71,0.66C1207.39,242.35,1208.38,242.32,1209.41,242.17z M1200.34,228.3
			c1.31,0.67,2.64,1.28,4,1.83c1.19,0.48,2.47,0.93,3.83,1.34l0.45-1.06c0.75-1.86,0.96-3.36,0.63-4.49s-1.08-1.93-2.24-2.4
			c-0.81-0.33-1.6-0.41-2.35-0.25c-0.75,0.16-1.42,0.55-2,1.16C1202.08,225.04,1201.31,226.33,1200.34,228.3z"/>
		<path class="st6" d="M1234.02,241.06l-1.86-0.75c0.62-1.84,0.91-2.92,0.87-3.26c-0.03-0.5-0.31-1.07-0.86-1.69
			c-0.55-0.62-1.34-1.15-2.39-1.57c-1.6-0.65-2.96-0.66-4.06-0.04c-1.1,0.62-2.13,2.12-3.09,4.5c-1.22,3.01-1.47,5.62-0.76,7.81
			c0.71,2.2,2.15,3.73,4.3,4.6c0.79,0.32,1.53,0.54,2.25,0.67c0.71,0.13,1.39,0.17,2.04,0.14l0.18,0.65
			c-0.62,0.59-1.22,1.19-1.8,1.81c-1.2,0.09-2.36,0.05-3.5-0.12c-1.13-0.17-2.23-0.47-3.29-0.89c-3.29-1.33-5.49-3.27-6.59-5.83
			c-1.1-2.56-0.97-5.52,0.38-8.87c0.5-1.24,1.07-2.31,1.72-3.22c0.65-0.91,1.32-1.63,2.02-2.16c0.7-0.54,1.38-0.92,2.06-1.16
			c0.4-0.12,2.04-0.43,4.91-0.94c1.68-0.3,2.87-0.43,3.56-0.38c0.69,0.05,1.55,0.28,2.58,0.7c0.91,0.37,1.76,0.79,2.57,1.27
			c0.8,0.48,1.56,1.03,2.27,1.63l0.22,0.56C1236.19,236.8,1234.95,238.99,1234.02,241.06z"/>
		<path class="st6" d="M1239.05,238.06l3.81-0.75c1.04-2.69,1.91-5.05,2.61-7.11c2.32,0.2,4.57,0.21,6.77,0.05l0.47,0.79
			c-1.22,2.05-2.63,4.9-4.23,8.53c0.64,0.4,1.31,0.74,1.99,1.01c1.54,0.62,2.96,1.07,4.27,1.35l0.15,0.22l-0.53,0.73
			c-0.57,0.75-1.05,1.46-1.44,2.13c-1.72-0.83-2.99-1.42-3.82-1.75c-0.62-0.25-1.23-0.46-1.85-0.64c-0.65,1.52-1.21,2.85-1.67,4.02
			c-2.05,5.08-3.07,8.03-3.04,8.84c0.02,0.82,0.6,1.46,1.73,1.91c0.33,0.13,0.71,0.24,1.12,0.32c0.42,0.08,0.87,0.14,1.36,0.18
			l0.04,1.02c-1.31,0.65-2.62,1.34-3.92,2.08c-0.6-0.13-1.14-0.27-1.62-0.42c-0.49-0.14-0.93-0.29-1.32-0.45
			c-1.27-0.51-2.24-1.16-2.92-1.94c-0.68-0.78-1.07-1.6-1.17-2.45c-0.1-0.85,0.12-1.96,0.68-3.34c0.29-0.73,1.1-2.61,2.42-5.67
			c1.17-2.67,2.07-4.8,2.7-6.37l-1.14-0.51c-0.48-0.2-1.12-0.4-1.91-0.61L1239.05,238.06z"/>
		<path class="st6" d="M1253.68,256.6c-0.71,1.98-1.05,3.1-1.02,3.38c0.08,0.75,0.48,1.55,1.21,2.38c0.72,0.83,1.69,1.5,2.89,1.98
			c1.47,0.6,2.7,0.74,3.68,0.42c0.98-0.31,1.67-0.97,2.07-1.98c0.35-0.87,0.36-1.66,0.04-2.37c-0.33-0.71-1.28-1.61-2.87-2.68
			c-2.39-1.63-3.9-2.83-4.52-3.58c-0.62-0.75-0.99-1.64-1.12-2.68c-0.13-1.03,0.05-2.14,0.52-3.32c0.56-1.39,1.4-2.48,2.53-3.27
			s2.46-1.23,4.02-1.32c1.55-0.08,3.39,0.3,5.54,1.17c2.23,0.9,4.16,2.1,5.78,3.6c-0.7,1.15-1.6,3-2.72,5.56l-1.79-0.72
			c0.57-1.67,0.83-2.68,0.78-3.03c-0.05-0.53-0.33-1.07-0.84-1.63c-0.71-0.76-1.56-1.34-2.56-1.74c-1.27-0.51-2.37-0.63-3.3-0.35
			c-0.93,0.28-1.57,0.85-1.91,1.71c-0.32,0.8-0.26,1.56,0.19,2.28c0.44,0.74,1.76,1.81,3.97,3.2c1.52,0.97,2.55,1.71,3.08,2.22
			c0.87,0.88,1.41,1.87,1.61,2.96c0.2,1.09,0.03,2.3-0.5,3.63c-1.03,2.56-2.81,4.12-5.33,4.68c-2.52,0.56-5.15,0.29-7.88-0.81
			c-0.9-0.37-1.87-0.88-2.88-1.53c-1.02-0.65-2.09-1.44-3.22-2.37l-0.19-0.52c0.71-1.24,1.66-3.26,2.84-6.06L1253.68,256.6z"/>
</g></a>

<g class="CAD">

	<ellipse class="st7" cx="688" cy="624.5" rx="226" ry="124.5"/>

		<path class="st1" d="M548.61,624.91l-5.23,10.87c-1.96,4.08-3.57,7.65-4.82,10.7h-0.7c-0.43-1.04-1.68-3.72-3.73-8.04l-6.3-13.04
			v13.59c0,3.16,0.13,4.96,0.38,5.39s1.04,0.64,2.36,0.64h0.65v1.11c-1.63-0.08-2.96-0.12-3.98-0.12c-0.74,0-2.21,0.04-4.42,0.12
			v-1.11h1.14c0.77,0,1.29-0.11,1.55-0.33s0.42-0.63,0.47-1.21c0.15-1.64,0.23-3.41,0.23-5.31v-9.95c0-2.4-0.05-3.99-0.16-4.76
			c-0.05-0.4-0.22-0.7-0.52-0.91s-0.89-0.32-1.78-0.32h-0.93v-1.11c2.04,0.08,3.32,0.12,3.85,0.12c0.67,0,1.62-0.04,2.85-0.12
			c1.42,3.15,3.06,6.63,4.91,10.43l4.63,9.52l4.27-8.81c1.5-3.08,3.21-6.79,5.14-11.13c1.46,0.08,2.5,0.12,3.09,0.12
			c0.69,0,1.94-0.04,3.74-0.12v1.11h-1.15c-1.04,0-1.67,0.18-1.9,0.54c-0.23,0.36-0.34,1.64-0.34,3.86v12.85
			c0,2.86,0.12,4.5,0.36,4.92c0.24,0.42,0.92,0.63,2.02,0.63h1.01v1.11c-1.63-0.08-3.19-0.12-4.68-0.12c-1.64,0-3.36,0.04-5.15,0.12
			v-1.11h1.16c0.93,0,1.49-0.2,1.68-0.61s0.29-2.14,0.29-5.21V624.91z"/>
		<path class="st1" d="M556.96,655.54l0.83-2.74h0.4c0.32,0.38,0.63,0.67,0.95,0.86c0.32,0.19,0.64,0.29,0.97,0.29
			c0.73,0,1.39-0.35,1.99-1.06c0.6-0.7,1.52-2.67,2.76-5.88c-0.52-1.36-1.55-3.95-3.09-7.78l-1.63-4.02l-1.32-3.07
			c-0.41-1.09-1.03-1.63-1.85-1.63h-0.7v-1.02c1.22,0.08,2.3,0.12,3.23,0.12c0.73,0,2.42-0.04,5.08-0.12v1.02h-1.3
			c-0.45,0-0.77,0.08-0.98,0.23c-0.21,0.15-0.31,0.34-0.31,0.56c0,0.19,0.11,0.59,0.33,1.21c1.18,3.25,2.58,6.74,4.19,10.47
			c1.55-3.41,2.89-6.69,4.04-9.85c0.34-0.92,0.51-1.49,0.51-1.69c0-0.37-0.4-0.62-1.2-0.74l-1.3-0.19v-1.02
			c1.38,0.08,2.61,0.12,3.69,0.12c1.02,0,2.04-0.04,3.08-0.12v1.02h-0.62c-0.27,0-0.54,0.08-0.83,0.24s-0.51,0.38-0.69,0.66
			c-0.38,0.6-1.46,2.87-3.25,6.83c-0.49,1.09-1.75,4.04-3.77,8.85c-1.78,4.06-2.79,6.28-3.02,6.68c-0.46,0.77-1.04,1.37-1.76,1.78
			s-1.49,0.62-2.32,0.62c-0.34,0-0.69-0.05-1.05-0.16S557.33,655.74,556.96,655.54z"/>
		<path class="st1" d="M607.68,627.46l-0.14-3.13c-1.04-0.69-2.14-1.21-3.28-1.55s-2.33-0.51-3.58-0.51c-3.16,0-5.7,0.96-7.6,2.88
			s-2.86,4.49-2.86,7.72c0,2.26,0.48,4.28,1.45,6.05s2.34,3.17,4.12,4.2s3.66,1.55,5.64,1.55c1.57,0,3.12-0.18,4.66-0.54
			c1.15-0.27,2.3-0.83,3.46-1.69l0.37,0.35c-0.25,0.54-0.47,1.08-0.69,1.63c-1.37,0.68-2.75,1.19-4.14,1.54s-2.79,0.52-4.19,0.52
			c-2.88,0-5.42-0.56-7.6-1.67s-3.86-2.65-5.04-4.61s-1.76-4.18-1.76-6.65s0.59-4.68,1.78-6.64s2.86-3.46,5.02-4.54
			s4.82-1.61,7.97-1.61c1.65,0,3.59,0.27,5.8,0.81c1.1,0.26,2,0.45,2.69,0.58c-0.53,1.25-0.83,3.02-0.91,5.31H607.68z"/>
		<path class="st1" d="M629.04,637.69h-10.17l-1.19,2.83c-0.79,1.88-1.18,3.02-1.18,3.45c0,0.27,0.07,0.46,0.22,0.58
			s0.52,0.21,1.12,0.28l1.69,0.19v1.11c-1.13-0.08-2.39-0.12-3.8-0.12c-1.69,0-3.17,0.04-4.45,0.12v-1.11l0.53-0.02
			c0.82-0.02,1.35-0.11,1.59-0.25s0.5-0.51,0.76-1.08c0.83-1.69,1.68-3.51,2.55-5.47l4.83-10.95c1.29-2.91,2.17-5.02,2.64-6.33h1.2
			l8.89,20.69c0.6,1.41,1,2.25,1.2,2.54s0.43,0.49,0.69,0.62s0.84,0.21,1.74,0.25v1.11c-1.52-0.08-2.98-0.12-4.36-0.12
			c-1.29,0-3.01,0.04-5.15,0.12v-1.11l1.74-0.11c0.62-0.05,0.99-0.11,1.11-0.19c0.18-0.13,0.26-0.29,0.26-0.49
			c0-0.21-0.18-0.76-0.53-1.65L629.04,637.69z M619.52,636.24h8.86l-4.42-10.56L619.52,636.24z"/>
		<path class="st1" d="M642.5,644.37c0.19-1.82,0.28-4.99,0.28-9.53v-5.1c0-2.09-0.07-3.88-0.21-5.4c-0.08-0.88-0.19-1.39-0.33-1.53
			s-0.62-0.27-1.45-0.39l-1.41-0.21v-1.11c1.93,0.06,3.23,0.09,3.9,0.09l4.73-0.04l3.85-0.07c1.55-0.02,3.13,0.13,4.76,0.46
			s3.11,0.99,4.43,1.98s2.33,2.23,3.02,3.73s1.04,3.22,1.04,5.18c0,3.96-1.33,7.24-4,9.83s-6.15,3.88-10.45,3.88l-2.16-0.05
			c-2.12-0.08-3.46-0.12-4.03-0.12c-0.95,0-2.16,0.07-3.62,0.21v-0.84L642.5,644.37z M646.29,644.28c1.58,0.23,2.98,0.35,4.18,0.35
			c3.28,0,5.83-0.84,7.65-2.53c2.19-2.05,3.29-5.04,3.29-8.96c0-3.42-0.91-6.03-2.73-7.82s-4.49-2.69-8.01-2.69
			c-1.23,0-2.69,0.12-4.38,0.37c-0.14,1.13-0.21,2.4-0.21,3.83v11.5C646.08,640.44,646.15,642.43,646.29,644.28z"/>
		<path class="st1" d="M693.9,637.69h-10.17l-1.19,2.83c-0.79,1.88-1.18,3.02-1.18,3.45c0,0.27,0.07,0.46,0.22,0.58
			s0.52,0.21,1.12,0.28l1.69,0.19v1.11c-1.13-0.08-2.39-0.12-3.8-0.12c-1.69,0-3.17,0.04-4.45,0.12v-1.11l0.53-0.02
			c0.82-0.02,1.35-0.11,1.59-0.25s0.5-0.51,0.76-1.08c0.83-1.69,1.68-3.51,2.55-5.47l4.83-10.95c1.29-2.91,2.17-5.02,2.64-6.33h1.2
			l8.89,20.69c0.6,1.41,1,2.25,1.2,2.54s0.43,0.49,0.69,0.62s0.84,0.21,1.74,0.25v1.11c-1.52-0.08-2.98-0.12-4.36-0.12
			c-1.29,0-3.01,0.04-5.15,0.12v-1.11l1.74-0.11c0.62-0.05,0.99-0.11,1.11-0.19c0.18-0.13,0.26-0.29,0.26-0.49
			c0-0.21-0.18-0.76-0.53-1.65L693.9,637.69z M684.39,636.24h8.86l-4.42-10.56L684.39,636.24z"/>
		<path class="st1" d="M706.13,640.74v1.15c0,0.92,0.08,1.49,0.25,1.71c0.3,0.38,0.9,0.74,1.78,1.09s1.8,0.53,2.73,0.53
			c1.21,0,2.19-0.33,2.95-0.98s1.14-1.43,1.14-2.33c0-0.72-0.22-1.29-0.67-1.72c-0.45-0.43-1.29-0.78-2.55-1.04
			c-2.33-0.47-3.87-0.88-4.62-1.23c-0.75-0.35-1.31-0.82-1.69-1.41s-0.56-1.3-0.56-2.13c0-1.56,0.57-2.83,1.7-3.8
			c1.13-0.97,2.74-1.46,4.81-1.46c1.64,0,3.28,0.33,4.91,0.98c-0.1,0.8-0.18,2.13-0.25,4.01h-1.05c-0.02-1.03-0.13-1.71-0.33-2.04
			c-0.27-0.43-0.76-0.83-1.47-1.18s-1.47-0.53-2.28-0.53c-1.06,0-1.92,0.27-2.55,0.82c-0.64,0.55-0.96,1.23-0.96,2.05
			c0,0.79,0.25,1.38,0.76,1.78c0.5,0.41,1.9,0.84,4.18,1.3c1.69,0.34,2.8,0.66,3.34,0.95c0.54,0.29,0.97,0.74,1.3,1.33
			c0.33,0.6,0.49,1.28,0.49,2.06c0,1.58-0.68,2.94-2.03,4.09s-3.16,1.72-5.42,1.72c-1.44,0-3.06-0.23-4.85-0.68
			c-0.32-0.08-0.47-0.2-0.47-0.37l0.05-0.25c0.05-0.18,0.09-0.49,0.12-0.93c0.11-1.14,0.16-2.03,0.16-2.66l-0.02-0.85H706.13z"/>
		<path class="st1" d="M721.39,640.74v1.15c0,0.92,0.08,1.49,0.25,1.71c0.3,0.38,0.9,0.74,1.78,1.09s1.8,0.53,2.73,0.53
			c1.21,0,2.19-0.33,2.95-0.98s1.14-1.43,1.14-2.33c0-0.72-0.22-1.29-0.67-1.72c-0.45-0.43-1.29-0.78-2.55-1.04
			c-2.33-0.47-3.87-0.88-4.62-1.23c-0.75-0.35-1.31-0.82-1.69-1.41s-0.56-1.3-0.56-2.13c0-1.56,0.57-2.83,1.7-3.8
			c1.13-0.97,2.74-1.46,4.81-1.46c1.64,0,3.28,0.33,4.91,0.98c-0.1,0.8-0.18,2.13-0.25,4.01h-1.05c-0.02-1.03-0.13-1.71-0.33-2.04
			c-0.27-0.43-0.76-0.83-1.47-1.18s-1.47-0.53-2.28-0.53c-1.06,0-1.92,0.27-2.55,0.82c-0.64,0.55-0.96,1.23-0.96,2.05
			c0,0.79,0.25,1.38,0.76,1.78c0.5,0.41,1.9,0.84,4.18,1.3c1.69,0.34,2.8,0.66,3.34,0.95c0.54,0.29,0.97,0.74,1.3,1.33
			c0.33,0.6,0.49,1.28,0.49,2.06c0,1.58-0.68,2.94-2.03,4.09s-3.16,1.72-5.42,1.72c-1.44,0-3.06-0.23-4.85-0.68
			c-0.32-0.08-0.47-0.2-0.47-0.37l0.05-0.25c0.05-0.18,0.09-0.49,0.12-0.93c0.11-1.14,0.16-2.03,0.16-2.66l-0.02-0.85H721.39z"/>
		<path class="st1" d="M740.64,629.05l0.42,0.26c-0.08,0.88-0.13,1.85-0.16,2.9c-0.08,3.42-0.12,5.95-0.12,7.58
			c0,1.52,0.05,2.82,0.16,3.9c0.05,0.42,0.16,0.71,0.33,0.88s0.6,0.29,1.27,0.37l1.2,0.16v1.02c-1.71-0.08-3.27-0.12-4.68-0.12
			c-1.38,0-2.78,0.04-4.18,0.12v-1.02l1.51-0.16c0.59-0.05,0.95-0.16,1.08-0.33s0.22-0.74,0.25-1.7c0.06-1.49,0.09-3.55,0.09-6.17
			c0-1.82-0.03-3.23-0.09-4.21c-0.02-0.36-0.13-0.62-0.31-0.78c-0.18-0.15-0.59-0.23-1.22-0.23h-1.32v-1.02
			c1.43-0.21,2.48-0.4,3.16-0.57C738.7,629.77,739.57,629.47,740.64,629.05z M739.23,621.27c0.54,0,1,0.2,1.39,0.59
			s0.58,0.86,0.58,1.42s-0.19,1.02-0.58,1.41s-0.85,0.58-1.39,0.58c-0.55,0-1.02-0.19-1.41-0.58s-0.58-0.86-0.58-1.41
			s0.19-1.02,0.58-1.42S738.68,621.27,739.23,621.27z"/>
		<path class="st1" d="M760.18,632.39c0.27,0.75,0.4,1.37,0.4,1.85c0,1.05-0.32,2.05-0.95,3.02c-0.63,0.97-1.54,1.75-2.71,2.34
			c-1.17,0.59-2.44,0.89-3.8,0.89l-0.83-0.02c-0.77,0.57-1.26,1-1.46,1.28c-0.2,0.28-0.31,0.55-0.31,0.82
			c0,0.44,0.23,0.79,0.69,1.05s1.39,0.38,2.79,0.38c0.54,0,1.31-0.02,2.32-0.06c1.44-0.07,2.48-0.1,3.13-0.1
			c0.93,0,1.63,0.15,2.13,0.45c0.49,0.3,0.91,0.82,1.27,1.57s0.53,1.59,0.53,2.53c0,1.31-0.4,2.57-1.2,3.78s-1.96,2.17-3.48,2.9
			c-1.52,0.73-3.28,1.09-5.26,1.09c-2.41,0-4.27-0.52-5.57-1.57s-1.95-2.34-1.95-3.88c0-0.95,0.34-1.91,1.02-2.88
			c1.22-0.57,2.24-1.15,3.08-1.74c-0.96-0.32-1.58-0.6-1.85-0.87c-0.27-0.26-0.41-0.6-0.41-1.01c0-0.49,0.13-0.98,0.4-1.45
			c0.15-0.29,0.54-0.65,1.16-1.07l1.7-1.21c-1.41-0.35-2.42-0.85-3.04-1.5c-0.82-0.87-1.23-1.98-1.23-3.33
			c0-1.18,0.3-2.26,0.91-3.24c0.61-0.97,1.51-1.74,2.69-2.31c1.51-0.72,2.97-1.07,4.38-1.07c0.89,0,1.67,0.12,2.35,0.35
			s1.36,0.63,2.07,1.2h1.48c1.52,0,2.71-0.05,3.55-0.16l0.19,0.37c-0.35,0.51-0.66,1.04-0.93,1.6H760.18z M752.72,646.37
			c-0.83,0-1.4,0.09-1.7,0.28c-0.98,0.63-1.58,1.14-1.79,1.53c-0.35,0.61-0.53,1.38-0.53,2.31c0,1.28,0.47,2.34,1.42,3.17
			c0.95,0.83,2.26,1.25,3.95,1.25c1.3,0,2.44-0.24,3.42-0.72c0.98-0.48,1.75-1.14,2.29-1.98s0.82-1.71,0.82-2.6
			c0-0.76-0.19-1.43-0.57-2.01c-0.38-0.58-0.83-0.95-1.36-1.11c-0.27-0.08-0.88-0.12-1.84-0.12H752.72z M757.53,635.17
			c0-1.47-0.38-2.65-1.13-3.55c-0.75-0.89-1.7-1.34-2.84-1.34c-1.13,0-2.04,0.37-2.72,1.09c-0.69,0.73-1.03,1.74-1.03,3.04
			c0,1.57,0.37,2.79,1.12,3.68c0.75,0.89,1.68,1.33,2.81,1.33s2.04-0.37,2.74-1.12C757.18,637.56,757.53,636.51,757.53,635.17z"/>
		<path class="st1" d="M770.82,632.48l2.66-2.36c0.32-0.28,0.65-0.49,1-0.62c0.77-0.26,1.55-0.39,2.32-0.39
			c1.26,0,2.34,0.25,3.26,0.76s1.57,1.17,1.97,1.99s0.6,2.09,0.6,3.82l-0.07,5.54c0,1.91,0.08,3.01,0.24,3.3
			c0.22,0.38,0.65,0.56,1.29,0.56h1.26v1.02c-1.25-0.08-2.33-0.12-3.24-0.12c-0.89,0-1.84,0.04-2.86,0.12
			c0.22-2.29,0.33-5.37,0.33-9.26c0-1.57-0.14-2.68-0.41-3.34c-0.28-0.66-0.74-1.18-1.39-1.58s-1.44-0.6-2.35-0.6
			c-1.14,0-2.1,0.29-2.9,0.86c-0.79,0.57-1.28,1.21-1.47,1.9c-0.12,0.46-0.18,1.65-0.18,3.59c0,2.14,0.02,4.14,0.05,5.98
			c0.01,0.55,0.09,0.9,0.25,1.04c0.29,0.27,0.78,0.4,1.45,0.4h1.26v1.02c-1.98-0.08-3.56-0.12-4.74-0.12
			c-1.24,0-2.66,0.04-4.24,0.12v-1.02h1.27c0.87,0,1.37-0.2,1.52-0.61c0.15-0.4,0.22-2.83,0.22-7.29c0-2-0.02-3.57-0.07-4.7
			c-0.02-0.38-0.12-0.63-0.28-0.77s-0.63-0.21-1.39-0.21h-1.27v-1.02c1-0.12,1.9-0.28,2.7-0.47c0.79-0.2,1.69-0.5,2.68-0.91
			c0.1-0.05,0.2-0.07,0.3-0.07c0.19,0,0.28,0.13,0.28,0.4l-0.02,0.67L770.82,632.48z"/>
		<path class="st1" d="M792.19,632.27l2.36-2.11c0.38-0.34,0.77-0.58,1.2-0.72c0.61-0.21,1.21-0.32,1.81-0.32
			c1.32,0,2.39,0.24,3.19,0.71c0.8,0.48,1.54,1.33,2.21,2.56l2.27-2.07c0.39-0.35,0.86-0.62,1.43-0.81
			c0.74-0.26,1.46-0.39,2.15-0.39c1.06,0,2.01,0.25,2.87,0.74c0.86,0.49,1.49,1.13,1.91,1.92s0.63,1.85,0.63,3.2l-0.07,6.88
			c0,1.54,0.09,2.44,0.27,2.72c0.18,0.28,0.63,0.43,1.36,0.47l1.29,0.05v1.02l-0.85-0.04c-1.37-0.05-2.29-0.08-2.78-0.08
			c-0.74,0-1.61,0.04-2.6,0.12c0.16-2.17,0.25-4.7,0.25-7.6c0-2.45-0.11-4.06-0.32-4.83c-0.21-0.77-0.61-1.37-1.21-1.81
			c-0.6-0.44-1.34-0.66-2.24-0.66c-1.02,0-1.89,0.28-2.61,0.83c-0.72,0.55-1.17,1.21-1.35,1.98c-0.12,0.49-0.18,2.57-0.18,6.26
			c0,2.17,0.02,3.41,0.05,3.71c0.04,0.3,0.13,0.52,0.29,0.64c0.16,0.12,0.67,0.23,1.52,0.33l1.18,0.14v1.02
			c-2.07-0.08-3.6-0.12-4.57-0.12c-0.77,0-2.27,0.04-4.5,0.12v-1.02h1.18c0.7,0,1.16-0.1,1.37-0.3s0.33-0.67,0.37-1.41
			c0.09-1.92,0.14-3.93,0.14-6.02c0-1.87-0.13-3.15-0.38-3.86s-0.68-1.27-1.28-1.68s-1.33-0.62-2.17-0.62
			c-0.9,0-1.72,0.25-2.46,0.76s-1.24,1.11-1.51,1.83c-0.18,0.49-0.26,1.89-0.26,4.19c0,2.52,0.02,4.38,0.07,5.56
			c0.02,0.55,0.11,0.9,0.26,1.06c0.15,0.15,0.66,0.27,1.51,0.35l1.21,0.14v1.02c-1.46-0.08-2.85-0.12-4.15-0.12
			c-1.48,0-3.08,0.04-4.82,0.12v-1.02h1.34c0.76,0,1.22-0.2,1.37-0.61c0.15-0.41,0.23-2.61,0.23-6.62c0-2.94-0.02-4.67-0.05-5.2
			c-0.04-0.53-0.13-0.86-0.3-1c-0.16-0.14-0.66-0.21-1.49-0.21h-1.09v-0.97c1.72-0.23,3.21-0.56,4.45-0.97l1.28-0.49
			c0.21,0,0.32,0.14,0.32,0.42l-0.04,0.64C792.19,630.75,792.18,631.47,792.19,632.27z"/>
		<path class="st1" d="M821.57,637.62c0.06,2.31,0.65,4.06,1.77,5.26s2.6,1.79,4.42,1.79c0.82,0,1.63-0.13,2.44-0.4
			s1.61-0.67,2.41-1.21l0.3,0.26l-0.56,1.48c-0.97,0.56-1.97,0.98-3.01,1.27s-2.09,0.42-3.18,0.42c-2.38,0-4.3-0.75-5.76-2.26
			s-2.19-3.55-2.19-6.13c0-1.97,0.41-3.67,1.23-5.12c0.54-0.95,1.54-1.83,2.99-2.64s2.87-1.21,4.24-1.21c2.07,0,3.72,0.61,4.93,1.83
			s1.82,2.92,1.82,5.12l-0.04,1.04c-0.77,0.19-1.51,0.31-2.21,0.37c-1.25,0.09-2.99,0.14-5.21,0.14H821.57z M821.6,636.3
			c1.82,0.08,3.82,0.12,6.01,0.12c0.88,0,1.73-0.04,2.55-0.12v-0.98c0-1.03-0.21-2.01-0.62-2.94c-0.26-0.57-0.71-1.05-1.35-1.43
			s-1.39-0.57-2.23-0.57c-1.31,0-2.36,0.48-3.15,1.44S821.63,634.27,821.6,636.3z"/>
		<path class="st1" d="M840.8,632.48l2.66-2.36c0.32-0.28,0.65-0.49,1-0.62c0.77-0.26,1.55-0.39,2.32-0.39
			c1.26,0,2.34,0.25,3.26,0.76s1.57,1.17,1.97,1.99s0.6,2.09,0.6,3.82l-0.07,5.54c0,1.91,0.08,3.01,0.24,3.3
			c0.22,0.38,0.65,0.56,1.29,0.56h1.26v1.02c-1.25-0.08-2.33-0.12-3.24-0.12c-0.89,0-1.84,0.04-2.86,0.12
			c0.22-2.29,0.33-5.37,0.33-9.26c0-1.57-0.14-2.68-0.41-3.34c-0.28-0.66-0.74-1.18-1.39-1.58s-1.44-0.6-2.35-0.6
			c-1.14,0-2.1,0.29-2.9,0.86c-0.79,0.57-1.28,1.21-1.47,1.9c-0.12,0.46-0.18,1.65-0.18,3.59c0,2.14,0.02,4.14,0.05,5.98
			c0.01,0.55,0.09,0.9,0.25,1.04c0.29,0.27,0.78,0.4,1.45,0.4h1.26v1.02c-1.98-0.08-3.56-0.12-4.74-0.12
			c-1.24,0-2.66,0.04-4.24,0.12v-1.02h1.27c0.87,0,1.37-0.2,1.52-0.61c0.15-0.4,0.22-2.83,0.22-7.29c0-2-0.02-3.57-0.07-4.7
			c-0.02-0.38-0.12-0.63-0.28-0.77s-0.63-0.21-1.39-0.21h-1.27v-1.02c1-0.12,1.9-0.28,2.7-0.47c0.79-0.2,1.69-0.5,2.68-0.91
			c0.1-0.05,0.2-0.07,0.3-0.07c0.19,0,0.28,0.13,0.28,0.4l-0.02,0.67L840.8,632.48z"/>
		<path class="st1" d="M861.94,632.31v6.9c0,1.8,0.06,2.95,0.18,3.45c0.12,0.5,0.35,0.9,0.71,1.18c0.36,0.28,0.81,0.42,1.36,0.42
			c0.34,0,0.67-0.07,0.99-0.2s0.64-0.34,0.96-0.61l0.51,0.61l-1.71,2.01c-0.38,0.13-0.74,0.23-1.09,0.3
			c-0.35,0.07-0.69,0.11-1.02,0.11c-0.87,0-1.61-0.16-2.21-0.47s-1.04-0.71-1.31-1.21c-0.27-0.5-0.41-1.25-0.41-2.26l0.07-3.39
			v-6.68c-0.9,0-1.83,0.04-2.79,0.12v-0.76c1.01-0.39,1.94-0.79,2.79-1.21c-0.01-1.68-0.06-3.49-0.14-5.45
			c1.37-0.57,2.35-1.04,2.95-1.39l0.46,0.35c-0.09,0.91-0.19,3.08-0.3,6.49c1.43,0,2.6-0.02,3.5-0.05l1.41-0.07l-0.19,1.81
			l-0.72-0.02l-3.38,0.02H861.94z"/>

</g></a>
</svg>
